<svg width="169" height="158" viewBox="0 0 169 158" fill="none" xmlns="http://www.w3.org/2000/svg">
<path fill-rule="evenodd" clip-rule="evenodd" d="M97.1688 157.628C117.256 157.628 134.883 140.244 124.984 116.632C115.084 93.0198 151.867 93.7826 162.673 77.4631C175.85 57.5613 172.034 -26.9194 87.4411 24.5842C73.8906 32.8344 39.0894 16.0964 27.5457 24.4015C13.9575 34.1774 -5.16012 54.1953 13.9575 74.7004C23.3746 84.8009 -10.3876 111.017 4.39956 134.5C18.828 157.414 28.9423 135.571 50.9094 140.244C72.8767 144.918 82.2505 157.628 97.1688 157.628Z" fill="#64FCD9"/>
<path d="M73.854 116.55C73.854 116.55 78.4791 114.019 80.2058 112.258C81.9325 110.497 84.0793 106.121 84.0793 106.121C84.0793 106.121 107.659 125.934 123.034 123.108C126.576 122.457 133.479 119.717 133.919 114.89C135.121 101.71 118.491 98.3417 122.123 91.6576C124.341 87.5775 131.229 93.6498 131.229 93.6498L159.799 110C159.799 110 149.929 138.307 125.976 139.442C96.5113 140.837 73.854 116.55 73.854 116.55Z" fill="white"/>
<path fill-rule="evenodd" clip-rule="evenodd" d="M51.2026 5.69243C50.9344 5.56981 49.4942 3.5183 47.6661 3.14497C46.8354 2.97525 47.5892 4.2059 46.6752 4.21719C43.952 4.25011 39.5266 3.65479 38.7068 4.21719C38.0975 4.63376 39.4392 6.08866 38.7068 6.15545C31.7951 6.78594 21.2509 14.8149 18.9635 18.7101C18.2352 19.9498 24.1235 17.8466 23.1853 18.4594C22.1323 19.1473 20.9644 23.6514 20.2664 27.1298C19.783 29.5252 19.4785 32.608 19.3711 35.9618C19.2815 38.8571 19.3173 39.3362 19.6754 40.9192C20.0872 42.6897 20.4095 43.2105 20.9644 42.9604C21.1616 42.8772 21.2509 42.5648 21.2509 41.9815C21.2509 41.5233 21.4658 40.1484 21.7343 38.9193L22.1999 36.7117L22.3968 37.628C22.6475 38.6903 24.1155 41.9815 25.4403 44.3769C25.5118 44.5041 25.8191 44.3424 26.0965 43.5628C26.3491 42.8523 26.2465 41.7175 26.6758 40.5011C27.6531 37.7303 29.5726 34.1281 31.7951 31.2444C35.0798 26.9829 36.1695 22.0507 39.2484 18.0915C44.9948 10.7031 52.2063 6.15094 51.2026 5.69243Z" fill="white"/>
<path fill-rule="evenodd" clip-rule="evenodd" d="M23.2671 19.4644C22.3452 20.3269 20.9769 27.3216 20.9536 27.4384C20.4702 29.8339 20.0043 38.1523 20.4804 39.7272C20.9569 41.3021 22.2903 35.6251 22.2903 35.6251C22.2903 35.6251 24.3063 41.7151 26.0876 43.3849C26.1636 43.4563 23.9704 35.85 23.2671 31.4098C22.3386 25.5486 23.7915 18.9736 23.2671 19.4644Z" fill="#E7EAEE"/>
<path fill-rule="evenodd" clip-rule="evenodd" d="M57.6232 141.969C59.3419 141.532 62.2419 140.008 63.3524 139.488C64.4625 138.967 67.846 133.408 69.0635 127.138C69.9407 122.514 70.3883 115.932 69.8869 114.828C69.8129 114.671 69.5422 111.678 70.263 112.656C71.8654 114.828 73.7676 118.238 79.7694 112.127C81.4043 110.463 83.5708 108.315 83.0003 106.415C81.4043 101.102 74.4848 90.402 73.4301 89.5915C72.1688 88.6222 65.7943 89.446 56.3076 86.188C45.5487 82.4935 41.0689 71.6145 36.8587 73.0306C33.4539 74.1758 25.2961 81.2138 23.2489 85.6708C13.5833 106.713 25.2961 121.456 27.9635 125.691L30.5536 126.993L30.6431 129.68L30.7682 131.367C31.0012 134.595 31.0905 134.887 32.3437 135.97C35.4768 138.741 41.6535 141.323 47.2393 142.24C49.8354 142.657 55.475 142.511 57.6232 141.969Z" fill="white"/>
<path fill-rule="evenodd" clip-rule="evenodd" d="M31.5716 128.696L31.697 130.383C31.9299 133.612 32.0192 133.903 33.2725 134.987C35.1209 136.621 38.0285 138.19 41.2489 139.39C43.4875 140.224 45.8776 140.88 48.1681 141.256C50.7642 141.673 56.4035 141.527 58.552 140.986C59.6139 140.718 50.879 132.734 45.7331 134.987C41.7814 136.717 32.4674 123.52 36.2544 120.072C40.5026 116.204 32.7181 100.95 32.4674 97.6383C32.2167 94.3264 31.2297 93.5352 31.2008 93.6514C31.172 93.7675 31.172 94.1638 31.2494 95.1186C31.5835 99.2335 31.5716 128.696 31.5716 128.696Z" fill="#E7EAEE"/>
<path fill-rule="evenodd" clip-rule="evenodd" d="M30.6393 96.6928C31.015 96.6076 31.3789 96.8931 31.4521 97.3307C32.8033 105.407 38.5188 110.875 48.7389 113.734C59.0199 116.611 66.0228 116.455 69.7125 113.385C70.0239 113.126 69.7918 115.345 69.5635 115.516C67.1571 117.311 58.975 119.99 49.2106 117.569C36.7259 114.473 30.8639 102.259 30.091 97.6388C30.018 97.2016 30.2632 96.7779 30.6393 96.6928Z" fill="#FFB61D"/>
<path fill-rule="evenodd" clip-rule="evenodd" d="M25.433 82.1199C25.7656 81.8985 38.1654 98.4329 55.1826 102.176C72.1998 105.918 76.3198 103.538 76.9821 98.4329C77.0392 97.9925 77.3926 97.6892 77.7711 97.7557C78.15 97.8221 78.4104 98.2332 78.3532 98.6736C77.514 105.144 69.6397 106.683 54.9494 103.766C40.4434 100.886 30.4983 94.0437 25.1757 83.2205C24.9854 82.8339 25.1008 82.3409 25.433 82.1199Z" fill="#FFB61D"/>
<path fill-rule="evenodd" clip-rule="evenodd" d="M96.8564 81.2037C96.3908 81.0162 95.8896 80.5997 95.5674 80.1205L95.0302 79.3497L96.928 77.1626C99.8463 73.8298 102.084 70.4137 104.018 66.352C104.662 64.9981 106.291 60.4778 106.291 60.0406C106.291 59.8948 106.488 59.3114 106.721 58.7074C107.079 57.8326 107.348 57.4993 108.118 56.9995C109.031 56.3745 110.069 56.1664 110.516 56.5203C111.376 57.187 111.376 59.2908 110.516 62.9149C109.568 66.8934 108.297 69.7471 105.665 73.8508C105.253 74.4754 104.483 75.7045 103.928 76.5586C102.442 78.8498 101.475 79.9537 100.169 80.8078C98.8796 81.6409 98.1274 81.7451 96.8564 81.2037ZM109.711 79.329L111 79.9956C111.267 80.1389 114.216 81.7874 117.758 83.7676C123.468 86.9601 130.721 91.0144 130.765 91.0144C130.837 91.0144 131.173 90.1106 131.249 89.0564C131.428 86.7861 132.09 83.7031 132.86 81.5577C133.218 80.5997 133.504 79.4019 133.504 79.298C133.504 79.2503 133.213 79.1138 132.737 78.8902C132.17 78.624 131.34 78.2345 130.425 77.725C125.913 75.2047 117.087 70.0598 115.995 69.2889C114.921 68.56 114.706 68.4974 114.706 68.9766C114.706 69.6016 113.614 72.4969 112.772 74.0589C112.325 74.913 111.447 76.4544 110.821 77.475L109.711 79.329ZM130.461 87.265C130.974 87.6112 130.085 88.1191 129.87 88.2023C128.605 88.3275 127.116 88.0507 125.895 87.2234C125.258 86.6971 120.234 83.4498 116.901 81.2956C115.378 80.3112 114.208 79.5549 113.972 79.3916C113.22 78.8708 112.504 78.3084 112.378 78.1416C112.003 77.5792 112.361 77.3294 113.417 77.4333C114.052 77.4959 129.352 86.5174 130.461 87.265ZM57.6839 141.798C59.065 141.446 61.2088 140.393 62.5739 139.723C62.9078 139.559 63.1948 139.418 63.4131 139.316C64.5235 138.795 67.9067 133.237 69.1242 126.967C70.0014 122.342 70.449 115.76 69.9479 114.656C69.6456 114.017 71.441 116.162 72.7783 117.759C73.1838 118.243 73.5471 118.677 73.797 118.968C81.6028 127.987 93.222 135.236 105.289 138.631C111.304 140.339 115.583 140.943 121.33 140.943C130.98 140.943 138.589 138.735 145.5 133.882C145.828 133.652 146.135 133.44 146.429 133.238C148.838 131.578 150.273 130.59 154.201 125.446C158.606 119.676 162.526 106.283 163.833 101.658C164.405 99.5754 165.802 91.2906 165.802 89.2232C165.802 86.7755 165.068 85.6197 164.065 84.4323C162.293 82.4118 159.894 81.6829 157.907 82.5576L156.976 82.9742L156.689 81.8703C156.277 80.2038 155.418 78.8708 154.093 77.8709C152.124 76.3501 151.837 76.2462 150.065 76.2462C148.686 76.2462 148.31 76.3295 147.433 76.8087L146.413 77.3501L146.198 76.6002C145.786 75.0588 144.405 72.9102 143.333 72.2884C142.383 71.7373 140.738 71.6866 139.592 71.9344C137.085 72.4759 135.295 73.8298 134.561 75.7255C134.346 76.3085 134.077 76.767 133.97 76.767C133.88 76.767 130.354 75.6209 126.146 73.4545C125.436 73.088 124.77 72.744 124.144 72.4213C116.589 68.5252 114.951 67.6807 115.1 66.6227C115.225 65.727 115.189 65.2272 114.975 64.4563C114.599 63.165 114.169 62.8111 112.951 62.8111C111.985 62.8111 111.985 62.811 112.092 62.2486C112.665 59.0617 112.647 57.2286 112.038 56.0621C111.627 55.2913 111.143 54.979 110.033 54.7915C109.389 54.6873 109.084 54.7499 108.368 55.2081C107.885 55.4997 107.473 55.7079 107.437 55.6662C107.401 55.6246 107.527 54.4791 107.724 53.1249C109.192 43.1058 108.058 34.4735 104.316 25.3085C104.28 25.2207 104.238 25.1171 104.191 24.9984C103.053 22.157 98.4794 10.7317 85.3984 4.9666C84.8063 4.70556 84.2461 4.45324 83.7075 4.21091C79.2516 2.20425 76.2894 0.870022 69.1422 0.883896C61.1312 0.899384 58.418 2.21715 53.1365 5.02919C52.4027 5.42478 51.7581 5.65388 51.7043 5.57063C51.6505 5.46641 51.3105 5.21666 50.9702 5.00822C50.6302 4.8001 49.8961 4.27932 49.3589 3.86275C47.8192 2.65437 46.8704 2.15456 46.387 2.27943C45.8321 2.44625 45.8321 2.98768 46.387 3.23775C46.6197 3.34197 46.8884 3.69594 46.9958 4.05023C47.2284 4.8001 47.4969 4.88335 47.658 4.25835C47.7299 4.02925 47.8372 3.86276 47.891 3.90438C47.9112 3.916 47.9795 3.95343 48.0835 4.00989C48.3453 4.15251 48.8337 4.41871 49.3589 4.71653C50.093 5.1331 50.8987 5.57063 51.1136 5.67485C51.5074 5.84135 51.3821 5.96654 49.6812 7.13298C43.039 11.6739 37.6324 18.7351 34.6067 26.7753C34.1411 27.9834 33.7295 28.7333 33.2997 29.1501C32.2075 30.2124 30.0593 33.2325 29.5579 34.4199C29.2894 35.0656 28.7164 36.0655 28.2688 36.6486C27.8392 37.232 27.3736 37.9819 27.2125 38.2942C27.0694 38.6275 26.9263 38.8566 26.8725 38.815C26.8367 38.7524 26.8902 37.7318 27.0156 36.5447C27.2843 33.7743 27.2843 33.045 27.0694 32.9828C26.7471 32.8786 26.2817 34.3367 26.0846 36.1488C25.9415 37.2526 25.9057 38.9192 25.9953 40.6271L26.1026 43.3352L24.8316 40.9397C24.3945 40.1386 23.9641 39.3377 23.6582 38.7688V38.7685L23.6579 38.7682L23.6573 38.7669L23.6568 38.7663V38.7659L23.6565 38.7656L23.6559 38.7646C23.4621 38.4036 23.3184 38.1367 23.256 38.0235C22.7904 37.232 22.5219 36.0446 22.7188 35.649C22.8262 35.4199 22.8084 35.3157 22.6293 35.3157C22.2535 35.3157 21.5194 36.7112 21.036 38.3152C20.8033 39.065 20.5703 39.6897 20.4988 39.6897C20.2303 39.6897 20.3557 32.2329 20.6422 29.8374C21.2329 25.1091 22.7904 19.2765 23.4887 19.2765C23.6318 19.2765 23.7572 19.1933 23.7572 19.0684C23.7572 18.6935 23.2918 18.8393 22.9157 19.3185C22.0743 20.3807 20.9644 23.6509 20.2661 27.1296C19.7827 29.5251 19.4785 32.6078 19.3709 35.9613C19.2816 38.8566 19.3173 39.3358 19.6754 40.9188C20.0872 42.6892 20.4095 43.21 20.9644 42.9603C21.1613 42.8767 21.2509 42.5644 21.2509 41.981C21.2509 41.5228 21.4656 40.1482 21.7343 38.9192L22.1997 36.7112L22.3966 37.6276C22.6473 38.6901 24.1152 41.9813 25.44 44.3765C26.3533 46.0014 26.371 46.1053 26.6756 48.6466C26.8367 50.0838 27.3378 53.5799 28.5015 58.9574C29.5299 63.709 35.31 68.4222 36.7536 69.5993L36.7544 69.6C36.9441 69.7545 37.0586 69.8481 37.0772 69.8723C37.2564 70.1014 37.5071 70.2262 37.6502 70.164C37.8113 70.1014 37.9009 70.1846 37.9009 70.4137C37.9009 70.6222 38.0262 70.8929 38.1694 71.0177C38.3485 71.1636 38.4739 71.726 38.5096 72.705C38.5992 74.6629 39.8522 78.4123 40.819 79.6413C41.4458 80.4328 42.7526 80.7662 44.2027 80.4745C45.1518 80.308 45.4202 80.1831 45.3307 79.933C45.2771 79.7665 45.6171 79.9747 46.0828 80.3912C51.5252 85.2238 57.0394 88.1191 63.2339 89.3688C65.6331 89.8479 69.6076 90.1186 71.7738 89.9312C73.6896 89.7857 73.6896 89.7857 73.6001 90.2229C73.4747 90.8063 73.6358 91.1602 76.2675 96.3468C78.3622 100.45 78.5413 100.721 80.8687 103.492C85.81 109.428 91.1988 114.031 97.304 117.593C103.051 120.926 112.226 123.696 120.614 124.571C129.002 125.446 135.026 116.489 135.008 114.198C134.973 111.053 134.596 108.99 133.684 106.991C132.788 105.054 132.198 104.387 129.512 102.304C126.522 99.9922 124.678 98.0966 123.461 96.076C122.691 94.8054 122.404 93.3682 122.404 92.5974C122.404 92.0976 122.959 90.9727 123.783 90.7437C124.535 90.5146 124.678 90.5352 125.52 91.0144C126.021 91.2851 127.328 91.9933 128.402 92.5974C129.494 93.1808 130.55 93.7641 130.765 93.889C131.399 94.0936 131.666 95.5362 131.812 96.318C131.844 96.4926 131.87 96.6343 131.893 96.7217C132.144 97.8049 133.33 99.2037 134.095 99.6796C135.439 100.516 138.75 100.628 139.663 99.4821C139.896 99.1904 140.668 98.8316 140.827 98.9404C140.986 99.0491 141.561 99.9503 141.561 100.68C141.579 101.929 142.134 103.075 143.315 104.22C145.553 106.387 147.29 106.908 149.044 105.949C149.957 105.45 150.706 105.254 150.706 105.254C150.706 105.254 151.452 106.362 151.497 106.741C151.849 109.7 155.615 110.941 156.618 111.066C156.847 111.093 157.295 110.978 157.749 110.862C158.356 110.707 158.976 110.548 159.106 110.719C159.362 111.055 154.827 119.78 154.201 120.884C148.239 131.299 136.637 137.673 122.44 138.34C113.22 138.777 101.887 135.778 92.0583 130.32C85.7742 126.8 80.2064 122.488 74.2446 116.448C73.2063 115.406 72.0065 114.219 71.5769 113.802C71.1473 113.406 70.1268 112.053 69.3391 110.803C68.0143 108.72 67.2622 107.97 67.2622 108.678C67.2622 108.99 68.1216 110.907 69.1062 112.802C69.5003 113.552 69.7507 114.073 69.6614 113.99C69.5718 113.906 69.2853 115.406 69.0169 117.322C68.1394 123.467 66.6892 129.529 65.2213 133.299C64.4156 135.34 62.8709 136.865 62.4052 137.281C60.6866 138.802 58.1138 139.485 54.5509 139.902C50.0392 140.423 43.3971 139.256 38.3305 137.048C36.9879 136.465 33.5323 134.778 33.2997 134.59C33.2858 134.574 33.2065 133.975 33.0958 133.138C33.0645 132.903 33.0309 132.648 32.9954 132.382C32.3509 127.238 31.4557 107.428 31.4557 98.2631C31.4557 94.4721 31.4199 93.6389 31.205 93.6389C30.7573 93.6389 30.5785 94.1391 30.3816 95.9302C29.9339 100.013 30.0235 121.322 30.5069 125.8L30.6142 126.821L30.0055 126.425C29.0745 125.8 25.5296 121.613 24.2944 119.676C23.2485 118.02 22.627 115.899 22.162 114.312C22.0538 113.943 21.9542 113.603 21.8594 113.304C19.2635 104.931 20.1765 95.5346 23.7572 87.0775C26.8009 79.8704 30.5427 75.8713 36.0211 73.934C36.9161 73.6217 37.704 73.2884 37.7936 73.2051C38.1336 72.8302 35.9493 73.0176 34.7498 73.4549C30.8469 74.8504 26.7651 78.6624 23.9901 83.5366C20.0872 90.3687 18.3325 100.45 19.5678 109.053C19.8543 111.094 21.018 115.51 21.3402 115.823C21.3688 115.856 21.516 116.215 21.7387 116.759C22.3547 118.262 23.5472 121.173 24.4017 122.488C25.44 124.134 28.5733 127.716 29.8801 128.821L30.7038 129.508L30.8292 131.195C31.0619 134.424 31.1514 134.715 32.4044 135.799C35.5377 138.569 41.7142 141.152 47.3 142.068C49.8961 142.485 55.5357 142.339 57.6839 141.798ZM118.197 122.238C107.795 121.176 95.2271 115.406 86.1322 106.491C82.3011 102.72 77.3238 95.3888 75.3545 91.327C74.9426 90.4936 74.6384 90.098 74.2804 89.9938C73.9043 89.8689 74.2266 89.7437 75.7663 89.4523C82.2651 88.1607 88.5849 85.0154 93.6876 80.5371L94.4394 79.8914L94.6544 80.4954C95.1378 81.8493 96.9995 83.2242 98.3781 83.2242C98.9331 83.2242 100.795 82.2453 101.923 81.3495L102.693 80.7455L103.319 81.4744C103.892 82.141 104 82.1827 105.074 82.1827C106.309 82.1827 107.795 81.537 108.619 80.6203L109.066 80.1411L110.338 81.1204C111.018 81.6828 112.916 82.9116 114.545 83.8905C116.98 85.3487 119.558 87.0359 122.011 88.7857L122.404 89.0774L122.028 89.6605C121.634 90.2855 120.901 91.4726 120.901 93.285C120.901 95.3262 122.725 98.9939 126.218 101.513C128.962 103.492 133.684 107.384 133.504 113.073C133.483 113.76 132.824 115.469 131.947 117.01C131.374 117.989 129.781 119.447 128.33 120.301C125.86 121.738 121.509 122.571 118.197 122.238ZM22.7369 28.7333C23.2203 28.8584 23.5425 29.0459 23.4707 29.1292C23.238 29.3999 22.0028 29.275 21.7163 28.9417C21.2687 28.4419 21.376 28.0876 22.0028 27.9418C22.325 27.8795 22.8084 27.5668 23.0769 27.2545C23.3456 26.9421 23.5783 26.7963 23.5783 26.9005C23.5783 27.1712 22.6831 28.1292 22.2354 28.3377C21.949 28.4835 22.0385 28.5458 22.7369 28.7333ZM29.8624 29.0666C30.3816 28.7333 30.274 28.5042 29.6652 28.6084C29.0567 28.7126 29.021 28.6294 29.4148 27.9211C29.5759 27.6504 29.6652 27.2545 29.6294 27.046C29.5759 26.7753 29.4506 26.9005 29.1641 27.5668C28.9491 28.046 28.6449 28.4419 28.5015 28.4419C28.0542 28.4419 28.0181 28.8585 28.448 29.0459C29.0029 29.3166 29.4325 29.3166 29.8624 29.0666ZM23.6679 17.6935C23.238 17.7768 21.8954 18.4018 20.7137 19.0891C19.5143 19.7557 18.4937 20.3181 18.4221 20.2975C16.5959 20.0684 19.1382 16.5271 23.7572 12.9029C28.1793 9.42424 31.1692 7.59117 33.9442 6.65382C35.6808 6.07044 37.6324 5.98719 38.1874 6.46635C38.4916 6.73707 38.3843 6.75804 37.0595 6.77869C34.1949 6.77869 30.8827 8.48689 25.4938 12.6735C22.7011 14.8399 19.4604 17.9436 19.4604 18.4434C19.4604 18.5476 19.9796 18.3392 20.6241 18.0062C22.0028 17.277 23.4172 16.902 24.0437 17.0689C24.7062 17.277 24.5628 17.5477 23.6679 17.6935ZM30.5962 19.485C32.2794 19.0891 32.3509 19.0684 32.3509 18.86C32.3509 18.7561 31.7064 18.6519 30.9007 18.6102L29.4505 18.5476L30.7931 16.7772C31.5272 15.7982 32.3867 14.8192 32.6909 14.5901C33.3535 14.09 33.3892 13.736 32.852 13.5276L32.4405 13.3817L32.8878 13.1943C33.1385 13.0904 33.6042 13.0484 33.9264 13.111C34.4098 13.1943 34.5172 13.1527 34.4634 12.861C34.4098 12.5696 34.2129 12.507 33.3354 12.528C30.7754 12.5696 29.6832 13.3611 31.6883 13.736C32.2433 13.8403 32.7089 14.0067 32.7089 14.111C32.7089 14.1942 32.6194 14.2775 32.512 14.2775C32.1717 14.2775 29.2894 17.6729 28.9314 18.506C28.3764 19.735 28.6807 19.9225 30.5962 19.485ZM42.4126 11.4032C41.8934 11.4448 41.768 11.5487 41.8038 11.8404L41.8094 11.883C41.8293 12.0369 41.841 12.1256 41.8113 12.1524C41.7711 12.1885 41.656 12.1127 41.3853 11.9339L41.3382 11.903C40.9982 11.6945 40.9624 11.5906 41.1593 11.4238C41.2846 11.2989 41.6247 11.1115 41.8934 11.0489L42.3945 10.903L42.0187 10.4448C41.8216 10.1741 41.7142 9.92405 41.768 9.8408C41.9111 9.6743 43.6658 9.9034 43.9163 10.1325C44.0239 10.2364 44.185 10.2157 44.2923 10.0909C44.543 9.79917 44.883 10.0283 44.883 10.4865C44.883 10.7365 44.8295 10.7572 44.6684 10.5697C44.525 10.4032 44.3996 10.4032 44.2385 10.5491C44.0954 10.6949 43.9881 10.6949 43.8985 10.5281C43.8447 10.4239 43.5047 10.32 43.1467 10.32C42.8161 10.32 42.6599 10.32 42.628 10.3932C42.5995 10.4587 42.671 10.5833 42.8064 10.8198C43.092 11.3389 43.0751 11.3406 42.4187 11.4025L42.4126 11.4032ZM39.6911 5.86232C39.6911 5.5916 39.4764 5.11245 39.2077 4.8001L38.7065 4.21672L41.392 4.34159C42.8779 4.42516 44.5608 4.61263 45.1518 4.8001C45.7425 4.9666 46.4228 5.09147 46.6735 5.09147C47.0496 5.09147 46.9777 5.00822 46.2797 4.57068C45.0622 3.84178 43.5047 3.48782 40.5148 3.23775C36.9341 2.94606 35.1259 3.34197 35.4659 4.38322C35.5197 4.59166 35.8062 4.69588 36.2358 4.69588C37.113 4.69588 38.5454 5.29991 39.0288 5.86232C39.548 6.46635 39.6911 6.46635 39.6911 5.86232ZM30.9543 61.0196C32.4044 63.186 34.3202 65.6437 35.2155 66.4769C35.7524 66.977 36.218 67.3936 36.2538 67.3936C36.2716 67.3936 35.8778 66.4352 35.3766 65.2688C33.3535 60.5821 32.1717 55.9163 31.6168 50.5423C31.4914 49.3549 31.2945 48.3549 31.0796 47.9384C30.65 47.1053 30.65 46.0221 31.0976 45.0015C31.3303 44.46 31.4557 43.7724 31.4557 43.0225V41.8771L30.5962 42.9183C29.7548 43.9392 28.9491 44.3558 28.9491 43.7308C28.9491 43.2726 30.2739 41.0646 30.9723 40.3773C31.5272 39.8356 31.5988 39.6481 31.7779 38.0235C31.9033 37.0445 32.1898 35.3157 32.4225 34.1699C32.6732 33.0244 32.8163 32.0454 32.7805 32.0038C32.6551 31.858 28.448 37.4798 27.875 39.2732C27.7491 39.6671 27.4097 40.3564 27.1409 40.7729L26.6756 41.4683C26.6756 41.4683 26.82 42.4421 26.9798 43.6656C27.1412 44.9021 27.2169 45.752 27.2846 46.509C27.3747 47.5215 27.4501 48.3678 27.6959 49.7508C27.9823 51.4587 28.2688 52.9374 28.3404 53.0417C28.3942 53.1669 28.6269 54.1249 28.8598 55.1871C29.361 57.5409 30.2024 59.8738 30.9543 61.0196ZM103.606 80.7245L103.23 80.287C103.23 80.287 109.47 71.0629 110.588 67.6643C111.441 65.0707 111.944 64.335 112.621 64.335C113 64.335 113.309 64.4357 113.453 64.6857C113.703 65.123 113.945 65.6647 113.623 67.5184C113.086 70.5179 112.262 72.4968 109.791 76.767C109.219 77.746 108.484 78.8292 108.162 79.2041C107.41 80.0163 105.719 80.8494 104.734 81.0369C104.107 81.1411 103.928 81.0995 103.606 80.7245Z" fill="#00160A"/>
<path d="M153.18 101.102C155.408 94.0415 155.07 92.5372 154.684 92.3901C154.684 92.3901 153.833 92.9525 153.457 94.1396C152.759 96.3686 150.369 102.201 149.474 103.242C148.418 104.471 148.418 104.471 147.344 104.471C146.269 104.471 143.171 102.589 142.749 100.734C142.075 97.7654 144.98 87.4533 145.052 86.8703L144.569 86.4743C144.246 86.8286 140.055 101.618 134.543 97.7641C133.912 97.3227 132.573 95.2438 132.466 94.1396C131.869 90.932 134.607 79.7151 135.072 77.4113C135.489 75.3488 137.658 73.4351 140.326 73.4351C144.425 73.4351 143.875 77.6046 145.711 79.0737C146.525 79.7248 147.862 78.5445 148.275 78.4548C150.584 77.955 151.469 78.5371 153.162 80.1004C154.469 81.3072 155.436 83.6955 156.501 84.5371C157.092 85.0046 157.719 84.3657 157.925 84.2457C158.767 83.7536 160.574 84.1205 161.075 84.5371C161.81 84.9101 163.611 86.9241 163.896 88.0954C165.185 93.4046 161.114 105.175 159.576 107.383C157.032 111.038 150.953 108.163 153.18 101.102Z" fill="white"/>
<path fill-rule="evenodd" clip-rule="evenodd" d="M50.2541 81.7549C55.1596 85.3588 60.2179 87.7123 65.9828 88.3579C70.5302 88.8581 76.6615 88.1705 81.0656 86.5042C84.7716 85.1087 89.7847 81.2425 93.1326 77.9723C99.6314 71.6399 103.731 61.7489 105.522 51.251C105.772 49.7719 106.155 46.0544 106.136 42.3676C106.136 38.0765 104.514 26.3508 99.5956 19.5896C89.4524 5.6446 72.7794 -0.637071 58.7669 4.73049C53.7119 6.66649 48.33 10.1745 44.2659 14.757C39.1455 20.5686 35.368 28.4839 33.8643 36.5658C32.2887 45.1061 34.3382 55.3127 37.9009 63.6862C40.7474 70.3519 45.4382 78.1933 50.2541 81.7549ZM98.0558 56.5833C94.6901 68.352 85.9175 77.1424 74.8891 79.8086C73.2062 80.2042 72.0425 80.35 69.6791 80.3916C68.0143 80.4542 66.3492 80.4333 66.0091 80.3916C58.2926 79.3084 52.4204 75.9966 47.0138 69.7059C44.6503 66.9358 43.6478 65.436 42.1798 62.4781C39.8702 57.7914 38.635 53.0005 38.2589 47.2305C36.9699 27.4633 49.1262 10.9867 66.2418 9.2788C72.9555 8.61217 80.4033 11.0076 86.0606 15.6734C88.1553 17.4023 91.9509 21.7766 93.1326 23.8178C93.616 24.6303 98.3065 32.6082 99.1302 37.1908C100.186 43.1481 99.7747 50.605 98.0558 56.5833Z" fill="white"/>
<path fill-rule="evenodd" clip-rule="evenodd" d="M106.143 42.3667C106.143 56.3478 100.459 71.6332 93.1225 78.1611C89.6226 81.2755 85.0485 85.0465 81.0655 86.5036C75.2282 88.6387 65.9824 88.3573 65.9824 88.3573C65.9824 88.3573 75.4151 86.8902 78.9106 85.2536C88.9342 80.5601 94.406 73.3556 97.7851 66.4431C104.455 52.7979 106.143 42.0272 106.143 42.3667Z" fill="#E7EAEE"/>
<path fill-rule="evenodd" clip-rule="evenodd" d="M66.1881 77.8916C61.408 77.1833 56.6636 75.2044 52.8323 72.2675C50.5587 70.5387 47.1211 66.4769 45.456 63.5817C43.0751 59.4157 41.4996 54.9581 40.7297 50.1671C40.1748 46.6884 40.1925 41.3354 40.7475 38.2317C41.3204 35.0657 42.0545 32.6492 43.3613 29.5874C44.8833 26.0462 46.4946 23.4426 48.9113 20.6305C53.0292 15.8396 57.8093 12.7984 63.5027 11.3403C65.3466 10.8821 72.0246 10.5072 72.2572 10.8615C72.311 10.9654 72.6691 11.2364 73.0451 11.4655C73.4209 11.7153 74.4238 12.5903 75.2472 13.4441C76.4824 14.6941 77.0376 15.4856 78.1117 17.4436C78.8458 18.7768 79.4366 19.9849 79.4366 20.0891C79.4366 20.3182 80.0095 20.7348 80.3318 20.7348C80.7794 20.7348 81.0836 19.1724 81.1732 16.423C81.2267 14.9022 81.3344 13.6525 81.4059 13.6525C81.6566 13.6525 84.4136 15.423 85.7026 16.423C88.2272 18.3809 90.7515 21.1303 92.6135 24.005C93.4549 25.2963 93.5803 25.6296 93.5803 26.4211C93.5803 27.1503 93.7592 27.7127 94.3141 28.8376C95.7108 31.6702 96.8026 35.2322 97.4652 39.169C97.8948 41.8146 97.8948 46.8136 97.4471 49.5841C96.2299 57.2077 92.6135 64.7897 87.9049 69.6013C83.9124 73.663 79.6693 76.1628 74.6564 77.3918C72.9375 77.829 67.7816 78.1207 66.1881 77.8916ZM53.3872 63.6439C53.5483 63.4358 53.6559 63.1231 53.6021 62.9776C53.586 62.9337 53.3617 62.8111 53.0336 62.6317C52.2687 62.2132 50.9389 61.4859 50.3626 60.728C48.071 57.6869 47.2296 55.4162 46.7104 50.7295C46.209 46.168 46.6303 43.0839 47.5338 38.1275C47.9748 35.7097 49.1465 33.7124 49.8753 32.4701C50.3712 31.6251 50.6621 31.1291 50.3795 31.0872C49.6812 30.962 49.5739 31.0246 48.8398 31.8371C47.2642 33.5866 46.5482 34.9821 45.7963 37.6693C44.6326 41.8768 44.4077 53.2479 46.7104 58.3741C49.0131 63.5003 52.9754 64.1857 53.3872 63.6439ZM78.8458 46.147C78.5416 49.3827 77.2523 54.0624 75.7486 56.1035C75.0503 57.0619 72.4871 58.7075 70.3237 58.3741C68.234 58.0521 66.5999 56.916 65.2035 54.4789C64.0038 52.3751 63.3845 49.8215 62.9655 46.6052C62.2422 41.0515 65.4005 34.5865 66.761 32.9825C68.1397 31.3369 69.1242 30.7539 70.3775 30.7329C71.595 30.7329 72.3826 31.0456 73.6181 32.0662C75.8739 33.8992 79.4366 39.8592 78.8458 46.147ZM54.712 28.9208C55.0701 28.4416 55.1239 28.2126 55.0165 27.3168C54.945 26.4837 54.8016 26.1504 54.4255 25.7964C53.7633 25.1714 52.9396 25.1714 52.3311 25.838C51.9012 26.3172 51.8477 26.4837 51.9012 27.6292C51.955 28.8582 51.9908 28.9415 52.5815 29.3164C53.3694 29.8165 54.1393 29.6707 54.712 28.9208ZM65.8838 16.0687C62.6612 18.7558 61.2648 19.8597 59.8147 20.9013C58.6687 21.7344 58.3107 21.7553 58.3107 21.0055C58.3107 20.6096 58.5614 20.1723 59.2059 19.4847L60.1009 18.5267L58.3645 18.256C56.4129 17.9643 54.5151 17.3393 54.1033 16.8602C53.423 16.048 54.014 15.8605 55.9475 16.2771C56.8067 16.4436 58.4718 16.6521 59.6535 16.6937L61.8018 16.7979L63.3593 15.4856C66.7788 12.611 70.3237 10.9863 72.0245 11.4862C73.0809 11.7779 72.9556 12.1112 71.7561 12.2777C70.3775 12.4651 69.536 13.0069 65.8838 16.0687Z" fill="white"/>
<path d="M70.4849 55.5206C70.4849 55.4164 70.5922 55.3125 70.7356 55.3125C70.8787 55.3125 71.0578 55.4164 71.1114 55.5206C71.1652 55.6455 71.0578 55.7291 70.8609 55.7291C70.646 55.7291 70.4849 55.6455 70.4849 55.5206Z" fill="white"/>
<path d="M71.5591 55.3327C71.5591 55.1036 72.0064 54.8955 72.5078 54.8955C72.9016 54.9162 72.9017 54.9162 72.5616 55.2079C72.1675 55.5618 71.5591 55.6244 71.5591 55.3327Z" fill="white"/>
<path d="M68.7841 54.7914C68.7303 54.6249 68.6588 54.3332 68.605 54.1663C68.5512 53.9582 68.6408 53.854 68.8734 53.854C69.0703 53.854 69.2315 53.9789 69.2315 54.1457C69.2315 54.3122 69.2853 54.5829 69.3391 54.7704C69.4106 54.9998 69.3568 55.1037 69.1599 55.1037C68.9988 55.1037 68.8199 54.9578 68.7841 54.7914Z" fill="white"/>
<path d="M69.7328 54.2701C69.6433 53.6455 69.8402 53.437 70.4847 53.437C70.6816 53.437 70.8427 53.6455 70.9146 53.9994C71.0577 54.6035 70.825 54.8951 70.1982 54.8951C69.9117 54.8951 69.7866 54.7493 69.7328 54.2701Z" fill="white"/>
<path d="M67.9065 54.3747C67.5665 54.062 67.5665 54.062 67.9422 54.062C68.1752 54.062 68.3363 54.1872 68.3363 54.3747C68.3363 54.7496 68.3363 54.7496 67.9065 54.3747Z" fill="white"/>
<path d="M71.5052 54.3535C71.2725 54.0828 71.3799 53.2706 71.6664 53.1454C72.1855 52.9163 72.4182 53.0206 72.5258 53.562C72.5974 53.8747 72.6331 54.1454 72.5974 54.166C72.454 54.3535 71.6126 54.4787 71.5052 54.3535Z" fill="white"/>
<path d="M73.0985 53.9172C73.045 53.8549 72.9912 53.5842 72.9912 53.3341C72.9912 52.9798 73.1346 52.8343 73.5642 52.7301C73.9402 52.6469 74.1729 52.6885 74.2803 52.855C74.4594 53.1883 74.4594 53.6048 74.2983 53.7091C73.976 53.9172 73.2239 54.0424 73.0985 53.9172Z" fill="white"/>
<path d="M67.0835 53.2709C67.0835 53.0209 67.2446 52.8128 67.4773 52.7502C67.943 52.6043 67.9249 52.5833 68.0145 53.1251C68.0503 53.4374 67.9607 53.5626 67.5846 53.6043C67.1908 53.6665 67.0835 53.5833 67.0835 53.2709Z" fill="white"/>
<path d="M68.4438 53.2912C68.1931 52.9789 68.3543 52.3955 68.6943 52.3955C68.9272 52.3955 69.0526 52.5413 69.0526 52.7914C69.0526 53.1873 68.6408 53.5203 68.4438 53.2912Z" fill="white"/>
<path d="M69.5179 52.6676C69.3748 52.2717 69.6791 51.98 70.2698 51.98C70.5385 51.98 70.6639 52.1052 70.6639 52.3759C70.6639 52.605 70.5027 52.8134 70.2698 52.8967C69.6791 53.0632 69.6433 53.0632 69.5179 52.6676Z" fill="white"/>
<path d="M74.6925 52.6039C74.746 52.4997 74.8356 52.3955 74.8894 52.3955C74.9432 52.3955 74.9251 52.4997 74.8713 52.6039C74.8178 52.7288 74.7282 52.8124 74.6744 52.8124C74.6209 52.8124 74.6386 52.7288 74.6925 52.6039Z" fill="white"/>
<path d="M71.1295 52.25C70.9864 51.8334 71.1652 51.625 71.7382 51.5208C72.0605 51.4791 72.2039 51.5627 72.2396 51.8541C72.365 52.5417 71.3444 52.9166 71.1295 52.25Z" fill="white"/>
<path d="M66.8325 51.8964C66.6714 51.2091 66.7072 51.1465 67.1728 51.1465C67.4232 51.1465 67.6201 51.2301 67.6201 51.334C67.6201 51.4382 67.6739 51.6673 67.7277 51.8341C67.7813 52.0422 67.6739 52.1674 67.3697 52.2297C67.0294 52.3129 66.9041 52.2297 66.8325 51.8964Z" fill="white"/>
<path d="M72.812 51.6666C72.812 51.2917 72.9374 51.1249 73.2777 51.0206C73.7788 50.8748 74.0653 51.1665 74.0653 51.8331C74.0653 52.1038 73.9222 52.1871 73.4388 52.1871C72.8836 52.1871 72.812 52.1248 72.812 51.6666Z" fill="white"/>
<path d="M66.2956 51.6673C66.2421 51.5008 66.2779 51.355 66.3672 51.355C66.4748 51.355 66.5463 51.5008 66.5463 51.6673C66.5463 51.8341 66.5106 51.98 66.4748 51.98C66.439 51.98 66.3672 51.8341 66.2956 51.6673Z" fill="white"/>
<path d="M68.1036 51.8338C67.8532 51.5631 67.9963 50.9797 68.3185 50.8755C68.5154 50.8132 68.7123 50.8339 68.7661 50.8965C68.9811 51.1256 68.8557 51.7296 68.587 51.8545C68.247 52.0003 68.247 52.0003 68.1036 51.8338Z" fill="white"/>
<path d="M74.4954 51.6885C74.2982 51.0841 74.5132 50.6259 75.0146 50.5637C75.3904 50.5011 75.498 50.5843 75.498 50.9176C75.498 51.6049 75.3011 51.9798 74.9428 51.9798C74.7459 51.9798 74.549 51.855 74.4954 51.6885Z" fill="white"/>
<path d="M69.3566 51.417C69.142 51.1879 69.2135 50.7713 69.5178 50.6465C69.8581 50.5006 70.5741 50.9172 70.3772 51.1463C70.1265 51.3964 69.482 51.5838 69.3566 51.417Z" fill="white"/>
<path d="M70.9145 50.896C70.7533 50.6043 71.3263 50.1045 71.792 50.1045C72.0066 50.1045 72.0962 50.2294 72.0604 50.4585C71.9889 50.875 71.0756 51.2083 70.9145 50.896Z" fill="white"/>
<path d="M66.0088 50.7506C66.0088 50.6464 65.9552 50.4173 65.9014 50.2298C65.8476 50.0423 65.8657 49.8965 65.973 49.8965C66.2057 49.8965 66.3848 50.688 66.1699 50.8548C66.0806 50.9174 66.0088 50.8755 66.0088 50.7506Z" fill="white"/>
<path d="M66.4923 50.272C66.3849 49.8138 66.5999 49.4805 67.0117 49.4805C67.2444 49.4805 67.4771 50.2929 67.334 50.5637C67.1368 50.9179 66.5818 50.7095 66.4923 50.272Z" fill="white"/>
<path d="M67.7453 50.375C67.4769 50.0626 67.638 49.3128 67.996 49.2086C68.2645 49.1253 68.4079 49.2292 68.551 49.6041C68.6583 49.8752 68.7121 50.1459 68.6763 50.1875C68.4972 50.375 67.8527 50.5208 67.7453 50.375Z" fill="white"/>
<path d="M72.5794 50.3758C72.3467 50.1051 72.4541 49.9383 72.9913 49.7092C73.4389 49.5427 73.5642 49.5633 73.6538 49.8134C73.8149 50.3132 72.9197 50.7924 72.5794 50.3758Z" fill="white"/>
<path d="M74.1548 49.8962C73.9756 49.5632 74.2264 49.2715 74.6917 49.2715C75.2469 49.2715 75.4081 49.8129 74.9066 49.9797C74.3695 50.1462 74.2802 50.1256 74.1548 49.8962Z" fill="white"/>
<path d="M75.6768 49.3966C75.6768 49.0842 75.999 48.7509 76.1424 48.9174C76.2678 49.0633 76.017 49.6883 75.8379 49.6883C75.7483 49.6883 75.6768 49.5631 75.6768 49.3966Z" fill="white"/>
<path d="M65.7764 49.1259C65.7048 49.0633 65.651 48.7926 65.669 48.5635C65.669 48.1676 65.6868 48.1676 65.8479 48.6261C66.0271 49.1259 65.9913 49.3759 65.7764 49.1259Z" fill="white"/>
<path d="M66.1164 48.814C65.9552 48.0847 65.973 48.0225 66.4386 48.0225C66.9578 48.0225 67.28 48.793 66.8862 49.0847C66.4744 49.3764 66.2417 49.2931 66.1164 48.814Z" fill="white"/>
<path d="M72.2754 49.2302C72.2754 49.1679 72.3647 48.8346 72.4723 48.4597C72.7227 47.6262 73.2779 47.5846 73.4033 48.3971C73.4568 48.7094 73.4749 48.9805 73.4568 49.0011C73.3672 49.126 72.2754 49.3135 72.2754 49.2302Z" fill="white"/>
<path d="M67.3876 48.7098C67.316 48.6472 67.2622 48.3971 67.2622 48.168C67.2622 47.8347 67.316 47.814 67.5309 48.0222C67.674 48.168 67.7994 48.4181 67.7994 48.5639C67.7994 48.8763 67.5845 48.9595 67.3876 48.7098Z" fill="white"/>
<path d="M73.8326 48.2928C73.7253 47.6471 73.958 47.3554 74.5129 47.4387C74.7814 47.4803 74.8709 47.6678 74.8709 48.1263C74.8709 48.6471 74.7994 48.772 74.4056 48.8136C74.0118 48.8762 73.9222 48.772 73.8326 48.2928Z" fill="white"/>
<path d="M75.587 48.376C75.3543 47.5425 75.4258 47.2928 75.9092 47.2302C76.3388 47.1676 76.3926 47.2302 76.3926 47.7719C76.3926 48.2301 76.2853 48.4176 76.0166 48.5008C75.8197 48.5634 75.6227 48.5008 75.587 48.376Z" fill="white"/>
<path d="M65.5078 47.1885C65.5078 46.7926 65.5436 46.6261 65.5974 46.8343C65.6332 47.0217 65.6332 47.355 65.5974 47.5635C65.5436 47.7509 65.5078 47.5841 65.5078 47.1885Z" fill="white"/>
<path d="M65.9554 47.4597C65.7227 47.2096 65.8301 46.3975 66.1166 46.2723C66.5284 46.0848 66.7253 46.3139 66.7253 47.0015C66.7253 47.4387 66.6357 47.6055 66.403 47.6055C66.2239 47.6055 66.0089 47.5429 65.9554 47.4597Z" fill="white"/>
<path d="M67.0294 46.8968C66.9578 46.5844 66.922 46.2511 66.9936 46.1885C67.1725 45.9804 67.2801 46.3137 67.2263 46.9178L67.1725 47.5008L67.0294 46.8968Z" fill="white"/>
<path d="M72.812 46.7521C72.812 46.5227 72.9016 46.3978 72.9912 46.4604C73.0985 46.5227 73.17 46.7311 73.17 46.8976C73.17 47.0645 73.0985 47.1893 72.9912 47.1893C72.9016 47.1893 72.812 47.0019 72.812 46.7521Z" fill="white"/>
<path d="M73.6177 47.0226C73.3673 46.7099 73.5642 46.1475 73.9758 46.0227C74.4952 45.8768 74.513 45.8768 74.6741 46.4808C74.7814 46.8558 74.7099 46.9394 74.2445 47.0226C73.958 47.0849 73.6715 47.0642 73.6177 47.0226Z" fill="white"/>
<path d="M75.265 46.6264C75.0681 46.4179 75.1219 45.7306 75.3188 45.7306C75.4261 45.7306 75.4977 45.6474 75.4977 45.5222C75.4977 45.4183 75.3904 45.3141 75.2473 45.3141C74.9428 45.3141 74.6923 44.2935 74.9427 44.0018C75.265 43.6269 75.623 44.0224 75.838 45.0434C75.9633 45.5848 76.0887 46.2098 76.1422 46.4179C76.214 46.6886 76.1422 46.7722 75.8022 46.7722C75.5695 46.7722 75.3188 46.7096 75.265 46.6264Z" fill="white"/>
<path d="M76.2315 45.5229C76.1064 44.8979 75.7841 43.6482 75.5512 42.7315C75.1931 41.3986 75.1573 41.0652 75.3543 40.9194C75.4796 40.8152 75.6407 40.7319 75.6945 40.7319C75.8914 40.7319 76.6075 45.0021 76.536 45.8352L76.4822 46.6684L76.2315 45.5229Z" fill="white"/>
<path d="M65.3286 45.4182C65.3286 45.0849 65.3644 44.96 65.4182 45.1681C65.454 45.3556 65.454 45.6473 65.4182 45.7932C65.3644 45.918 65.3286 45.7722 65.3286 45.4182Z" fill="white"/>
<path d="M65.6867 45.3758C65.7585 44.6469 66.2777 44.4801 66.4208 45.1468C66.5462 45.6882 66.5819 45.6259 66.0447 45.834C65.669 45.9592 65.6332 45.9176 65.6867 45.3758Z" fill="white"/>
<path d="M73.2422 45.1881C73.0988 44.584 73.4034 44.2301 73.9761 44.3133C74.4059 44.3759 74.5671 45.2713 74.209 45.5424C73.7614 45.8757 73.3496 45.7298 73.2422 45.1881Z" fill="white"/>
<path d="M66.7251 45.0222C66.7251 44.6679 66.8147 44.4805 67.0116 44.4805C67.1907 44.4805 67.2623 44.6263 67.2265 44.9386C67.1369 45.6053 66.7251 45.6679 66.7251 45.0222Z" fill="white"/>
<path d="M65.1319 44.1472C65.1319 43.9181 65.1857 43.8558 65.2395 44.0223C65.293 44.1682 65.2753 44.3556 65.2215 44.4182C65.1677 44.5015 65.1141 44.3763 65.1319 44.1472Z" fill="white"/>
<path d="M65.4722 44.085C65.4722 43.7723 65.5795 43.6475 65.8482 43.6475C66.0987 43.6475 66.1882 43.7517 66.1525 44.0017C66.0629 44.5432 65.4722 44.6058 65.4722 44.085Z" fill="white"/>
<path d="M66.4564 43.8974C66.3313 43.5225 66.3313 43.5225 66.8682 43.3557C67.1905 43.2308 67.262 43.2934 67.262 43.6057C67.262 44.1055 66.6175 44.3556 66.4564 43.8974Z" fill="white"/>
<path d="M72.9375 43.6055C72.8122 43.0847 73.0448 42.814 73.6716 42.814C73.9758 42.814 74.0654 42.9388 74.0654 43.3347C74.0654 43.6471 73.9581 43.8555 73.8147 43.8555C73.6716 43.8555 73.4389 43.9181 73.2955 43.9804C73.1344 44.043 73.0091 43.9181 72.9375 43.6055Z" fill="white"/>
<path d="M74.4951 43.1269C74.3517 42.7103 74.5667 42.3979 74.9785 42.3979C75.2292 42.3979 75.3185 42.5438 75.3185 42.9187C75.3185 43.2937 75.2292 43.4395 74.9605 43.4395C74.7636 43.4395 74.5486 43.2937 74.4951 43.1269Z" fill="white"/>
<path d="M65.293 42.8351C65.293 42.3976 65.7048 41.8978 65.884 42.1269C65.9555 42.1895 66.0093 42.4809 66.0093 42.7519C66.0093 43.0849 65.9017 43.2307 65.651 43.2307C65.4183 43.2307 65.293 43.0849 65.293 42.8351Z" fill="white"/>
<path d="M66.2774 42.5849C66.134 42.0644 66.2952 41.835 66.9039 41.7311C67.4591 41.6475 67.638 42.3351 67.1546 42.7517C66.6893 43.1473 66.4028 43.085 66.2774 42.5849Z" fill="white"/>
<path d="M72.7587 42.4606C72.6333 42.3358 72.5795 41.5649 72.6871 41.5649C72.7048 41.5649 72.9736 41.4817 73.2958 41.3774C73.8328 41.19 73.8685 41.211 73.8508 41.7734C73.8328 42.1899 73.7254 42.3984 73.457 42.4816C72.9736 42.6275 72.9018 42.6275 72.7587 42.4606Z" fill="white"/>
<path d="M72.0962 41.9807C72.0962 41.8352 72.15 41.7726 72.2215 41.8352C72.2753 41.9185 72.2753 42.0433 72.2215 42.1266C72.15 42.1892 72.0962 42.1266 72.0962 41.9807Z" fill="white"/>
<path d="M74.101 41.6475C74.1548 41.2935 74.7097 40.7727 74.8351 40.9392C74.8889 41.0018 74.9782 41.2519 75.032 41.5226C75.1574 41.9391 75.1036 41.9808 74.6024 41.9808C74.1725 41.9808 74.0475 41.8975 74.101 41.6475Z" fill="white"/>
<path d="M65.4722 41.6269C65.4722 41.5227 65.5617 41.3146 65.651 41.1477C65.7944 40.898 65.8302 40.9186 65.8302 41.3146C65.8302 41.5646 65.7587 41.7728 65.651 41.7728C65.5617 41.7728 65.4722 41.7101 65.4722 41.6269Z" fill="white"/>
<path d="M66.0088 41.1687C66.0088 40.5853 66.3848 40.3978 66.6713 40.8354C66.8502 41.1477 66.8502 41.2519 66.6713 41.3978C66.2953 41.6685 66.0088 41.5852 66.0088 41.1687Z" fill="white"/>
<path d="M71.4515 40.8985C71.1292 40.4819 71.1292 40.4613 71.4337 40.5861C71.6126 40.6694 71.8453 40.732 71.9349 40.732C72.0244 40.732 72.096 40.8778 72.096 41.0443C72.096 41.4819 71.8453 41.4402 71.4515 40.8985Z" fill="white"/>
<path d="M67.6023 40.8771C66.8324 40.1898 66.7251 38.6484 67.4412 38.6484C67.9245 38.6484 68.3722 39.5232 68.3003 40.3357C68.2468 41.0855 68.0319 41.252 67.6023 40.8771Z" fill="white"/>
<path d="M72.5081 41.002C72.5796 40.9394 72.6872 40.9394 72.7588 41.002C72.8123 41.0853 72.7588 41.1479 72.6334 41.1479C72.5081 41.1479 72.4543 41.0853 72.5081 41.002Z" fill="white"/>
<path d="M75.2114 40.1898C75.2652 40.0023 75.3188 39.8148 75.3188 39.7732C75.3188 39.7316 75.4083 39.6899 75.4979 39.6899C75.6053 39.6899 75.6768 39.8774 75.6768 40.1065C75.6768 40.3563 75.5515 40.5231 75.3903 40.5231C75.1934 40.5231 75.1399 40.4188 75.2114 40.1898Z" fill="white"/>
<path d="M65.8301 40.1268C65.8301 39.6479 66.2061 38.8564 66.4208 38.8564C66.7969 38.8564 66.5284 40.1894 66.1343 40.2726C65.9732 40.3143 65.8301 40.252 65.8301 40.1268Z" fill="white"/>
<path d="M69.8585 39.8978L69.3213 39.7519L69.8047 39.6061C70.3061 39.4396 70.6641 39.5645 70.6641 39.9187C70.6641 40.1269 70.6461 40.1269 69.8585 39.8978Z" fill="white"/>
<path d="M69.2314 38.8981C69.2314 38.044 69.6433 37.9192 70.0194 38.669C70.2701 39.1689 70.2878 39.2731 70.0551 39.2731C69.912 39.2731 69.6791 39.3357 69.5179 39.398C69.3033 39.5022 69.2314 39.3773 69.2314 38.8981Z" fill="white"/>
<path d="M72.3468 39.1894C71.5411 38.7728 71.022 37.669 71.022 36.3567C71.022 35.4193 71.0935 35.1902 71.5769 34.6695C71.8814 34.3362 72.1857 34.0654 72.2752 34.0654C72.6691 34.0654 74.1192 35.6694 74.6026 36.669L75.1576 37.8148L74.5669 38.5437C73.8866 39.3768 73.1347 39.6063 72.3468 39.1894Z" fill="white"/>
<path d="M68.6049 38.6489C68.5511 38.5447 68.5869 38.4404 68.6764 38.4404C68.7838 38.4404 68.8733 38.5447 68.8733 38.6489C68.8733 38.7737 68.8376 38.8573 68.8018 38.8573C68.748 38.8573 68.6587 38.7737 68.6049 38.6489Z" fill="white"/>
<path d="M66.2598 38.3152C66.3136 38.1278 66.3671 37.9403 66.3671 37.8987C66.3671 37.8571 66.5283 37.8154 66.7252 37.8154C67.1728 37.8154 67.1908 38.1487 66.7432 38.4404C66.2598 38.7318 66.1345 38.7112 66.2598 38.3152Z" fill="white"/>
<path d="M67.6742 38.065C67.2623 38.0027 67.137 37.732 67.4057 37.5445C67.4773 37.4819 67.7995 37.3777 68.1218 37.2945C68.6052 37.1696 68.6945 37.2112 68.6945 37.5652C68.6945 38.0027 68.3187 38.1902 67.6742 38.065Z" fill="white"/>
<path d="M69.0527 37.3571C69.0527 37.1074 69.0708 36.9615 69.1065 37.0031C69.1243 37.0448 69.2677 37.2529 69.393 37.4613C69.6077 37.753 69.5899 37.8153 69.3392 37.8153C69.1601 37.8153 69.0527 37.6488 69.0527 37.3571Z" fill="white"/>
<path d="M66.5459 37.2114C66.5459 37.0865 66.6355 36.9407 66.7248 36.8781C66.8324 36.8158 66.9039 36.899 66.9039 37.0655C66.9039 37.253 66.8324 37.3988 66.7248 37.3988C66.6355 37.3988 66.5459 37.3156 66.5459 37.2114Z" fill="white"/>
<path d="M67.2085 36.8981C67.0651 36.4815 68.3362 36.0233 68.5511 36.4189C68.7122 36.7522 68.5511 36.8981 67.8708 37.0649C67.4589 37.1688 67.2801 37.1272 67.2085 36.8981Z" fill="white"/>
<path d="M68.8917 36.2318C68.8917 36.0027 68.9455 35.9401 68.9991 36.1069C69.0529 36.2528 69.0348 36.4403 68.9813 36.5025C68.9275 36.5861 68.8737 36.4609 68.8917 36.2318Z" fill="white"/>
<path d="M67.3697 35.8988C67.5844 35.4403 68.2111 34.6904 68.3723 34.6904C68.5512 34.6904 68.5692 35.6694 68.39 35.7946C68.3004 35.8362 68.0142 35.9404 67.7455 36.0237C67.3517 36.1279 67.2621 36.1069 67.3697 35.8988Z" fill="white"/>
<path d="M68.8021 35.4198C68.6052 34.7951 68.6947 34.5241 69.1243 34.4408C69.5719 34.3366 69.5719 34.3366 69.2855 34.9826C68.9274 35.8157 68.9452 35.8157 68.8021 35.4198Z" fill="white"/>
<path d="M68.6943 34.1702C68.6943 34.1283 69.0527 33.8369 69.5 33.5452C70.0372 33.1703 70.4133 33.0454 70.6817 33.1287C71.004 33.2535 70.9144 33.3368 70.1268 33.7743C69.2496 34.2325 68.6943 34.3993 68.6943 34.1702Z" fill="white"/>
<path d="M78.6308 15.7152C78.1474 14.9028 77.1268 13.5905 76.3927 12.799C75.6588 12.0075 75.1755 11.3618 75.3186 11.3618C75.7124 11.3618 78.7203 12.3198 79.4722 12.6948C80.0987 13.0071 80.1167 13.049 79.9556 13.6947C79.866 14.0696 79.7944 15.007 79.7944 15.7775C79.7944 16.569 79.7406 17.194 79.6691 17.194C79.5795 17.194 79.1319 16.5274 78.6308 15.7152Z" fill="white"/>
<path d="M42.1976 78.808C41.4635 78.3708 41.3024 78.1207 40.3714 75.9753C39.0288 72.9342 38.9931 72.2259 40.2641 73.9548C40.7652 74.6421 41.9292 76.0586 42.8422 77.1001C44.3997 78.8496 44.4712 78.9748 43.9521 78.8916C43.5763 78.829 43.4329 78.8706 43.5225 79.0371C43.7374 79.412 43.0571 79.3082 42.1976 78.808Z" fill="white"/>
<path fill-rule="evenodd" clip-rule="evenodd" d="M72.2015 116.759C72.0529 116.348 72.2184 115.875 72.5715 115.702L72.9573 115.512C76.7074 113.645 78.86 112.523 80.3227 110.743C81.7851 108.962 81.9601 106.346 82.2349 104.755C82.3103 104.318 83.1604 105.085 83.5359 105.173C83.9114 105.26 84.1546 105.686 84.0792 106.123C83.7486 108.036 82.8589 109.86 81.4267 111.592C79.9993 113.318 77.2354 115.168 73.1095 117.189C72.7565 117.362 72.3502 117.169 72.2015 116.759Z" fill="#00160A"/>
<path fill-rule="evenodd" clip-rule="evenodd" d="M89.1604 33.6474C89.4896 33.4193 89.915 33.5452 90.1108 33.9278C92.0721 37.7608 93.1226 42.1426 93.1226 46.7012C93.1226 60.512 83.4997 71.7079 71.6293 71.7079C68.4749 71.7079 65.4156 70.9164 62.6143 69.4083C62.2668 69.2211 60.9539 67.7317 62.2759 68.3373C63.5983 68.9433 68.714 70.303 71.6662 70.303C82.7706 70.303 90.6266 59.6208 90.6266 46.7012C90.6266 42.4349 89.1604 38.6485 88.9194 34.7532C88.8913 34.3015 88.8314 33.8752 89.1604 33.6474Z" fill="#00160A"/>
<path fill-rule="evenodd" clip-rule="evenodd" d="M20.4946 94.6999C20.7395 94.3576 21.1769 93.6661 21.4711 93.951C22.6781 95.1207 23.966 96.4759 25.3438 96.7376C26.7776 97.0099 28.4785 97.0099 30.4442 96.7327C30.8245 96.6795 31.1697 96.9944 31.2158 97.4368C31.2618 97.8792 30.9909 98.2809 30.6109 98.3345C28.5232 98.6284 26.6939 98.6284 25.1206 98.3299C23.4912 98.0205 21.9759 97.1854 20.5837 95.8361C20.2894 95.5508 20.2495 95.0423 20.4946 94.6999Z" fill="#00160A"/>
<path d="M35.2157 66.4771C34.3205 65.644 32.4047 63.1859 30.9545 61.0196C30.2026 59.8741 29.3612 57.5412 28.8598 55.1874C28.6271 54.1251 28.3944 53.1668 28.3406 53.042C28.2691 52.9377 27.9826 51.4589 27.6961 49.7507C27.2665 47.3346 27.3575 46.556 26.98 43.6659C26.8203 42.442 26.6758 41.4685 26.6758 41.4685L27.1411 40.7732C27.4096 40.3566 27.7493 39.6671 27.8752 39.2734C28.4482 37.4797 32.6554 31.8579 32.7807 32.0038C32.8165 32.0454 32.6734 33.0244 32.4227 34.1701C32.19 35.3156 31.9035 37.0445 31.7782 38.0234C31.599 39.6484 31.5274 39.8359 30.9725 40.3773C30.2742 41.0649 28.9494 43.2726 28.9494 43.7311C28.9494 44.3558 29.755 43.9392 30.5964 42.9186L31.4559 41.877V43.0228C31.4559 43.7727 31.3305 44.46 31.0979 45.0014C30.6502 46.0223 30.6502 47.1055 31.0798 47.9387C31.2948 48.3552 31.4917 49.3548 31.617 50.5423C32.172 55.9163 33.3537 60.5824 35.3768 65.2691C35.878 66.4355 36.2718 67.3935 36.254 67.3935C36.2183 67.3935 35.7526 66.977 35.2157 66.4771Z" fill="white"/>
</svg>
