<?xml version="1.0" encoding="UTF-8"?>
<svg version="1.1" xmlns="http://www.w3.org/2000/svg" width="150" height="146">
<path d="M0 0 C3.57776916 2.78749886 6.79602203 5.79602203 10 9 C10.62132812 9.53882812 11.24265625 10.07765625 11.8828125 10.6328125 C22.76404948 20.34297465 30.04667703 37.32544423 31.22314453 51.73266602 C32.05664998 72.93293115 28.91423873 92.17043635 14.4375 108.5 C12.96793977 110.00941272 11.48961975 111.51038025 10 113 C9.46117187 113.62132813 8.92234375 114.24265625 8.3671875 114.8828125 C-1.42449237 125.85539848 -18.5711888 133.17935946 -33.10766602 134.22314453 C-55.67640481 134.97876141 -76.00080114 132.95116192 -93.5 117.4375 C-95.00941272 115.96793977 -96.51038025 114.48961975 -98 113 C-98.62132813 112.46117188 -99.24265625 111.92234375 -99.8828125 111.3671875 C-110.76404948 101.65702535 -118.04667703 84.67455577 -119.22314453 70.26733398 C-120.05664998 49.06706885 -116.91423873 29.82956365 -102.4375 13.5 C-100.96793977 11.99058728 -99.48961975 10.48961975 -98 9 C-97.46117188 8.37867187 -96.92234375 7.75734375 -96.3671875 7.1171875 C-73.14656211 -18.90391533 -27.19005245 -18.13728039 0 0 Z " fill="#F2F2F2" transform="translate(119,12)"/>
<path d="M0 0 C6.68430231 -0.72919662 9.84029841 0.70498956 15.21484375 4.6875 C16.76499173 6.09872613 16.76499173 6.09872613 18 6 C18 5.34 18 4.68 18 4 C24.53079341 5.46942852 29.63512949 9.45269424 33.328125 14.9921875 C38.10215511 24.14834972 39.06091972 32.95301634 37 43 C37.99 43.33 38.98 43.66 40 44 C41.46577715 50.66262341 40.06671601 53.61810108 36.625 59.25 C31.67955045 67.19108118 31.67955045 67.19108118 29.625 76.125 C28.74333301 81.59133534 26.0614204 84.3786955 22 88 C19.42346992 89.85384481 16.79174548 91.49173231 14 93 C14.66 93.66 15.32 94.32 16 95 C15.71281674 96.6752357 15.36871088 98.34080104 15 100 C14.78985291 104.4491299 14.78985291 104.4491299 15.50170898 108.80761719 C16.16902518 111.74367765 16.11133723 114.50580875 16.09765625 117.515625 C16.09443359 118.76601562 16.09121094 120.01640625 16.08789062 121.3046875 C16.07532227 123.25761719 16.07532227 123.25761719 16.0625 125.25 C16.05798828 126.56742187 16.05347656 127.88484375 16.04882812 129.2421875 C16.03704316 132.49483741 16.02059011 135.74739584 16 139 C13.36 139 10.72 139 8 139 C7.97498045 135.05306991 7.95699137 131.10617158 7.94506836 127.15917969 C7.93766223 125.16860325 7.92494526 123.17804883 7.91210938 121.1875 C7.89574996 114.70917026 8.00014774 108.37157285 8.83837891 101.94262695 C9.04110139 99.50597615 8.50414233 97.37667099 8 95 C8.66 94.01 9.32 93.02 10 92 C9.01 91.7215625 9.01 91.7215625 8 91.4375 C2.68198787 88.88928586 -1.73687249 84.89469126 -5 80 C-5.103125 78.824375 -5.20625 77.64875 -5.3125 76.4375 C-6.16987505 68.10871378 -11.78744696 59.89531891 -16.3125 53 C-17.38338182 49.88470743 -16.61003192 47.17216597 -16 44 C-14.515 43.505 -14.515 43.505 -13 43 C-13.15726563 42.29488281 -13.31453125 41.58976562 -13.4765625 40.86328125 C-14.64952262 34.44701431 -15.46520336 27.5430169 -11.875 21.8125 C-10.93595431 20.5273489 -9.97631639 19.25707058 -9 18 C-7.90457925 16.4250051 -6.82133519 14.84147619 -5.75 13.25 C-5.24984375 12.53328125 -4.7496875 11.8165625 -4.234375 11.078125 C-3.0158376 9.0266633 -2.44106251 7.3313304 -2 5 C1.14737182 5.69941596 4.02588876 6.76078698 7 8 C7 6.35 7 4.7 7 3 C4.69 2.34 2.38 1.68 0 1 C0 0.67 0 0.34 0 0 Z " fill="#F2966A" transform="translate(63,7)"/>
<path d="M0 0 C0.82741699 0.75845215 1.65483398 1.5169043 2.50732422 2.29833984 C6.02070464 5.21825686 9.61219504 6.70699736 13.8828125 8.2265625 C14.61950165 8.50092133 15.3561908 8.77528015 16.11520386 9.05795288 C18.4477482 9.92513375 20.78571318 10.77619376 23.125 11.625 C25.47062582 12.48286192 27.81477163 13.34426722 30.15621948 14.21347046 C31.60717661 14.75146669 33.06064322 15.28275742 34.51687622 15.80630493 C38.10370677 17.12974753 41.09378739 18.49233241 44 21 C43.07320072 25.96499616 40.0658763 29.12612182 37 33 C35.948125 34.4540625 35.948125 34.4540625 34.875 35.9375 C24.64878902 47.80893736 8.43754649 55.39737335 -7 57 C-7.31049791 53.17052577 -6.81141189 50.01822459 -5.75 46.375 C-1.3410301 30.78538874 0.62046651 16.20107004 0 0 Z " fill="#302E52" transform="translate(93,88)"/>
<path d="M0 0 C0.495 0.99 0.495 0.99 1 2 C0.67 2.99 0.34 3.98 0 5 C-1.47051916 19.68418417 2.37309981 34.25690868 6.1640625 48.34765625 C6.93586503 51.71978413 7.17202825 54.55943501 7 58 C-13.32893798 54.75602054 -29.23129939 44.62917818 -41.44921875 28.03125 C-42.3363021 26.71151898 -43.17661121 25.36038147 -44 24 C-42.97334197 21.06087838 -42.22573803 20.12412129 -39.453125 18.59960938 C-38.39609375 18.18517578 -37.3390625 17.77074219 -36.25 17.34375 C-35.08339844 16.87839844 -33.91679688 16.41304687 -32.71484375 15.93359375 C-31.48894531 15.46050781 -30.26304688 14.98742187 -29 14.5 C-27.80503906 14.02691406 -26.61007813 13.55382812 -25.37890625 13.06640625 C-20.9299484 11.30728929 -16.47684662 9.56088877 -12.00439453 7.86230469 C-11.11864746 7.52102539 -10.23290039 7.17974609 -9.3203125 6.828125 C-8.17199951 6.3935498 -8.17199951 6.3935498 -7.00048828 5.95019531 C-3.94816193 4.50039617 -2.1485803 2.57829635 0 0 Z " fill="#3A385F" transform="translate(57,87)"/>
<path d="M0 0 C2.3821875 0.0309375 2.3821875 0.0309375 4.8125 0.0625 C4.8125 6.3325 4.8125 12.6025 4.8125 19.0625 C3.348125 18.8975 1.88375 18.7325 0.375 18.5625 C-5.88355772 17.94108292 -12.07473737 17.33557603 -18.1875 19.0625 C-17.73899342 20.87745662 -17.27840429 22.68943134 -16.8125 24.5 C-16.55726562 25.50933594 -16.30203125 26.51867187 -16.0390625 27.55859375 C-15.46176046 30.21820324 -15.46176046 30.21820324 -13.1875 31.0625 C-11.11185324 31.26008231 -11.11185324 31.26008231 -8.8125 31.25 C-8.04164062 31.26417969 -7.27078125 31.27835938 -6.4765625 31.29296875 C-3.89771936 31.03332413 -2.35660999 30.47288697 -0.1875 29.0625 C1.57977858 26.0290533 1.57977858 26.0290533 2.8125 23.0625 C3.4725 23.0625 4.1325 23.0625 4.8125 23.0625 C4.8125 34.6125 4.8125 46.1625 4.8125 58.0625 C-3.83025193 57.10219423 -6.52714198 56.78478753 -12.1875 51.0625 C-15.77013789 46.46555684 -17.94738702 41.41929191 -20.1875 36.0625 C-20.92939967 34.89066554 -21.67954207 33.72401233 -22.4375 32.5625 C-24.49012649 28.45724702 -24.26119268 26.44674512 -23.1875 22.0625 C-22.1975 21.7325 -21.2075 21.4025 -20.1875 21.0625 C-20.47625 20.0725 -20.765 19.0825 -21.0625 18.0625 C-21.56378596 14.52485339 -20.75455315 12.81387554 -18.6875 9.9375 C-13.58418637 3.81114447 -8.17035031 -0.10610845 0 0 Z " fill="#FCAB7B" transform="translate(70.1875,28.9375)"/>
<path d="M0 0 C6.68430231 -0.72919662 9.84029841 0.70498956 15.21484375 4.6875 C16.76499173 6.09872613 16.76499173 6.09872613 18 6 C18 5.34 18 4.68 18 4 C24.55796588 5.47554232 29.75713832 9.49111038 33.36328125 15.1328125 C35.75485553 19.84638798 37.1317711 23.85362554 37.0625 29.1875 C37.05347656 30.08855469 37.04445312 30.98960938 37.03515625 31.91796875 C37.02355469 32.60503906 37.01195312 33.29210938 37 34 C36.278125 33.2575 35.55625 32.515 34.8125 31.75 C27.45263383 24.55368641 22.29789662 22.63987917 12.1875 22.625 C11.32318359 22.60050781 10.45886719 22.57601563 9.56835938 22.55078125 C3.57181772 22.5236271 -1.02759036 23.53621332 -6 27 C-7.90362863 28.89396396 -9.38502444 30.83131854 -11 33 C-11.98578412 34.0140166 -12.98266293 35.017643 -14 36 C-14.70805986 28.32148416 -13.5818385 24.11307468 -9 18 C-7.90703194 16.42330206 -6.82373689 14.8398568 -5.75 13.25 C-5.24984375 12.53328125 -4.7496875 11.8165625 -4.234375 11.078125 C-3.0158376 9.0266633 -2.44106251 7.3313304 -2 5 C1.14737182 5.69941596 4.02588876 6.76078698 7 8 C7 6.35 7 4.7 7 3 C4.69 2.34 2.38 1.68 0 1 C0 0.67 0 0.34 0 0 Z " fill="#332417" transform="translate(63,7)"/>
<path d="M0 0 C0.33 0 0.66 0 1 0 C1.43106382 3.9950379 1.73243758 7.99081077 2 12 C2.09152344 13.175625 2.18304688 14.35125 2.27734375 15.5625 C2.98354708 32.64917562 -1.7707792 49.55531135 -6 66 C2.35825056 63.40535289 10.71170852 60.81209889 19 58 C13.81708668 63.8683954 4.52971664 65.94120415 -3 67 C-4.75980215 67.04906512 -6.52085085 67.06436241 -8.28125 67.046875 C-9.16876953 67.04010742 -10.05628906 67.03333984 -10.97070312 67.02636719 C-11.97520508 67.01331543 -11.97520508 67.01331543 -13 67 C-13.02505615 66.17274414 -13.0501123 65.34548828 -13.07592773 64.49316406 C-13.19196349 60.74528808 -13.314656 56.99765875 -13.4375 53.25 C-13.47681641 51.94804687 -13.51613281 50.64609375 -13.55664062 49.3046875 C-13.59853516 48.05429688 -13.64042969 46.80390625 -13.68359375 45.515625 C-13.72025146 44.36352539 -13.75690918 43.21142578 -13.79467773 42.02441406 C-13.96577679 39.50411072 -14.34720922 37.41784041 -15 35 C-15.12390666 31.59256681 -15.13189216 28.58032549 -14.375 25.25 C-13.69032666 22.72357379 -13.69032666 22.72357379 -16 20 C-14.7315625 19.443125 -14.7315625 19.443125 -13.4375 18.875 C-8.3515932 16.10086902 -4.22380225 12.83570338 -1 8 C-0.54860541 5.9507906 -0.54860541 5.9507906 -0.375 3.8125 C-0.25125 2.554375 -0.1275 1.29625 0 0 Z " fill="#D3CDCF" transform="translate(92,79)"/>
<path d="M0 0 C0.66 0.70125 1.32 1.4025 2 2.125 C5.7944002 5.93027241 10.1786723 9.58933615 15 12 C14.814375 12.86625 14.62875 13.7325 14.4375 14.625 C13.84158821 17.94320197 13.84158821 17.94320197 14.5 21 C15.05808845 24.34853068 14.56669863 26.66207725 14 30 C13.85825987 32.30795411 13.75517941 34.61849346 13.68359375 36.9296875 C13.64169922 38.21875 13.59980469 39.5078125 13.55664062 40.8359375 C13.51683972 42.18228909 13.47712727 43.52864329 13.4375 44.875 C13.39424817 46.24480333 13.35063188 47.61459521 13.30664062 48.984375 C13.20084478 52.32282157 13.09875628 55.661339 13 59 C7.21008701 59.15621049 2.00170306 59.07024271 -3.625 57.5 C-4.64851563 57.2215625 -5.67203125 56.943125 -6.7265625 56.65625 C-7.47679687 56.4396875 -8.22703125 56.223125 -9 56 C-8.67 55.34 -8.34 54.68 -8 54 C-1.565 55.485 -1.565 55.485 5 57 C4.5663656 51.03752702 3.464613 45.42018797 2.0625 39.625 C-4.95594133 10.3445442 -4.95594133 10.3445442 0 0 Z " fill="#EEEAEC" transform="translate(58,87)"/>
<path d="M0 0 C2.91934592 0.11722762 5.17985629 -0.25675032 8.015625 -0.87890625 C9.8674035 -0.99185161 11.72295012 -1.05350517 13.578125 -1.06640625 C14.97224609 -1.08767578 14.97224609 -1.08767578 16.39453125 -1.109375 C19.09050889 -0.87232182 20.70970375 -0.25160761 23.015625 1.12109375 C22.75941816 2.72766135 22.48506629 4.33134205 22.203125 5.93359375 C22.05230469 6.82691406 21.90148437 7.72023438 21.74609375 8.640625 C20.93516925 11.39429912 20.36359664 12.48864394 18.015625 14.12109375 C13.26922925 15.01405973 9.18550347 14.76572066 4.953125 12.43359375 C2.8413958 9.91314277 2.28602082 8.36584359 2.015625 5.12109375 C0.695625 5.12109375 -0.624375 5.12109375 -1.984375 5.12109375 C-2.0875 5.69859375 -2.190625 6.27609375 -2.296875 6.87109375 C-3.09974471 9.49866736 -4.15472398 11.08032916 -5.984375 13.12109375 C-10.04641413 14.47510679 -13.73788922 14.64421156 -17.984375 14.12109375 C-20.88662573 12.40950999 -21.7072058 11.05193368 -22.66015625 7.8515625 C-23.17803727 5.6144574 -23.61637379 3.38720648 -23.984375 1.12109375 C-16.65303363 -2.66282438 -7.89068512 -0.77191485 0 0 Z " fill="#654029" transform="translate(74.984375,46.87890625)"/>
<path d="M0 0 C7.02526684 -0.3902926 12.22197846 -0.28413136 18 4 C20.20165932 6.19695492 22.14830316 8.50301487 24 11 C24.33 9.35 24.66 7.7 25 6 C25.33 6 25.66 6 26 6 C26.10251672 11.12583611 26.03590199 15.94997778 25 21 C25.99 21.33 26.98 21.66 28 22 C29.19876651 27.44893869 28.91360308 30.22169095 26 35 C25.34 35 24.68 35 24 35 C24 31.37 24 27.74 24 24 C23.34 24.33 22.68 24.66 22 25 C22 23.02 22 21.04 22 19 C18.99149092 17.99716364 16.95577958 17.8661332 13.8125 17.875 C12.91144531 17.87242188 12.01039062 17.86984375 11.08203125 17.8671875 C7.37221442 18.02705286 3.68458549 18.53942681 0 19 C0 12.73 0 6.46 0 0 Z " fill="#ED946A" transform="translate(75,29)"/>
<path d="M0 0 C0.598125 0.20625 1.19625 0.4125 1.8125 0.625 C2.9375 4.375 2.9375 4.375 1.8125 6.625 C1.60226573 11.07764261 1.60226573 11.07764261 2.31420898 15.44433594 C2.98403646 18.37569265 2.92381833 21.1349675 2.91015625 24.140625 C2.90693359 25.39101562 2.90371094 26.64140625 2.90039062 27.9296875 C2.89201172 29.23164063 2.88363281 30.53359375 2.875 31.875 C2.87048828 33.19242188 2.86597656 34.50984375 2.86132812 35.8671875 C2.84954316 39.11983741 2.83309011 42.37239584 2.8125 45.625 C0.1725 45.625 -2.4675 45.625 -5.1875 45.625 C-5.21251955 41.67806991 -5.23050863 37.73117158 -5.24243164 33.78417969 C-5.24983777 31.79360325 -5.26255474 29.80304883 -5.27539062 27.8125 C-5.29173019 21.3420335 -5.18876764 15.00818324 -4.36132812 8.5859375 C-4.14295529 6.12249563 -4.47863841 3.98787196 -5.1875 1.625 C-2.1875 -0.375 -2.1875 -0.375 0 0 Z " fill="#FB4462" transform="translate(76.1875,100.375)"/>
<path d="M0 0 C0.33 0 0.66 0 1 0 C2.04518445 9.68662016 2.10371911 19.27345227 2 29 C1.34 28.67 0.68 28.34 0 28 C-0.99 30.475 -0.99 30.475 -2 33 C-8.07257886 30.18392497 -12.97829176 26.04341648 -16 20 C-14.7315625 19.443125 -14.7315625 19.443125 -13.4375 18.875 C-8.3515932 16.10086902 -4.22380225 12.83570338 -1 8 C-0.54860541 5.9507906 -0.54860541 5.9507906 -0.375 3.8125 C-0.25125 2.554375 -0.1275 1.29625 0 0 Z " fill="#C7C4C4" transform="translate(92,79)"/>
<path d="M0 0 C0.66 0.70125 1.32 1.4025 2 2.125 C5.7944002 5.93027241 10.1786723 9.58933615 15 12 C13.67036433 17.48474712 9.50248145 20.90621572 5 24 C4.01 24 3.02 24 2 24 C0.375 22 0.375 22 -1 20 C-1.33 20 -1.66 20 -2 20 C-2.05425226 17.60385874 -2.09379027 15.20896147 -2.125 12.8125 C-2.14175781 12.13896484 -2.15851562 11.46542969 -2.17578125 10.77148438 C-2.21538674 6.71192193 -1.80020002 3.65001185 0 0 Z " fill="#E4E2E2" transform="translate(58,87)"/>
<path d="M0 0 C1.75183594 0.00386719 1.75183594 0.00386719 3.5390625 0.0078125 C4.70179687 0.00523438 5.86453125 0.00265625 7.0625 0 C10.1640625 0.1328125 10.1640625 0.1328125 13.1640625 1.1328125 C13.38681931 4.39991237 13.49069651 6.52853958 11.9140625 9.4453125 C8.99430011 12.26079766 6.5787701 12.08915907 2.6015625 12.5078125 C-0.8359375 12.1328125 -0.8359375 12.1328125 -2.7734375 10.0078125 C-3.94996665 6.82426303 -4.14209712 4.50056835 -3.8359375 1.1328125 C-2.8359375 0.1328125 -2.8359375 0.1328125 0 0 Z " fill="#F8AA79" transform="translate(57.8359375,47.8671875)"/>
<path d="M0 0 C1.76537109 -0.00386719 1.76537109 -0.00386719 3.56640625 -0.0078125 C6.4375 0.125 6.4375 0.125 7.4375 1.125 C7.70338635 4.64799415 7.79900232 7.29567114 6.375 10.5625 C3.40859413 12.9547628 1.13894972 12.50790859 -2.5625 12.125 C-5.58562793 11.31883255 -7.04338938 10.80928218 -8.9375 8.3125 C-9.72713483 5.5487781 -9.44365669 3.8418998 -8.5625 1.125 C-5.69616205 -0.30816898 -3.19014499 -0.00700361 0 0 Z " fill="#EF956A" transform="translate(87.5625,47.875)"/>
<path d="M0 0 C0.47308594 0.33773437 0.94617187 0.67546875 1.43359375 1.0234375 C6.56874394 4.48691111 10.90007464 5.95157533 17 7 C17 11.29 17 15.58 17 20 C16.34 20.33 15.68 20.66 15 21 C15 20.34 15 19.68 15 19 C14.34 18.814375 13.68 18.62875 13 18.4375 C7.68198787 15.88928586 3.26312751 11.89469126 0 7 C-0.07905064 4.66800612 -0.08798769 2.33167378 0 0 Z " fill="#FC966B" transform="translate(58,80)"/>
<path d="M0 0 C0.54572033 3.74208224 0.72584068 5.86600543 -1.34765625 9.10546875 C-5.87406162 14.40782933 -10.1239224 18.2809806 -17 20 C-17 15.71 -17 11.42 -17 7 C-15.288125 6.5875 -13.57625 6.175 -11.8125 5.75 C-8.22877726 4.78603854 -2.81720476 0 0 0 Z " fill="#E3845D" transform="translate(92,80)"/>
<path d="M0 0 C1.98 0.99 1.98 0.99 4 2 C3.835 2.680625 3.67 3.36125 3.5 4.0625 C2.83541241 7.96695206 2.43774093 11.95890382 3.50170898 15.82128906 C4.15646807 18.68413576 4.11150503 21.36093451 4.09765625 24.296875 C4.09443359 25.50214844 4.09121094 26.70742187 4.08789062 27.94921875 C4.07951172 29.20347656 4.07113281 30.45773438 4.0625 31.75 C4.05798828 33.01972656 4.05347656 34.28945312 4.04882812 35.59765625 C4.03704556 38.73181836 4.02059416 41.86588541 4 45 C2.68 45 1.36 45 0 45 C0 30.15 0 15.3 0 0 Z " fill="#F33957" transform="translate(75,100)"/>
<path d="M0 0 C1.67542976 0.28604898 3.34385343 0.61781233 5 1 C4.67 2.32 4.34 3.64 4 5 C4 4.01 4 3.02 4 2 C3.34 2 2.68 2 2 2 C2.33 2.99 2.66 3.98 3 5 C3.06740865 6.56118428 3.08514456 8.1250252 3.0625 9.6875 C3.05347656 10.49574219 3.04445313 11.30398437 3.03515625 12.13671875 C3.02355469 12.75160156 3.01195312 13.36648437 3 14 C2.34 14 1.68 14 1 14 C-1.90481571 9.23610223 -2.2778833 6.43100404 -1 1 C-0.67 0.67 -0.34 0.34 0 0 Z " fill="#F69B72" transform="translate(48,50)"/>
<path d="M0 0 C0.99 0.33 1.98 0.66 3 1 C4.19876651 6.44893869 3.91360308 9.22169095 1 14 C0.34 14 -0.32 14 -1 14 C-0.67 9.38 -0.34 4.76 0 0 Z " fill="#E48A65" transform="translate(100,50)"/>
<path d="M0 0 C0.21755666 5.4389165 0.10428384 9.87080814 -2 15 C-2.79560764 12.08500057 -3.25322499 9.25438581 -3.5625 6.25 C-3.68818359 5.05117187 -3.68818359 5.05117187 -3.81640625 3.828125 C-3.90728516 2.92320313 -3.90728516 2.92320313 -4 2 C-1 0 -1 0 0 0 Z " fill="#EE506A" transform="translate(75,100)"/>
<path d="M0 0 C1.4540625 0.0309375 1.4540625 0.0309375 2.9375 0.0625 C1.9475 0.7225 0.9575 1.3825 -0.0625 2.0625 C-0.5296306 6.26667542 0.14826836 9.26038277 1.9375 13.0625 C0.9475 12.7325 -0.0425 12.4025 -1.0625 12.0625 C-2.01171875 9.55859375 -2.01171875 9.55859375 -2.75 6.5 C-3.00136719 5.48808594 -3.25273438 4.47617187 -3.51171875 3.43359375 C-3.69347656 2.65113281 -3.87523437 1.86867187 -4.0625 1.0625 C-3.0625 0.0625 -3.0625 0.0625 0 0 Z " fill="#4A2F1C" transform="translate(55.0625,46.9375)"/>
<path d="M0 0 C1.98 0.99 1.98 0.99 4 2 C3.125 6.75 3.125 6.75 2 9 C1.34 9 0.68 9 0 9 C0 6.03 0 3.06 0 0 Z " fill="#D24059" transform="translate(75,100)"/>
<path d="M0 0 C-1.29299694 2.88437779 -2.65941363 4.87219421 -5 7 C-5.99 6.67 -6.98 6.34 -8 6 C-7.0479279 4.99403703 -6.08812654 3.99538437 -5.125 3 C-4.59132812 2.443125 -4.05765625 1.88625 -3.5078125 1.3125 C-2 0 -2 0 0 0 Z " fill="#E5E7E9" transform="translate(134,118)"/>
<path d="M0 0 C1.98 0 3.96 0 6 0 C6.33 0.99 6.66 1.98 7 3 C6.67 3.66 6.34 4.32 6 5 C5.34 5 4.68 5 4 5 C3.67 4.01 3.34 3.02 3 2 C2.01 1.34 1.02 0.68 0 0 Z " fill="#372010" transform="translate(91,47)"/>
</svg>
