<svg width="264" height="257" viewBox="0 0 264 257" fill="none" xmlns="http://www.w3.org/2000/svg">
<g clip-path="url(#clip0_262_9037)">
<path d="M38.7316 206.085L30.7361 200.509C30.3688 195.613 30.2541 190.699 30.3924 185.79L34.54 186.95L30.4462 184.095C30.6723 178.026 31.1731 174.023 31.1731 174.023C31.1731 174.023 47.339 185.518 57.6493 201.099L55.8912 214.277L60.084 205.061C61.1565 206.941 62.1199 208.892 62.9686 210.904C71.4633 231.219 72.2887 250.725 64.8122 254.472C57.3357 258.218 44.3884 244.786 35.8937 224.471C33.2603 218.173 31.8066 210.932 31.0534 203.937L38.7316 206.085Z" fill="#333333"/>
<path d="M22.3079 225.694L12.8304 225.445C10.2046 221.462 7.786 217.32 5.58624 213.039L9.68448 211.685L4.83203 211.558C2.15998 206.235 0.698395 202.524 0.698395 202.524C0.698395 202.524 19.965 203.217 36.1481 210.721L40.8653 222.997L40.1032 212.735C41.9088 213.737 43.6549 214.863 45.3314 216.105C62.1958 228.689 72.1128 244.919 67.4815 252.357C62.8503 259.795 45.4246 255.623 28.5602 243.039C23.3321 239.138 18.6685 233.762 14.7209 228.2L22.3079 225.694Z" fill="#333333"/>
<path d="M157.383 72.3598L149.956 71.4033L147.335 96.2724L140.643 130.615C139.712 131.111 138.953 131.922 138.478 132.929C138.003 133.936 137.837 135.083 138.006 136.201C138.175 137.319 138.669 138.347 139.415 139.133C140.16 139.919 141.118 140.42 142.145 140.561C143.172 140.703 144.213 140.478 145.114 139.92C146.014 139.361 146.726 138.499 147.143 137.462C147.56 136.425 147.66 135.269 147.428 134.165C147.196 133.06 146.645 132.068 145.856 131.334L152.578 111.098L157.383 72.3598Z" fill="#FFB6B6"/>
<path d="M168.172 249.653H162.053L159.142 223.816L168.173 223.816L168.172 249.653Z" fill="#FFB6B6"/>
<path d="M169.733 256.147L150.002 256.146V255.873C150.002 253.643 150.812 251.505 152.252 249.928C153.692 248.352 155.645 247.466 157.682 247.466H157.682L169.733 247.466L169.733 256.147Z" fill="#333333"/>
<path d="M215.132 246L209.124 247.27L201.79 222.506L210.657 220.632L215.132 246Z" fill="#FFB6B6"/>
<path d="M217.789 252.052L198.417 256.147L198.37 255.879C197.983 253.69 198.407 251.422 199.548 249.575C200.689 247.728 202.454 246.453 204.453 246.03L204.454 246.03L216.286 243.529L217.789 252.052Z" fill="#333333"/>
<path d="M158.578 31.6048L162.133 39.072L188.761 32.6427L185.844 18.1649C183.535 6.70517 174.279 -1.57102 163.811 0.956505C153.343 3.48403 148.458 14.6848 150.767 26.1445L155.058 40.7803L159.399 39.7321L158.578 31.6048Z" fill="#2F2E41"/>
<path d="M149.083 113.967C149.083 113.967 146.461 128.315 149.957 149.358C153.452 170.401 154.325 179.488 154.325 179.488C154.325 179.488 151.704 182.835 153.452 184.748C155.199 186.661 153.452 190.487 153.452 190.487L157.383 236.878L170.927 234.486L169.179 190.966C169.179 190.966 170.927 187.14 170.053 186.183C169.179 185.227 170.927 179.488 170.927 179.488L173.111 134.054L186.654 183.792C186.654 183.792 185.344 185.705 186.654 187.14C187.965 188.574 190.586 195.748 190.586 195.748L199.324 229.226L213.304 226.356L205.44 188.096C205.44 188.096 206.314 185.705 205.003 184.27C204.621 183.831 204.341 183.297 204.189 182.714C204.037 182.131 204.016 181.516 204.129 180.922C204.129 180.922 205.44 179.488 203.692 177.575C201.945 175.662 201.071 168.01 201.071 168.01C201.071 168.01 199.76 116.837 195.392 113.967C191.023 111.098 149.083 113.967 149.083 113.967Z" fill="#151519"/>
<path d="M168.837 34.8358C175.593 34.8358 181.069 28.8404 181.069 21.4447C181.069 14.0491 175.593 8.05371 168.837 8.05371C162.081 8.05371 156.604 14.0491 156.604 21.4447C156.604 28.8404 162.081 34.8358 168.837 34.8358Z" fill="#FFB6B6"/>
<path d="M186.076 38.5857C186.076 38.5857 194.955 37.4471 197.576 40.3166L194.955 98.185C194.955 98.185 196.702 99.6197 195.829 102.967C195.321 105.165 195.321 107.466 195.829 109.663C195.829 109.663 198.45 113.011 197.139 114.446C195.829 115.88 148.646 114.924 148.646 114.924C148.646 114.924 146.898 111.576 149.52 109.663C152.141 107.75 150.83 102.489 150.83 102.489C150.83 102.489 149.956 101.054 152.141 98.6632C154.325 96.272 156.073 76.6637 156.073 76.6637L150.393 52.7512C150.393 52.7512 156.11 45.6871 162.645 45.154L186.076 38.5857Z" fill="#333333"/>
<path d="M157.162 53.0806L150.393 52.7515C150.393 52.7515 146.461 61.36 146.025 69.012L143.619 97.5579L159.131 100.098L157.162 53.0806Z" fill="#333333"/>
<path d="M158.357 22.1088L153.812 15.7089C153.545 14.3615 153.775 12.9527 154.453 11.7905C155.131 10.6282 156.201 9.80704 157.431 9.50638L174.597 5.36162C175.828 5.0683 177.115 5.32026 178.176 6.06246C179.238 6.80466 179.988 7.97675 180.263 9.3226L180.272 9.36884L179.043 17.097L178.827 17.0547C168.174 14.9754 165.139 15.7068 158.53 21.9451L158.357 22.1088Z" fill="#2F2E41"/>
<path d="M204.074 124.365L203.255 86.7074L202.382 59.9253L191.897 61.36L197.527 125.372C196.928 126.195 196.569 127.196 196.495 128.246C196.421 129.295 196.636 130.345 197.113 131.259C197.59 132.173 198.306 132.909 199.169 133.373C200.032 133.836 201.003 134.006 201.955 133.859C202.907 133.713 203.797 133.257 204.51 132.551C205.223 131.845 205.726 130.921 205.955 129.899C206.183 128.876 206.126 127.802 205.791 126.816C205.455 125.829 204.858 124.976 204.074 124.365Z" fill="#FFB6B6"/>
<path d="M189.927 41.1242L197.576 40.3169C197.576 40.3169 198.887 40.3169 200.197 45.0994C201.508 49.8819 208.713 100.427 208.713 100.427L192.77 102.011L189.927 41.1242Z" fill="#333333"/>
<path d="M142.408 100.877H141.385V70.2211C141.385 67.891 140.966 65.5838 140.152 63.4311C139.337 61.2784 138.143 59.3224 136.638 57.6748C135.133 56.0273 133.346 54.7203 131.38 53.8286C129.413 52.937 127.306 52.478 125.177 52.478H65.8466C63.7181 52.478 61.6105 52.9369 59.644 53.8286C57.6776 54.7203 55.8908 56.0272 54.3858 57.6748C52.8807 59.3224 51.6868 61.2784 50.8723 63.431C50.0578 65.5837 49.6385 67.891 49.6385 70.221V238.404C49.6385 243.109 51.3461 247.622 54.3857 250.95C57.4253 254.277 61.5479 256.147 65.8466 256.147H125.177C129.476 256.147 133.598 254.277 136.638 250.95C139.678 247.622 141.385 243.109 141.385 238.404V122.699H142.408V100.877Z" fill="#3F3D56"/>
<path d="M125.831 57.0943H118.087C118.443 58.0501 118.579 59.0872 118.482 60.1141C118.386 61.1411 118.061 62.1263 117.535 62.9832C117.009 63.84 116.298 64.542 115.466 65.0275C114.634 65.5129 113.705 65.7669 112.762 65.7669H78.7725C77.8295 65.7669 76.901 65.5129 76.0688 65.0275C75.2365 64.542 74.5261 63.84 74.0001 62.9832C73.4741 62.1263 73.1486 61.1411 73.0524 60.1141C72.9562 59.0872 73.0921 58.0501 73.4483 57.0942H66.2148C63.0046 57.0942 59.9259 58.4902 57.656 60.9752C55.3861 63.4601 54.1108 66.8303 54.1108 70.3445V238.28C54.1108 240.02 54.4239 241.743 55.0322 243.351C55.6405 244.959 56.532 246.419 57.656 247.65C58.7799 248.88 60.1143 249.856 61.5828 250.522C63.0513 251.188 64.6253 251.531 66.2148 251.531H125.831C127.421 251.531 128.995 251.188 130.463 250.522C131.932 249.856 133.266 248.88 134.39 247.65C135.514 246.419 136.406 244.959 137.014 243.351C137.622 241.743 137.935 240.02 137.935 238.28V70.3445C137.935 68.6045 137.622 66.8815 137.014 65.2739C136.406 63.6663 135.514 62.2056 134.39 60.9752C133.266 59.7448 131.932 58.7688 130.463 58.1029C128.995 57.437 127.421 57.0942 125.831 57.0943Z" fill="#333333"/>
<path d="M86.4529 118.126L88.1013 124.377L109.167 123.97L108.983 112.517C108.837 103.451 102.984 95.6315 94.7021 95.7915C86.4206 95.9514 81.1548 103.616 81.3009 112.682L82.504 124.485L85.9386 124.419L86.4529 118.126Z" fill="#2F2E41"/>
<path d="M95.6435 122.497C100.864 122.497 105.095 117.865 105.095 112.15C105.095 106.436 100.864 101.803 95.6435 101.803C90.4234 101.803 86.1917 106.436 86.1917 112.15C86.1917 117.865 90.4234 122.497 95.6435 122.497Z" fill="#FFB6B6"/>
<path d="M114.457 128.286L114.243 132.638C109.707 137.803 103.519 140.844 96.9783 141.121C90.4379 141.398 84.0537 138.891 79.1661 134.125C78.9477 133.915 78.7335 133.695 78.5238 133.47C79.8344 132.045 83.4519 128.525 87.4668 128.2L105.571 126.951C105.571 126.951 112.43 126.071 114.457 128.286Z" fill="#E4E4E4"/>
<path d="M105.99 104.885C105.978 104.093 105.751 103.322 105.339 102.671C105.296 102.604 105.252 102.541 105.208 102.479C104.858 101.99 104.409 101.596 103.897 101.328C103.385 101.06 102.823 100.925 102.255 100.935L95.4616 101.068L88.6725 101.198C87.6999 101.219 86.7746 101.661 86.0991 102.427C85.4236 103.194 85.053 104.222 85.0683 105.287L86.6848 108.85L87.6153 110.896L87.7682 110.801C93.6441 107.185 96.0469 107.137 103.823 110.5L103.981 110.566L104.597 108.84L105.995 104.923L105.99 104.885Z" fill="#2F2E41"/>
<path d="M115.986 130.443C114.048 133.156 111.669 135.455 108.97 137.224L108.546 128.912L114.457 128.286C114.457 128.286 115.165 128.286 115.986 130.443Z" fill="#E4E4E4"/>
<path d="M95.9989 141.61C89.6853 141.618 83.59 139.081 78.876 134.483C78.6533 134.268 78.4334 134.043 78.2182 133.812C75.6804 131.188 73.6615 128.022 72.2864 124.51C70.9112 120.998 70.209 117.214 70.2232 113.393C70.2232 105.91 72.9388 98.7325 77.7727 93.4408C82.6066 88.1491 89.1628 85.1763 95.9989 85.1763C102.835 85.1763 109.391 88.1491 114.225 93.4408C119.059 98.7325 121.775 105.91 121.775 113.393C121.796 119.681 119.878 125.792 116.33 130.737C113.921 134.124 110.837 136.864 107.314 138.748C103.79 140.633 99.9203 141.611 95.9989 141.61ZM95.9989 86.1328C89.3968 86.141 83.0672 89.0156 78.3988 94.1262C73.7304 99.2367 71.1044 106.166 71.0969 113.393C71.0834 117.086 71.7623 120.742 73.0916 124.136C74.4208 127.529 76.3722 130.589 78.8249 133.123C79.0337 133.347 79.2421 133.561 79.4548 133.766C82.0022 136.239 84.9852 138.114 88.2199 139.276C91.4547 140.439 94.8726 140.863 98.263 140.524C101.653 140.186 104.945 139.09 107.933 137.305C110.922 135.521 113.546 133.085 115.642 130.148C119.069 125.371 120.922 119.467 120.901 113.393C120.893 106.166 118.267 99.2367 113.599 94.1262C108.931 89.0156 102.601 86.141 95.9989 86.1328Z" fill="#3F3D56"/>
<path d="M119.171 180.729H73.7623C73.3095 180.729 72.8612 180.632 72.4429 180.442C72.0246 180.252 71.6445 179.974 71.3243 179.624C71.0041 179.273 70.7502 178.857 70.5769 178.399C70.4036 177.942 70.3145 177.451 70.3145 176.955C70.3145 176.459 70.4036 175.969 70.5769 175.511C70.7502 175.053 71.0041 174.637 71.3243 174.286C71.6445 173.936 72.0246 173.658 72.4429 173.468C72.8612 173.278 73.3095 173.181 73.7623 173.181H119.171C119.623 173.181 120.072 173.278 120.49 173.468C120.908 173.658 121.288 173.936 121.609 174.286C121.929 174.637 122.183 175.053 122.356 175.511C122.529 175.969 122.619 176.459 122.619 176.955C122.619 177.451 122.529 177.942 122.356 178.399C122.183 178.857 121.929 179.273 121.609 179.624C121.288 179.974 120.908 180.252 120.49 180.442C120.072 180.632 119.623 180.729 119.171 180.729Z" fill="#FEB51B"/>
<path d="M119.171 192.686H73.7623C72.8479 192.686 71.9709 192.288 71.3243 191.581C70.6777 190.873 70.3145 189.913 70.3145 188.912C70.3145 187.911 70.6777 186.951 71.3243 186.243C71.9709 185.535 72.8479 185.137 73.7623 185.137H119.171C120.085 185.137 120.962 185.535 121.609 186.243C122.255 186.951 122.619 187.911 122.619 188.912C122.619 189.913 122.255 190.873 121.609 191.581C120.962 192.288 120.085 192.686 119.171 192.686Z" fill="#FEB51B"/>
<path d="M108.117 168.628H84.817C83.9026 168.628 83.0256 168.23 82.379 167.522C81.7324 166.815 81.3691 165.855 81.3691 164.853C81.3691 163.852 81.7324 162.892 82.379 162.185C83.0256 161.477 83.9026 161.079 84.817 161.079H108.117C109.031 161.079 109.908 161.477 110.555 162.185C111.201 162.892 111.564 163.852 111.564 164.853C111.564 165.855 111.201 166.815 110.555 167.522C109.908 168.23 109.031 168.628 108.117 168.628Z" fill="#FEB51B"/>
<path d="M263.063 256.5H0.936877C0.82101 256.5 0.709895 256.45 0.627965 256.36C0.546034 256.27 0.5 256.149 0.5 256.022C0.5 255.895 0.546034 255.773 0.627965 255.684C0.709895 255.594 0.82101 255.543 0.936877 255.543H263.063C263.179 255.543 263.29 255.594 263.372 255.684C263.454 255.773 263.5 255.895 263.5 256.022C263.5 256.149 263.454 256.27 263.372 256.36C263.29 256.45 263.179 256.5 263.063 256.5Z" fill="#333333"/>
</g>
<defs>
<clipPath id="clip0_262_9037">
<rect width="263" height="256" fill="white" transform="translate(0.5 0.5)"/>
</clipPath>
</defs>
</svg>
