<svg width="415" height="586" viewBox="0 0 415 586" fill="none" xmlns="http://www.w3.org/2000/svg">
<g filter="url(#filter0_d_262_7889)">
<path d="M320.658 470.326L189.591 469.754C173.824 469.688 161.103 457.474 161.173 442.475L162.563 129.88C162.632 114.87 175.47 102.76 191.247 102.825L322.315 103.398C338.082 103.463 350.802 115.677 350.733 130.677L349.343 443.281C349.274 458.291 336.435 470.401 320.658 470.326Z" fill="#455A64"/>
<path d="M322.127 114.195L296.717 114.082C293.305 114.063 290.534 116.803 290.524 120.189L290.504 124.57C290.495 127.956 287.714 130.695 284.312 130.677L234.782 130.461C231.37 130.442 228.619 127.684 228.639 124.298L228.659 119.917C228.669 116.531 225.927 113.763 222.516 113.754L213.582 113.716L191.336 113.623C180.292 113.576 171.299 122.056 171.25 132.562L169.889 437.681C169.84 448.187 178.754 456.733 189.788 456.78L320.599 457.352C331.643 457.399 340.636 448.919 340.685 438.413L342.046 133.294C342.095 122.788 333.181 114.242 322.147 114.195H322.127Z" fill="#EBEBEB"/>
<path d="M171.073 169.175H192.51L211.649 187.374L191.75 206.295L171.299 186.839L171.073 169.175Z" fill="#EBEBEB"/>
<path d="M216.008 179.391L205.269 169.175H229.438L216.008 179.391Z" fill="#EBEBEB"/>
<path d="M225.405 187.731L244.228 169.823H309.999C309.999 169.823 320.066 212.599 280.456 240.057L225.405 187.721V187.731Z" fill="#EBEBEB"/>
<path d="M217.349 193.444L197.213 212.609L252.935 265.619L273.071 245.817L217.349 193.444Z" fill="#EBEBEB"/>
<path d="M170.826 223.462L183.448 211.004L171.073 199.231L170.826 223.462Z" fill="#EBEBEB"/>
<path d="M191.001 218.35L171.615 236.792V262.42L211.649 301.388L245.55 271.36L191.001 218.35Z" fill="#EBEBEB"/>
<path d="M287.941 245.441C287.941 245.441 329.464 216.473 316.043 169.832H341.868L341.553 301.5L287.941 245.45V245.441Z" fill="#EBEBEB"/>
<path d="M280.161 253.04L260.075 272.992L321.654 331.566L340.488 312.579L280.161 253.04Z" fill="#EBEBEB"/>
<path d="M251.683 278.452L220.129 308.264L283.247 367.897L314.752 338.92L251.683 278.452Z" fill="#EBEBEB"/>
<path d="M235.147 427.822L283.395 380.233L329.296 424.745L235.147 427.822Z" fill="#EBEBEB"/>
<path d="M290.919 374.098L341.168 326.744C341.168 328.845 340.734 424.979 340.734 424.979L290.919 374.108V374.098Z" fill="#EBEBEB"/>
<path d="M247.897 347.485L276.404 374.605L220.129 429.867L194.117 400.186L247.897 347.485Z" fill="#EBEBEB"/>
<path d="M170.875 404.041C173.567 403.788 242.503 342.372 242.503 342.372L170.875 271.763V404.041Z" fill="#EBEBEB"/>
<path d="M169.879 418.038L186.475 404.042L209.46 429.867H169.879V419.989" fill="#EBEBEB"/>
<path d="M191.356 150.583C191.257 150.676 189.058 148.857 186.435 146.511C186.435 145.798 186.435 146.314 186.435 146.155H186.445L186.465 146.127L186.495 146.099L186.554 146.042L186.672 145.93L186.919 145.714C187.076 145.573 187.234 145.433 187.392 145.292C187.698 145.02 188.003 144.757 188.299 144.504C188.841 144.044 189.354 143.613 189.847 143.191C190.735 142.45 191.316 142.027 191.366 142.074C191.415 142.121 190.922 142.647 190.094 143.444C189.62 143.885 189.137 144.344 188.624 144.832L187.747 145.639L187.274 146.061L187.037 146.277L186.919 146.389L186.859 146.446L186.83 146.474H186.81V146.493H186.8C186.8 146.343 186.8 146.849 186.8 146.146C189.423 148.5 191.474 150.479 191.376 150.573L191.356 150.583Z" fill="#263238"/>
<path d="M327.649 143.425C327.649 143.988 327.166 144.438 326.584 144.438C326.003 144.438 325.52 143.979 325.52 143.425C325.52 142.872 326.003 142.412 326.584 142.412C327.166 142.412 327.649 142.872 327.649 143.425Z" fill="#263238"/>
<path d="M327.344 146.202C327.758 146.596 327.758 147.243 327.344 147.637C326.93 148.031 326.249 148.031 325.835 147.637C325.421 147.243 325.421 146.596 325.835 146.202C326.249 145.808 326.93 145.808 327.344 146.202Z" fill="#263238"/>
<path d="M327.649 150.423C327.649 150.986 327.166 151.436 326.584 151.436C326.003 151.436 325.52 150.977 325.52 150.423C325.52 149.87 326.003 149.41 326.584 149.41C327.166 149.41 327.649 149.87 327.649 150.423Z" fill="#263238"/>
<path d="M281.443 147.581H235.315V151.24H281.443V147.581Z" fill="#263238"/>
<path d="M276.433 213.256C276.433 196.164 257.55 185.329 238.302 193.903C233.954 195.836 230.355 199.109 228.175 203.143C223.334 212.064 225.474 222.261 229.862 230.723L244.84 266.848C246.999 272.054 254.76 272.026 256.87 266.801L271.562 230.488C276.65 219.428 276.433 213.265 276.433 213.265V213.256ZM258.349 228.134C245.412 235.291 232.297 222.064 239.387 209.006C240.334 207.271 241.773 205.807 243.499 204.86C256.436 197.702 269.561 210.929 262.461 223.987C261.514 225.723 260.075 227.186 258.349 228.134Z" fill="#76C7E1"/>
<path d="M701.16 335.588H117.944V417H701.16V335.588Z" fill="#8672E7"/>
<g opacity="0.5">
<path d="M701.16 335.588H117.944V417H701.16V335.588Z" fill="black"/>
</g>
<path d="M200.088 469.836C231.077 467.852 254.509 442.345 252.423 412.863C250.338 383.382 223.525 361.091 192.536 363.075C161.546 365.059 138.115 390.567 140.201 420.048C142.286 449.529 169.098 471.82 200.088 469.836Z" fill="#343F44"/>
<path d="M140.093 415.55C140.093 415.55 140.093 415.64 140.093 415.69C139.641 445.231 164.459 469.532 195.511 469.952C226.563 470.382 252.106 446.771 252.558 417.23C252.558 417.18 252.558 417.14 252.558 417.09L140.114 415.55H140.093Z" fill="#343F44"/>
<path d="M156.838 415.921C156.523 436.661 173.941 453.722 195.742 454.022C217.544 454.322 235.477 437.751 235.792 417.011C236.108 396.27 218.689 379.21 196.888 378.91C175.086 378.61 157.153 395.18 156.838 415.921Z" fill="#FAFAFA"/>
<path d="M196.888 378.9C175.087 378.6 157.153 395.17 156.838 415.911L235.792 416.991C236.108 396.25 218.69 379.19 196.888 378.89V378.9Z" fill="#E0E0E0"/>
<path d="M172.269 416.131C172.08 428.761 182.687 439.151 195.973 439.341C209.25 439.521 220.182 429.431 220.371 416.791C220.561 404.16 209.954 393.76 196.667 393.58C183.391 393.4 172.469 403.49 172.269 416.131Z" fill="#343F44"/>
<path d="M269.851 297.643C269.851 297.643 186.938 303.103 156.206 309.258C134.546 313.6 92.7847 321.08 93.2899 344.545L96.6052 361.356C96.6052 361.356 81.1129 367.671 81.1129 383.797C81.1129 399.923 77.3346 424.929 113.487 425.925C119.444 426.094 130.768 425.925 130.768 425.925C130.768 425.925 123.822 357.165 194.579 355.145C266.557 353.096 261.779 425.295 261.779 425.295H562.172C562.172 425.295 549.848 354.957 627.33 354.863C704.812 354.76 693.025 425.756 693.025 425.756C693.025 425.756 721.525 427.955 734.786 406.567C748.047 385.178 744.595 369.955 744.595 369.955L744.153 356.432C744.006 351.828 739.88 348.116 734.734 347.937C734.734 347.937 739.912 313.891 731.966 307.999C724.02 302.107 680.479 266.567 680.479 266.567L682.553 265.401C686.026 263.456 685.426 258.776 681.542 257.583C665.008 252.508 632.319 242.463 624.636 240.066C623.478 239.709 622.289 239.484 621.068 239.399C616.479 239.089 603.502 238.347 579.664 238.121C550.627 237.849 435.34 238.121 435.34 238.121C435.34 238.121 395.662 241.034 373.56 249.727C350.322 258.861 269.861 297.643 269.861 297.643H269.851Z" fill="#76C7E1"/>
<g opacity="0.4">
<path d="M102.513 379.49C99.5066 378.91 94.9024 378.85 92.6109 380.79C90.9079 382.23 90.4559 384.55 90.2036 386.71C89.8462 389.66 89.6675 392.69 90.4139 395.58C91.1497 398.47 92.9262 401.23 95.6698 402.65C98.4134 404.07 102.187 403.84 104.321 401.67C106.276 399.69 106.497 396.71 106.444 393.99C106.371 390.13 106.697 386.86 105.95 383.07C105.803 382.35 105.404 381.43 104.92 380.87C104.121 379.95 103.512 379.56 102.523 379.5" fill="black"/>
</g>
<path d="M96.9943 357.589C105.782 357.609 114.318 357.129 123.085 356.569C124.031 356.509 125.061 356.409 125.755 355.799C126.596 355.059 126.659 353.839 126.669 352.749C126.711 348.269 126.48 343.169 122.906 340.248C120.719 338.468 117.724 337.908 114.864 337.648C107.811 337.018 100.411 337.538 93.6831 339.678L96.9943 357.569V357.589Z" fill="#FAFAFA"/>
<path d="M279.542 423.34C279.542 423.34 279.511 423.1 279.469 422.63C279.437 422.14 279.385 421.44 279.322 420.53C279.217 418.67 279.059 415.95 278.859 412.46C278.649 408.96 278.407 404.67 277.882 399.71C277.335 394.76 276.536 389.119 274.781 383.079C273.015 377.049 270.313 370.629 266.319 364.319C262.303 358.059 257.026 351.798 249.962 346.958C235.771 337.358 216.608 331.928 196.573 331.698C176.474 331.468 157.385 337.508 143.562 347.578C136.582 352.508 130.8 358.269 126.354 364.289C121.865 370.289 118.586 376.459 116.284 382.319C113.95 388.179 112.72 393.77 112.026 398.69C111.269 403.62 111.385 407.93 111.511 411.43C111.795 414.92 112.121 417.63 112.541 419.43C112.709 420.33 112.846 421.02 112.93 421.5C113.014 421.97 113.046 422.21 113.046 422.21C113.046 422.21 112.983 421.98 112.878 421.51C112.773 421.03 112.625 420.34 112.426 419.45C111.974 417.65 111.616 414.94 111.29 411.44C111.133 407.94 110.986 403.61 111.711 398.66C112.384 393.71 113.582 388.099 115.905 382.199C118.207 376.309 121.476 370.089 125.975 364.049C130.432 357.989 136.235 352.178 143.257 347.208C157.153 337.058 176.369 330.958 196.583 331.188C216.734 331.428 235.981 336.888 250.267 346.578C257.394 351.478 262.692 357.799 266.718 364.099C270.723 370.449 273.425 376.919 275.17 382.979C276.914 389.059 277.682 394.72 278.197 399.68C278.701 404.65 278.912 408.94 279.08 412.45C279.238 415.95 279.353 418.66 279.437 420.53C279.479 421.44 279.511 422.14 279.532 422.63C279.553 423.1 279.542 423.35 279.542 423.35V423.34Z" fill="#FEB51B"/>
<path d="M282.388 424.602C282.388 424.602 282.367 424.402 282.356 424.002L282.293 422.232C282.241 420.662 282.167 418.342 282.072 415.322C281.894 409.262 281.62 400.381 281.284 389.101C280.958 377.811 280.569 364.1 280.117 348.4C280.002 344.47 279.886 340.42 279.77 336.25C279.623 334.17 279.855 332.04 280.054 329.9C280.212 328.83 280.37 327.76 280.538 326.68C280.769 325.609 281 324.539 281.232 323.449C282.293 319.149 283.838 314.839 285.909 310.639C287.991 306.449 290.461 302.309 293.614 298.469L293.635 298.439L293.667 298.419C309.719 288.799 327.168 278.338 345.627 267.278C350.242 264.508 354.919 261.708 359.66 258.868C364.306 255.868 369.331 253.308 374.513 250.978C379.706 248.658 385.099 246.627 390.638 244.847C393.403 243.927 396.231 243.167 399.058 242.367C401.918 241.677 404.766 240.907 407.689 240.347C418.873 237.987 430.142 236.817 441.179 236.327C452.227 235.837 463.065 235.867 473.598 236.427L473.903 236.447L473.839 236.737C468.867 257.898 464.179 277.858 459.88 296.149V296.189L459.848 296.229C457.231 300.329 455.139 304.639 453.583 308.989C452.091 313.349 451.123 317.829 451.46 322.199C451.817 326.59 451.943 330.89 452.059 335.05C452.143 339.22 452.227 343.27 452.311 347.19C452.553 362.89 452.616 376.581 452.658 387.871C452.669 399.151 452.679 408.012 452.69 414.072C452.679 417.092 452.669 419.402 452.658 420.982C452.658 421.762 452.648 422.342 452.637 422.752C452.637 423.152 452.616 423.352 452.616 423.352C452.616 423.352 452.606 423.152 452.595 422.752C452.595 422.342 452.585 421.752 452.574 420.982C452.574 419.412 452.553 417.092 452.532 414.072C452.49 408.012 452.437 399.141 452.374 387.871C452.29 376.591 452.185 362.89 451.912 347.2C451.828 343.28 451.733 339.23 451.638 335.06C451.512 330.89 451.376 326.61 451.018 322.229C450.671 317.779 451.639 313.249 453.142 308.849C454.708 304.459 456.789 300.129 459.438 295.979L459.407 296.049C463.685 277.748 468.363 257.788 473.314 236.627L473.556 236.937C463.054 236.377 452.217 236.357 441.2 236.847C430.184 237.337 418.957 238.507 407.804 240.857C404.892 241.407 402.054 242.187 399.206 242.867C396.388 243.667 393.571 244.417 390.817 245.337C385.298 247.107 379.916 249.128 374.745 251.438C369.583 253.758 364.58 256.308 359.965 259.278C355.224 262.118 350.546 264.918 345.932 267.678C327.452 278.728 309.992 289.179 293.93 298.779L293.982 298.729C290.871 302.509 288.401 306.639 286.33 310.799C284.259 314.969 282.724 319.249 281.663 323.519C279.297 332.09 280.485 340.55 280.506 348.38C280.916 364.08 281.274 377.791 281.568 389.081C281.852 400.361 282.073 409.242 282.22 415.302C282.283 418.322 282.335 420.642 282.377 422.212C282.388 422.992 282.398 423.582 282.409 423.982C282.409 424.382 282.409 424.582 282.409 424.582L282.388 424.602Z" fill="#263238"/>
<path d="M438.334 326.388C438.334 326.388 438.628 326.358 439.175 326.268C439.711 326.178 440.51 325.978 441.382 325.428C442.244 324.888 443.169 323.968 443.632 322.648C443.873 321.988 443.947 321.257 443.916 320.447C443.895 319.667 443.684 318.837 443.264 318.067C442.423 316.537 440.594 315.257 438.418 315.257C436.2 315.257 433.824 315.267 431.333 315.277C426.329 315.277 420.853 315.287 415.092 315.297C413.715 315.297 412.37 315.807 411.392 316.667C410.404 317.527 409.773 318.717 409.637 319.937C409.5 321.197 409.679 322.428 410.309 323.468C410.919 324.508 411.907 325.298 413 325.738C414.104 326.208 415.302 326.138 416.501 326.148C417.678 326.148 418.834 326.148 419.938 326.158C422.156 326.168 424.216 326.178 426.119 326.188C429.851 326.218 432.899 326.248 435.065 326.268C436.084 326.288 436.894 326.308 437.493 326.318C438.05 326.338 438.344 326.348 438.344 326.368C438.344 326.388 438.05 326.408 437.493 326.418C436.883 326.428 436.074 326.448 435.065 326.468C432.899 326.488 429.851 326.518 426.119 326.548C424.227 326.548 422.156 326.568 419.938 326.578C418.824 326.578 417.678 326.578 416.501 326.588C415.902 326.588 415.323 326.608 414.682 326.578C414.052 326.538 413.41 326.408 412.811 326.168C411.613 325.688 410.53 324.838 409.857 323.698C409.164 322.568 408.964 321.177 409.111 319.867C409.258 318.517 409.952 317.207 411.035 316.267C412.117 315.317 413.589 314.757 415.103 314.757C420.863 314.757 426.35 314.767 431.343 314.777C433.835 314.787 436.21 314.797 438.439 314.807C440.783 314.827 442.749 316.227 443.611 317.877C444.052 318.707 444.262 319.587 444.262 320.417C444.283 321.227 444.189 322.038 443.916 322.718C443.4 324.108 442.402 325.048 441.498 325.578C440.573 326.118 439.742 326.288 439.185 326.348C438.628 326.408 438.334 326.358 438.334 326.358V326.388Z" fill="#263238"/>
<path d="M298.064 298.517L458.611 295.707L563.099 293.887L597.556 274.967C600.342 273.437 601.088 269.917 599.144 267.476L577.7 240.666C575.46 237.866 571.992 236.216 568.302 236.186L451.432 235.286C451.432 235.286 407.419 232.856 372.751 251.326C336.254 270.767 298.064 298.527 298.064 298.527V298.517Z" fill="#263238"/>
<path d="M371.647 238.046C371.647 238.046 379.699 241.536 374.453 244.776C369.219 248.006 287.878 296.797 287.878 296.797L269.178 288.747C302.3 271.187 335.76 254.146 371.647 238.056V238.046Z" fill="#455A64"/>
<path d="M290.506 298.017C290.506 298.017 290.338 298.067 290.002 298.137L288.52 298.447C287.195 298.707 285.271 299.087 282.812 299.567C277.85 300.507 270.66 301.827 261.746 303.277C243.918 306.198 219.152 309.598 191.643 311.868C184.768 312.438 178.04 312.908 171.544 313.308C165.048 313.718 158.783 314.088 152.833 314.608C140.934 315.598 130.264 317.248 121.603 319.698C112.92 322.068 106.276 325.108 101.914 327.508C99.6749 328.628 98.0876 329.728 96.9523 330.388C96.4057 330.718 95.9853 330.978 95.6699 331.158C95.3756 331.328 95.2179 331.408 95.2179 331.408C95.2179 331.408 95.3545 331.298 95.6279 331.118C95.9327 330.918 96.3427 330.648 96.8788 330.298C97.993 329.608 99.5698 328.478 101.798 327.328C106.14 324.868 112.783 321.758 121.487 319.338C130.17 316.828 140.86 315.138 152.781 314.128C158.741 313.598 165.006 313.208 171.502 312.798C177.998 312.388 184.715 311.918 191.59 311.348C219.089 309.088 243.844 305.748 261.683 302.917C270.607 301.507 277.798 300.247 282.78 299.367C285.25 298.927 287.174 298.577 288.509 298.337C289.15 298.227 289.644 298.147 290.002 298.077C290.338 298.027 290.517 298.007 290.517 298.007L290.506 298.017Z" fill="#263238"/>
<path d="M546.868 392.389C546.868 392.529 486.467 392.649 411.97 392.649C337.473 392.649 277.062 392.529 277.062 392.389C277.062 392.249 337.452 392.129 411.97 392.129C486.488 392.129 546.868 392.249 546.868 392.389Z" fill="#263238"/>
<path d="M123.936 367.269C123.936 367.409 115.39 367.529 104.857 367.529C94.3244 367.529 85.7783 367.409 85.7783 367.269C85.7783 367.129 94.3139 367.009 104.857 367.009C115.401 367.009 123.936 367.129 123.936 367.269Z" fill="#263238"/>
<path d="M318.205 293.347C318.205 293.347 369.523 258.086 389.769 251.086C409.311 244.326 419.497 242.626 437.85 242.136C455.394 241.666 466.085 242.126 466.085 242.126L452.525 291.777L318.205 293.367V293.347Z" fill="#455A64"/>
<path d="M310.699 293.507C310.699 290.417 312.455 287.567 315.283 286.047L327.066 279.746C330.43 277.946 334.214 277.006 338.072 277.006C340.469 277.006 342.834 277.366 345.073 278.066C350.108 279.636 353.461 284.187 353.672 289.227C353.955 296.227 348.058 302.057 340.69 302.057H319.687C314.725 302.057 310.699 298.227 310.699 293.507Z" fill="#76C7E1"/>
<path d="M310.699 293.507C310.699 293.507 310.731 293.887 310.836 294.587C310.931 295.287 311.204 296.327 311.866 297.517C312.56 298.687 313.716 299.987 315.482 300.897C316.365 301.337 317.395 301.667 318.51 301.807C319.624 301.937 320.854 301.857 322.136 301.867C327.266 301.847 333.363 301.837 340.122 301.807C341.804 301.807 343.496 301.617 345.125 301.027C346.755 300.447 348.279 299.537 349.572 298.337C350.854 297.137 351.916 295.667 352.568 294.007C353.23 292.347 353.493 290.527 353.356 288.717C353.062 285.077 351.023 281.717 348.048 279.767C346.576 278.767 344.884 278.197 343.181 277.817C341.478 277.427 339.764 277.247 338.093 277.247C334.74 277.247 331.576 277.957 328.864 279.127C327.508 279.707 326.267 280.437 325.037 281.067C323.818 281.717 322.641 282.337 321.527 282.927C319.287 284.107 317.269 285.167 315.482 286.117C313.706 287.027 312.549 288.337 311.877 289.507C311.193 290.687 310.941 291.737 310.836 292.437C310.731 293.147 310.741 293.517 310.71 293.517C310.71 293.517 310.657 293.137 310.731 292.417C310.804 291.707 311.025 290.637 311.698 289.407C312.36 288.197 313.538 286.817 315.346 285.857C317.122 284.897 319.13 283.807 321.348 282.607C322.462 282.007 323.629 281.377 324.838 280.717C326.057 280.077 327.297 279.337 328.685 278.737C331.439 277.527 334.677 276.777 338.104 276.767C339.817 276.767 341.573 276.947 343.317 277.337C345.052 277.717 346.839 278.307 348.374 279.357C351.475 281.387 353.619 284.897 353.913 288.687C354.061 290.577 353.787 292.477 353.093 294.207C352.41 295.937 351.306 297.477 349.961 298.717C348.615 299.967 347.018 300.917 345.325 301.507C343.633 302.117 341.835 302.317 340.132 302.297C333.373 302.277 327.287 302.257 322.147 302.237C320.864 302.217 319.655 302.277 318.478 302.137C317.311 301.987 316.25 301.627 315.346 301.157C313.527 300.187 312.371 298.817 311.687 297.617C311.036 296.387 310.794 295.317 310.731 294.607C310.668 293.887 310.71 293.507 310.71 293.507H310.699Z" fill="#263238"/>
<path d="M450.275 298.517C450.275 298.517 450.191 298.537 450.033 298.547C449.844 298.547 449.602 298.567 449.318 298.577C448.646 298.587 447.731 298.607 446.575 298.637C444.147 298.677 440.709 298.737 436.494 298.807C427.98 298.957 416.227 299.257 403.235 299.597C390.242 299.937 378.479 300.177 369.965 300.227C365.708 300.257 362.26 300.257 359.873 300.227C358.717 300.207 357.803 300.197 357.13 300.187L356.415 300.167C356.257 300.167 356.173 300.147 356.173 300.137C356.173 300.127 356.257 300.117 356.415 300.107C356.604 300.107 356.846 300.087 357.13 300.077C357.803 300.067 358.717 300.047 359.873 300.017C362.302 299.977 365.739 299.917 369.954 299.847C378.469 299.697 390.232 299.397 403.224 299.057C416.217 298.717 427.98 298.477 436.494 298.427C440.751 298.397 444.199 298.397 446.585 298.427C447.742 298.447 448.656 298.457 449.329 298.467C449.613 298.467 449.844 298.487 450.044 298.487C450.201 298.487 450.286 298.507 450.286 298.517H450.275Z" fill="white"/>
<path d="M439.721 260.036C439.774 260.166 428.348 264.696 414.188 270.146C400.029 275.596 388.508 279.907 388.445 279.777C388.382 279.647 399.819 275.116 413.978 269.666C428.137 264.216 439.658 259.906 439.711 260.036H439.721Z" fill="white"/>
<path d="M416.553 263.456C416.616 263.586 405.726 268.147 392.239 273.647C378.753 279.147 367.768 283.487 367.715 283.357C367.652 283.227 378.543 278.667 392.029 273.167C405.516 267.677 416.501 263.326 416.553 263.456Z" fill="white"/>
<path d="M155.535 305.327C155.535 305.327 155.324 305.387 154.914 305.437C154.452 305.497 153.863 305.567 153.127 305.657C152.349 305.737 151.403 305.857 150.31 306.027C149.217 306.197 147.966 306.347 146.599 306.607C143.856 307.057 140.618 307.747 137.055 308.647C133.512 309.587 129.644 310.757 125.691 312.217C121.739 313.707 118.07 315.337 114.801 316.947C111.543 318.587 108.683 320.177 106.339 321.627C105.151 322.317 104.121 323.017 103.207 323.607C102.282 324.187 101.504 324.717 100.884 325.157C100.284 325.557 99.8009 325.887 99.4225 326.147C99.0861 326.367 98.8969 326.477 98.8864 326.467C98.8758 326.457 99.0335 326.317 99.3489 326.067C99.7168 325.787 100.179 325.437 100.757 324.997C101.367 324.527 102.124 323.977 103.039 323.367C103.943 322.757 104.962 322.037 106.14 321.317C108.463 319.827 111.322 318.197 114.57 316.527C117.839 314.887 121.529 313.227 125.502 311.737C129.486 310.267 133.365 309.097 136.939 308.187C140.524 307.307 143.782 306.657 146.547 306.247C147.924 306.007 149.185 305.877 150.279 305.747C151.382 305.597 152.328 305.517 153.106 305.467C153.842 305.417 154.431 305.377 154.904 305.337C155.314 305.317 155.535 305.307 155.535 305.337V305.327Z" fill="white"/>
<path d="M343.244 281.736C343.244 281.736 342.929 281.346 342.235 280.806C341.541 280.276 340.353 279.666 338.766 279.476C337.168 279.276 335.244 279.536 333.163 280.056C331.071 280.556 328.822 281.256 326.541 282.196C321.968 284.066 318.247 286.557 315.777 288.567C313.275 290.567 311.961 292.037 311.877 291.967C311.845 291.947 312.16 291.567 312.76 290.907C313.369 290.257 314.284 289.337 315.514 288.297C317.942 286.197 321.684 283.626 326.32 281.726C328.633 280.776 330.914 280.076 333.037 279.596C335.139 279.096 337.147 278.866 338.818 279.116C340.49 279.366 341.699 280.056 342.382 280.666C342.729 280.966 342.95 281.246 343.086 281.436C343.212 281.636 343.275 281.746 343.254 281.756L343.244 281.736Z" fill="white"/>
<path d="M175.928 256.696C171.733 234.816 168.906 231.455 166.52 223.925C164.175 216.485 160.37 211.505 155.671 209.785C152.497 208.625 136.687 203.195 131.168 204.995C125.04 206.995 119.689 209.905 115.895 212.295C112.205 214.625 109.409 218.025 107.927 221.995L99.4647 244.566L114.265 258.616L121.687 243.616L129.739 261.576L128.551 279.727L174.74 291.547C178.945 285.147 178.314 269.126 175.928 256.716V256.696Z" fill="#8672E7"/>
<g opacity="0.2">
<path d="M163.902 232.836C161.863 244.226 161.537 245.796 159.498 257.186C158.793 261.096 156.754 267.197 153.821 270.017C151.656 272.107 149.522 274.127 146.516 274.807C143.709 275.437 139.462 275.507 136.824 274.397C134.185 273.287 131.946 268.427 133.029 265.887C136.939 266.687 138.159 267.927 141.533 265.887C144.476 264.106 148.66 260.166 150.258 257.216C156.996 244.816 158.846 244.366 163.881 232.826" fill="black"/>
</g>
<path d="M130.475 254.897C130.412 254.937 129.644 253.767 128.435 251.867C127.142 249.856 125.492 247.306 123.673 244.486C121.813 241.686 120.12 239.166 118.796 237.176C117.535 235.306 116.778 234.146 116.841 234.106C116.872 234.086 117.104 234.346 117.503 234.846C117.903 235.336 118.449 236.066 119.122 236.976C120.467 238.796 122.254 241.346 124.136 244.216C126.018 247.096 127.636 249.746 128.761 251.687C129.329 252.657 129.77 253.457 130.065 254.007C130.359 254.567 130.506 254.877 130.475 254.897Z" fill="#263238"/>
<path d="M162.704 275.326C162.704 275.326 162.325 275.496 161.621 275.716C161.264 275.826 160.833 275.956 160.307 276.066C159.792 276.176 159.203 276.326 158.541 276.416C157.227 276.646 155.64 276.786 153.863 276.816C152.097 276.816 150.142 276.686 148.134 276.346C146.127 275.986 144.255 275.456 142.595 274.856C140.955 274.236 139.515 273.566 138.369 272.906C137.78 272.606 137.286 272.266 136.845 271.986C136.403 271.716 136.035 271.446 135.751 271.226C135.163 270.786 134.858 270.526 134.879 270.496C134.942 270.416 136.235 271.386 138.558 272.586C139.714 273.196 141.144 273.816 142.773 274.406C144.413 274.966 146.253 275.476 148.229 275.826C150.205 276.156 152.118 276.296 153.863 276.326C155.608 276.326 157.174 276.226 158.478 276.036C161.095 275.686 162.662 275.216 162.693 275.316L162.704 275.326Z" fill="#263238"/>
<path d="M144.172 241.236C144.087 241.626 139.126 251.026 139.126 251.026L115.706 239.286L113.319 229.685C112.941 228.185 111.974 226.885 110.618 226.045C109.178 225.155 107.412 224.875 105.74 225.255L98.8342 227.945C98.256 228.165 97.8145 228.635 97.6989 229.215C97.6043 229.705 97.7304 230.175 98.6134 230.105C100.327 229.975 103.901 229.615 103.901 229.615L102.272 235.085C101.841 236.515 102.009 238.055 102.734 239.376L103.775 241.266L106.056 244.776L106.014 244.806C106.014 244.806 128.782 267.056 141.565 268.496C149.249 269.366 157.953 248.876 157.953 248.876L144.193 241.216L144.172 241.236Z" fill="#FFC7B1"/>
<path d="M103.691 229.995C103.691 229.995 103.869 229.765 104.258 229.515C104.647 229.275 105.267 228.965 106.035 228.995C106.823 229.035 107.401 229.525 107.601 229.955C107.811 230.405 107.675 230.705 107.643 230.695C107.58 230.695 107.622 230.405 107.391 230.065C107.17 229.735 106.655 229.355 106.014 229.325C105.362 229.295 104.784 229.535 104.374 229.725C103.964 229.915 103.712 230.045 103.691 230.005V229.995Z" fill="#AA6550"/>
<path d="M106.644 233.405C106.644 233.405 106.497 233.225 106.266 232.955C106.045 232.695 105.677 232.365 105.183 232.185C104.689 231.995 104.184 231.995 103.838 232.045C103.48 232.095 103.27 232.165 103.238 232.125C103.217 232.095 103.407 231.935 103.785 231.815C104.153 231.705 104.731 231.665 105.309 231.875C105.887 232.095 106.276 232.495 106.466 232.825C106.665 233.155 106.686 233.385 106.644 233.405Z" fill="#AA6550"/>
<path d="M149.028 211.565L142.689 240.155L159.498 249.766L165.952 232.195C165.952 232.195 163.282 210.865 149.028 211.565Z" fill="#8672E7"/>
<path d="M158.089 212.075C158.089 212.075 157.952 212.175 157.658 212.335C157.364 212.485 156.943 212.705 156.376 212.975C155.261 213.515 153.632 214.275 151.582 215.145C147.493 216.865 141.659 219.065 134.869 220.155C128.078 221.255 121.729 220.745 117.398 219.595C115.222 219.035 113.519 218.405 112.384 217.885C111.806 217.645 111.385 217.405 111.091 217.265C110.796 217.115 110.649 217.025 110.66 217.015C110.681 216.975 111.312 217.255 112.468 217.705C113.624 218.165 115.327 218.735 117.493 219.245C121.802 220.285 128.057 220.735 134.774 219.645C141.491 218.565 147.304 216.445 151.425 214.815C153.485 213.995 155.146 213.285 156.281 212.805C157.427 212.315 158.058 212.055 158.079 212.095L158.089 212.075Z" fill="#EBEBEB"/>
<path d="M162.515 215.225C162.515 215.225 162.368 215.355 162.052 215.555C161.684 215.785 161.222 216.065 160.654 216.405C160.044 216.775 159.298 217.216 158.384 217.656C157.48 218.106 156.47 218.666 155.283 219.156C154.694 219.416 154.084 219.676 153.443 219.956C152.802 220.236 152.108 220.466 151.404 220.726C150.006 221.286 148.45 221.736 146.831 222.236C143.562 223.146 139.893 223.926 135.983 224.386C132.072 224.806 128.309 224.866 124.903 224.706C123.201 224.576 121.582 224.486 120.089 224.256C119.343 224.146 118.607 224.076 117.924 223.956C117.24 223.826 116.578 223.706 115.937 223.586C114.665 223.376 113.551 223.056 112.563 222.816C111.564 222.586 110.734 222.326 110.05 222.096C109.42 221.886 108.904 221.716 108.484 221.576C108.127 221.456 107.948 221.376 107.948 221.366C107.948 221.356 108.148 221.386 108.516 221.476C108.936 221.586 109.462 221.726 110.103 221.896C110.786 222.096 111.627 222.326 112.626 222.526C113.614 222.736 114.739 223.036 116 223.216C116.631 223.326 117.293 223.436 117.976 223.556C118.659 223.666 119.385 223.726 120.131 223.826C121.624 224.036 123.232 224.116 124.914 224.226C128.288 224.356 132.02 224.286 135.899 223.866C139.778 223.406 143.415 222.646 146.663 221.776C148.271 221.286 149.816 220.856 151.214 220.326C151.919 220.066 152.602 219.846 153.243 219.586C153.884 219.316 154.494 219.066 155.083 218.816C156.271 218.356 157.28 217.816 158.194 217.396C159.109 216.976 159.876 216.565 160.496 216.225C161.085 215.915 161.558 215.665 161.937 215.465C162.273 215.295 162.452 215.215 162.462 215.225H162.515Z" fill="#EBEBEB"/>
<path d="M159.498 249.766C159.498 249.766 159.004 249.556 158.131 249.106C157.196 248.606 155.955 247.946 154.431 247.126C151.225 245.366 146.841 242.966 141.785 240.196L141.628 240.106L141.659 239.936C142.111 237.796 142.595 235.505 143.089 233.145C143.856 229.585 144.581 226.205 145.244 223.115C145.591 221.575 145.874 220.105 146.19 218.735C146.526 217.365 146.947 216.095 147.535 215.015C148.692 212.825 150.542 211.635 151.877 211.225C152.56 211.015 153.117 210.965 153.485 210.975C153.853 210.975 154.053 211.015 154.053 211.035C154.053 211.105 153.254 210.965 151.95 211.425C150.678 211.875 148.944 213.065 147.882 215.185C147.335 216.235 146.936 217.475 146.631 218.825C146.347 220.205 146.053 221.665 145.738 223.205C145.086 226.295 144.371 229.685 143.625 233.245C143.12 235.605 142.626 237.896 142.174 240.036L142.048 239.776C147.062 242.606 151.414 245.066 154.589 246.866C156.081 247.736 157.301 248.436 158.215 248.966C159.056 249.466 159.508 249.746 159.487 249.776L159.498 249.766Z" fill="#263238"/>
<path d="M164.648 231.355C164.711 231.355 164.732 232.375 164.564 234.025C164.396 235.665 164.028 237.925 163.355 240.355C162.683 242.795 161.831 244.925 161.127 246.435C160.423 247.945 159.887 248.826 159.823 248.796C159.75 248.766 160.16 247.825 160.77 246.295C161.379 244.765 162.157 242.635 162.83 240.225C163.492 237.815 163.923 235.595 164.186 233.975C164.449 232.355 164.575 231.345 164.659 231.355H164.648Z" fill="#263238"/>
<path d="M73.4485 390.379L73.2593 405.65C73.2593 405.65 56.8819 410.6 56.5665 413.42L87.671 414.83L88.9849 391.049L73.4485 390.389V390.379Z" fill="#455A64"/>
<path d="M82.9401 404.799C83.5393 404.979 83.9177 405.65 83.7495 406.22C83.5813 406.79 82.877 407.17 82.2778 407C81.6787 406.83 81.1951 406.04 81.4264 405.489C81.6576 404.939 82.5196 404.539 83.0557 404.839" fill="#E0E0E0"/>
<path d="M87.6705 414.82L87.702 412.42L57.8695 411.97C57.8695 411.97 56.4609 412.48 56.566 413.42L87.6705 414.83V414.82Z" fill="#E0E0E0"/>
<path d="M72.7649 405.47C72.7649 405.61 73.5217 405.71 74.247 406.21C74.9829 406.69 75.3403 407.33 75.4769 407.28C75.6136 407.26 75.4349 406.38 74.5519 405.8C73.6689 405.2 72.7439 405.33 72.7649 405.47Z" fill="#263238"/>
<path d="M69.443 406.61C69.401 406.75 70.0422 407.02 70.5362 407.66C71.0408 408.28 71.1354 408.95 71.2931 408.95C71.4297 408.98 71.5769 408.14 70.9672 407.36C70.3575 406.58 69.464 406.48 69.4535 406.61H69.443Z" fill="#263238"/>
<path d="M67.4038 410.24C67.5404 410.28 67.7927 409.56 67.4353 408.76C67.0884 407.95 66.3946 407.6 66.321 407.72C66.2264 407.83 66.6679 408.28 66.9412 408.95C67.2356 409.61 67.2461 410.22 67.3932 410.24H67.4038Z" fill="#263238"/>
<path d="M73.2169 401.999C73.2694 402.129 73.9842 401.969 74.8357 402.059C75.6976 402.139 76.3494 402.439 76.4335 402.319C76.5281 402.219 75.8974 401.659 74.8882 401.559C73.8791 401.459 73.1433 401.879 73.2169 401.999Z" fill="#263238"/>
<g opacity="0.3">
<path d="M73.4166 393.4L73.3745 396.12L88.6692 396.68L88.8164 394.24L73.4166 393.4Z" fill="black"/>
</g>
<path d="M73.3113 398.92C73.3113 398.98 73.9 399.1 74.8671 398.98C75.3506 398.92 75.9182 398.8 76.5174 398.58C76.8223 398.47 77.1271 398.33 77.4319 398.17C77.5791 398.09 77.7578 398.01 77.9155 397.84C78.0942 397.7 78.2098 397.32 78.0206 397.07C77.8734 396.84 77.6001 396.72 77.3689 396.71C77.1376 396.69 76.9484 396.73 76.7802 396.76C76.4333 396.82 76.0969 396.92 75.7921 397.03C75.1824 397.26 74.6884 397.56 74.3099 397.86C73.5531 398.46 73.2798 398.99 73.3323 399.02C73.3954 399.07 73.7738 398.63 74.5307 398.14C74.9091 397.9 75.3926 397.65 75.9603 397.46C76.2441 397.37 76.5489 397.29 76.8643 397.24C77.2007 397.17 77.474 397.18 77.5581 397.33C77.5896 397.38 77.5896 397.41 77.516 397.49C77.4424 397.57 77.3058 397.65 77.1586 397.73C76.8748 397.89 76.591 398.02 76.3177 398.14C75.7606 398.37 75.235 398.52 74.783 398.62C73.8789 398.82 73.2903 398.83 73.2903 398.91L73.3113 398.92Z" fill="#263238"/>
<path d="M73.5007 399.14C73.5532 399.16 73.8791 398.66 73.9842 397.73C74.0368 397.27 74.0157 396.7 73.8475 396.1C73.7635 395.8 73.6478 395.49 73.5007 395.18C73.3325 394.88 73.1327 394.48 72.5441 394.39C72.2392 394.37 71.9659 394.58 71.8713 394.77C71.7557 394.97 71.7347 395.14 71.6821 395.31C71.6085 395.65 71.598 395.99 71.6296 396.31C71.6926 396.94 71.9449 397.48 72.2182 397.87C72.7859 398.66 73.4166 398.87 73.4271 398.82C73.4796 398.75 72.9646 398.45 72.5336 397.69C72.3233 397.32 72.1446 396.83 72.1131 396.28C72.0921 396 72.1131 395.71 72.1867 395.43C72.2498 395.12 72.3864 394.87 72.5125 394.91C72.6702 394.91 72.9225 395.16 73.0381 395.42C73.1853 395.69 73.3009 395.97 73.385 396.24C73.5532 396.78 73.6163 397.3 73.6163 397.73C73.6163 398.6 73.4271 399.13 73.5112 399.16L73.5007 399.14Z" fill="#263238"/>
<path d="M136.834 279.867C136.834 279.867 88.2591 260.486 73.2167 259.656C63.7876 259.136 56.6501 264.896 57.9325 274.186C58.5737 278.827 71.9973 333.198 71.9973 333.198L92.4743 324.298L82.6353 286.707L122.538 305.157L136.834 279.857V279.867Z" fill="#263238"/>
<path d="M76.5069 277.197C76.3493 277.327 77.9576 279.297 79.65 281.907C81.3529 284.517 82.4881 286.768 82.6774 286.688C82.8561 286.628 81.9941 284.207 80.2596 281.547C78.5357 278.877 76.6436 277.067 76.5069 277.187V277.197Z" fill="#455A64"/>
<path d="M72.5334 279.357C72.4283 279.527 74.888 281.007 77.7578 283.027C80.638 285.037 82.856 286.817 82.9927 286.677C83.1188 286.547 81.1005 284.517 78.1782 282.477C75.2665 280.437 72.6175 279.197 72.5334 279.357Z" fill="#455A64"/>
<path d="M174.74 291.527C174.74 291.527 168.633 299.017 162.798 301.067C155.482 303.637 101.346 327.938 101.346 327.938C101.346 327.938 91.5284 397.32 92.3063 394.43L69.6533 393.91L72.1131 329.998C72.4074 321.808 79.3032 312.418 86.7035 308.237L136.824 279.867L174.729 291.527H174.74Z" fill="#263238"/>
<path d="M71.6821 341.689C71.6821 341.689 71.7346 341.389 71.7767 340.809C71.8082 340.169 71.8608 339.329 71.9133 338.299C72.0395 336.118 72.1656 332.948 72.8068 329.108C73.4796 325.298 74.699 320.698 77.7053 316.438C79.198 314.318 81.1953 312.398 83.5289 310.718C85.8625 309.038 88.4904 307.558 91.213 306.088C102.114 300.148 111.522 294.087 118.481 289.937C121.95 287.837 124.767 286.167 126.722 285.027C127.647 284.487 128.393 284.047 128.971 283.707C129.487 283.397 129.749 283.227 129.739 283.207C129.728 283.187 129.444 283.317 128.908 283.587C128.372 283.857 127.584 284.257 126.585 284.797C124.577 285.867 121.718 287.477 118.218 289.527C111.185 293.577 101.735 299.577 90.8661 305.498C88.1436 306.968 85.4841 308.458 83.1084 310.188C80.7327 311.908 78.6829 313.898 77.1587 316.088C74.1103 320.488 72.9225 325.178 72.3128 329.028C71.7346 332.918 71.6821 336.098 71.64 338.279C71.64 339.319 71.64 340.149 71.64 340.799C71.64 341.379 71.6716 341.679 71.6926 341.679L71.6821 341.689Z" fill="#455A64"/>
<path d="M154.746 298.847C154.83 298.757 154.168 298.177 153.359 297.067C152.549 295.967 151.645 294.287 151.214 292.287C150.794 290.277 150.931 288.397 151.235 287.087C151.53 285.767 151.898 284.987 151.792 284.937C151.729 284.897 151.193 285.617 150.752 286.967C150.31 288.307 150.069 290.297 150.521 292.427C150.973 294.547 152.003 296.297 152.959 297.367C153.916 298.447 154.704 298.907 154.746 298.847Z" fill="#455A64"/>
<path d="M77.9785 393.91C77.9785 393.91 78.0101 393.79 78.0521 393.56C78.0836 393.29 78.1362 392.94 78.1888 392.51C78.2939 391.539 78.4515 390.179 78.6408 388.469C79.0087 384.909 79.5343 379.839 80.1755 373.599C80.4908 370.449 80.8377 367.019 81.2056 363.329C81.5841 359.639 81.973 355.689 82.2778 351.528C82.6142 347.378 83.0347 343.018 83.8231 338.558C84.643 334.118 85.8624 329.548 87.9858 325.218C90.0671 320.868 93.0209 317.068 96.206 313.747C99.4436 310.447 102.944 307.617 106.466 305.147C113.508 300.217 120.457 296.617 126.186 293.437C131.936 290.297 136.519 287.617 139.567 285.597C141.102 284.597 142.258 283.787 143.036 283.217C143.393 282.947 143.677 282.737 143.909 282.567C144.098 282.417 144.203 282.337 144.192 282.327C144.192 282.327 144.077 282.377 143.867 282.517C143.625 282.677 143.33 282.867 142.952 283.117C142.153 283.647 140.965 284.427 139.42 285.387C136.33 287.337 131.725 289.937 125.944 293.027C120.194 296.147 113.204 299.707 106.087 304.647C102.534 307.117 98.9916 309.957 95.7014 313.297C92.4638 316.658 89.4679 320.508 87.3445 324.938C85.1896 329.348 83.9597 333.968 83.1398 338.448C82.3514 342.938 81.9415 347.318 81.6261 351.478C81.3423 355.639 80.9744 359.589 80.6275 363.279C80.2911 366.969 79.9758 370.409 79.6919 373.559C79.1453 379.809 78.6933 384.879 78.378 388.449C78.2413 390.169 78.1362 391.52 78.0626 392.5C78.0311 392.93 78.0101 393.28 77.9995 393.56C77.989 393.8 77.9995 393.92 77.9995 393.92L77.9785 393.91Z" fill="#455A64"/>
<path d="M131.316 169.804C129.917 166.034 125.271 163.653 121.193 164.623C120.257 164.844 119.332 165.224 118.375 165.204C117.188 165.184 116.115 164.563 114.949 164.343C112.447 163.863 109.714 165.554 109.146 167.924C107.159 167.534 104.952 167.804 103.365 169.014C101.788 170.224 101.052 172.494 102.019 174.194C102.429 174.924 103.102 175.504 103.48 176.254C104.1 177.484 103.817 178.964 104.248 180.264C104.889 182.194 107.033 183.384 109.146 183.614C111.259 183.844 113.372 183.294 115.422 182.754" fill="#263238"/>
<path d="M121.571 209.354C121.308 207.424 121.13 206.064 121.13 206.064C121.13 206.064 114.36 206.024 111.627 198.034C110.271 194.064 109.367 187.354 108.82 181.844C108.326 176.883 112.268 172.523 117.503 172.263L135.499 171.363L135.888 174.013L140.629 206.934C141.354 211.954 137.644 216.574 132.356 217.234C127.09 217.894 122.275 214.354 121.582 209.354H121.571Z" fill="#FFC7B1"/>
<path d="M111.354 186.563C111.427 187.123 111.984 187.524 112.594 187.464C113.204 187.404 113.645 186.903 113.572 186.343C113.498 185.783 112.941 185.383 112.331 185.443C111.722 185.503 111.28 186.003 111.354 186.563Z" fill="#263238"/>
<path d="M110.912 185.083C111.07 185.203 111.806 184.483 112.994 184.303C114.181 184.113 115.149 184.563 115.254 184.403C115.306 184.333 115.127 184.103 114.707 183.903C114.287 183.693 113.614 183.543 112.867 183.653C112.132 183.773 111.553 184.123 111.238 184.443C110.912 184.763 110.839 185.033 110.912 185.083Z" fill="#263238"/>
<path d="M122.643 184.744C122.717 185.304 123.274 185.704 123.884 185.644C124.493 185.584 124.935 185.084 124.861 184.524C124.788 183.964 124.231 183.564 123.621 183.624C123.011 183.684 122.57 184.184 122.643 184.744Z" fill="#263238"/>
<path d="M122.622 183.533C122.78 183.653 123.526 182.933 124.704 182.753C125.891 182.563 126.859 183.013 126.964 182.853C127.016 182.783 126.838 182.553 126.417 182.353C125.997 182.143 125.324 181.993 124.577 182.103C123.842 182.223 123.264 182.573 122.948 182.893C122.633 183.213 122.549 183.483 122.622 183.533Z" fill="#263238"/>
<path d="M119.711 192.564C119.711 192.494 118.943 192.494 117.724 192.524C117.419 192.544 117.114 192.524 117.03 192.334C116.925 192.134 116.999 191.804 117.093 191.444C117.261 190.704 117.44 189.924 117.619 189.114C118.344 185.794 118.817 183.084 118.67 183.064C118.533 183.034 117.829 185.704 117.104 189.024C116.936 189.844 116.767 190.624 116.61 191.364C116.547 191.714 116.41 192.114 116.641 192.524C116.757 192.724 117.009 192.854 117.209 192.874C117.409 192.904 117.587 192.874 117.734 192.874C118.954 192.754 119.7 192.644 119.69 192.584L119.711 192.564Z" fill="#263238"/>
<path d="M121.13 206.064C121.13 206.064 126.985 205.544 132.167 201.394C132.167 201.394 130.306 207.444 121.571 207.984L121.13 206.064Z" fill="#AA6550"/>
<path d="M123.337 192.814C123.137 192.834 123.337 194.064 122.391 195.094C121.434 196.134 120.036 196.204 120.057 196.374C120.057 196.454 120.404 196.564 120.982 196.494C121.55 196.424 122.359 196.124 122.948 195.494C123.537 194.854 123.705 194.104 123.663 193.594C123.631 193.074 123.432 192.794 123.348 192.814H123.337Z" fill="#263238"/>
<path d="M121.571 179.144C121.739 179.434 122.906 179.104 124.325 179.054C125.744 178.974 126.932 179.194 127.069 178.894C127.132 178.754 126.89 178.494 126.386 178.264C125.881 178.034 125.124 177.864 124.273 177.904C123.421 177.944 122.675 178.184 122.202 178.454C121.718 178.724 121.508 179.004 121.582 179.144H121.571Z" fill="#263238"/>
<path d="M110.796 181.743C111.049 181.963 111.827 181.573 112.804 181.413C113.782 181.223 114.654 181.313 114.801 181.013C114.865 180.873 114.686 180.633 114.286 180.443C113.887 180.253 113.256 180.153 112.583 180.273C111.911 180.393 111.364 180.713 111.07 181.033C110.765 181.353 110.691 181.633 110.807 181.743H110.796Z" fill="#263238"/>
<path d="M107.916 178.254C107.916 178.254 112.678 179.784 118.144 176.304C121.729 174.024 126.081 172.593 127.163 173.213C128.246 173.823 128.95 177.564 132.892 178.194C132.892 178.194 133.586 185.394 136.551 184.774C138.663 184.334 137.434 176.394 136.551 171.863C136.193 170.053 134.564 168.713 132.619 168.643L127.079 168.443L120.163 170.283L112.741 172.203L107.096 174.434L107.906 178.254H107.916Z" fill="#263238"/>
<path d="M135.899 181.864C136.014 181.784 140.608 179.494 141.459 184.264C142.311 189.034 137.097 188.864 137.065 188.724C137.034 188.584 135.899 181.864 135.899 181.864Z" fill="#FFC7B1"/>
<path d="M138.274 186.665C138.274 186.665 138.369 186.705 138.527 186.745C138.684 186.785 138.937 186.785 139.178 186.655C139.672 186.384 139.977 185.514 139.851 184.644C139.788 184.204 139.62 183.814 139.399 183.494C139.189 183.174 138.905 182.964 138.632 182.964C138.358 182.944 138.19 183.134 138.159 183.274C138.117 183.414 138.159 183.504 138.138 183.524C138.127 183.534 138.012 183.464 138.022 183.254C138.022 183.154 138.064 183.034 138.169 182.924C138.274 182.814 138.443 182.734 138.632 182.724C139.021 182.684 139.431 182.974 139.672 183.314C139.935 183.664 140.135 184.104 140.208 184.594C140.345 185.564 139.988 186.545 139.304 186.855C138.968 186.995 138.653 186.945 138.485 186.855C138.306 186.765 138.264 186.655 138.274 186.645V186.665Z" fill="#AA6550"/>
<path d="M110.323 166.164C110.323 166.164 110.502 166.414 110.849 166.804C111.196 167.194 111.827 167.664 112.741 167.964C113.656 168.274 114.822 168.354 116.084 168.104C117.345 167.874 118.68 167.364 120.131 166.884C121.571 166.404 123.053 166.064 124.43 166.154C125.807 166.214 127.006 166.814 127.689 167.554C128.404 168.284 128.688 169.094 128.688 169.644C128.709 170.194 128.561 170.484 128.54 170.474C128.488 170.474 128.561 170.174 128.477 169.664C128.404 169.164 128.099 168.444 127.416 167.814C126.743 167.164 125.681 166.674 124.399 166.644C123.127 166.584 121.729 166.914 120.31 167.384C118.891 167.854 117.513 168.374 116.178 168.584C114.854 168.824 113.572 168.694 112.615 168.314C111.648 167.954 111.007 167.394 110.681 166.934C110.355 166.484 110.292 166.174 110.323 166.164Z" fill="#455A64"/>
<path d="M127.258 170.734C127.258 170.734 127.006 170.484 126.48 170.134C125.965 169.784 125.093 169.454 123.957 169.424C122.822 169.374 121.498 169.684 120.131 170.314C118.754 170.914 117.314 171.804 115.569 172.344C112.047 173.424 108.589 172.544 106.592 171.414C105.562 170.854 104.836 170.254 104.384 169.804C103.932 169.344 103.722 169.064 103.754 169.044C103.838 168.964 104.742 170.084 106.781 171.094C108.768 172.104 112.068 172.884 115.411 171.854C117.062 171.344 118.502 170.484 119.931 169.884C121.34 169.264 122.79 168.954 123.989 169.064C125.187 169.144 126.123 169.564 126.617 169.984C127.132 170.404 127.29 170.734 127.268 170.744L127.258 170.734Z" fill="#455A64"/>
<path d="M111.69 251.995L87.2817 232.205L79.2296 233.935C79.2296 233.935 87.7126 250.715 93.8515 256.865C93.8515 256.865 99.9169 264.595 109.924 261.255C119.931 257.915 111.69 252.005 111.69 252.005V251.995Z" fill="#FFC7B1"/>
<path d="M85.442 210.404H75.0669C73.5006 210.404 72.092 212.134 72.6597 213.554L83.0979 232.885C83.4973 233.635 84.3173 234.105 85.2002 234.105L97.846 234.075C99.2966 233.885 99.8222 232.355 99.223 231.525L89.1527 212.594C88.4589 211.244 87.0188 210.394 85.442 210.394V210.404Z" fill="#455A64"/>
<path d="M84.7377 211.564H74.3626C73.0591 211.564 72.2182 212.864 72.8173 213.964L83.0033 232.875C83.4027 233.625 84.2227 234.095 85.1056 234.095H97.6147C98.3821 234.095 98.8761 233.335 98.5292 232.685L88.4589 213.754C87.7651 212.404 86.325 211.554 84.7482 211.554L84.7377 211.564Z" fill="#263238"/>
<path d="M83.8549 219.484L77.5373 221.884L76.1813 226.725L79.2192 233.925L90.3722 235.465L87.103 232.285L87.5235 229.515C87.5235 229.515 90.635 228.585 90.7086 228.135C90.7822 227.685 90.3197 226.165 89.8466 226.085C89.3736 226.015 86.1044 227.165 86.1044 227.165C86.1044 227.165 89.9728 224.254 89.8571 223.784C89.752 223.314 89.3315 222.124 88.5642 221.984C87.7968 221.854 81.5528 224.644 81.5528 224.644L80.5437 226.845L79.6607 223.334C79.6607 223.334 85.2004 221.854 83.8339 219.464L83.8549 219.484Z" fill="#FFC7B1"/>
<path d="M84.6537 230.835C84.6537 230.835 84.496 230.625 84.4435 230.235C84.3804 229.845 84.412 229.285 84.6327 228.715C84.8535 228.145 85.2214 227.705 85.5262 227.445C85.8416 227.185 86.0728 227.095 86.0938 227.125C86.1569 227.195 85.337 227.755 84.9375 228.825C84.5171 229.875 84.7483 230.815 84.6537 230.835Z" fill="#AA6550"/>
<path d="M81.6475 229.785C81.6475 229.785 81.8367 229.195 81.8997 228.215C81.9523 227.725 81.9733 227.115 82.2151 226.475C82.3412 226.155 82.5094 225.825 82.7932 225.545C83.0771 225.265 83.445 225.075 83.8234 224.925C85.3371 224.405 86.6931 223.985 87.6918 223.675C88.6904 223.375 89.3106 223.205 89.3211 223.245C89.3316 223.285 88.7429 223.525 87.7653 223.875C86.7982 224.235 85.4317 224.695 83.9495 225.205C83.5921 225.345 83.2663 225.515 83.0245 225.745C82.7827 225.975 82.6145 226.275 82.4989 226.565C82.2571 227.155 82.2046 227.745 82.131 228.235C82.0049 229.235 81.6895 229.805 81.6475 229.785Z" fill="#AA6550"/>
<path d="M80.1969 228.695C80.1128 228.685 80.1233 228.155 80.2389 227.515C80.3546 226.875 80.5122 226.365 80.5963 226.385C80.6804 226.395 80.6699 226.925 80.5543 227.565C80.4387 228.205 80.281 228.715 80.1969 228.695Z" fill="#AA6550"/>
<path d="M80.0286 215.215C80.0286 215.905 80.6172 216.475 81.3531 216.475C82.0889 216.475 82.6775 215.915 82.6775 215.215C82.6775 214.515 82.0889 213.955 81.3531 213.955C80.6172 213.955 80.0286 214.515 80.0286 215.215Z" fill="#FAFAFA"/>
<path d="M128.832 142.747C129.504 138.046 122.544 134.193 117.305 133.791C114.802 133.598 112.222 133.97 109.844 133.181C104.714 131.485 102.665 125.177 97.6757 123.184C93.9376 121.681 89.6364 123.02 86.0078 124.761C82.3792 126.501 78.7975 128.673 74.7466 128.926C71.2274 129.135 67.3955 127.9 64.3143 129.536C62.0151 130.756 60.8108 133.27 58.6993 134.758C56.6347 136.216 53.9289 136.514 51.3638 136.648C48.7988 136.781 46.1399 136.811 43.7938 137.823C41.4477 138.835 39.5239 141.2 40.0087 143.595L128.832 142.762V142.747Z" fill="#EBEBEB"/>
</g>
<defs>
<filter id="filter0_d_262_7889" x="-4" y="0" width="753" height="594" filterUnits="userSpaceOnUse" color-interpolation-filters="sRGB">
<feFlood flood-opacity="0" result="BackgroundImageFix"/>
<feColorMatrix in="SourceAlpha" type="matrix" values="0 0 0 0 0 0 0 0 0 0 0 0 0 0 0 0 0 0 127 0" result="hardAlpha"/>
<feOffset dy="4"/>
<feGaussianBlur stdDeviation="2"/>
<feComposite in2="hardAlpha" operator="out"/>
<feColorMatrix type="matrix" values="0 0 0 0 0 0 0 0 0 0 0 0 0 0 0 0 0 0 0.25 0"/>
<feBlend mode="normal" in2="BackgroundImageFix" result="effect1_dropShadow_262_7889"/>
<feBlend mode="normal" in="SourceGraphic" in2="effect1_dropShadow_262_7889" result="shape"/>
</filter>
</defs>
</svg>
