<svg width="428" height="580" viewBox="0 0 428 580" fill="none" xmlns="http://www.w3.org/2000/svg">
<path d="M266.509 199.65C266.959 196.507 262.305 193.93 258.803 193.656C257.137 193.527 255.4 193.767 253.815 193.244C250.385 192.105 249.017 187.901 245.677 186.556C243.174 185.554 240.302 186.445 237.872 187.609C235.45 188.766 233.055 190.23 230.346 190.393C227.987 190.538 225.43 189.708 223.369 190.804C221.829 191.617 221.028 193.304 219.615 194.298C218.228 195.266 216.428 195.471 214.708 195.565C212.989 195.651 211.215 195.668 209.649 196.353C208.083 197.038 206.786 198.605 207.119 200.215L266.509 199.659V199.65Z" fill="#F5F5F5"/>
<path d="M281.437 421.984C281.701 418.988 281.269 415.11 277.596 413.955C271.379 411.999 267.694 407.413 267.898 402.232C268.102 397.039 261.561 391.995 256.652 396.856C251.743 401.717 252.403 393.116 245.861 391.023C239.32 388.93 233.775 394.008 235.563 398.641C237.351 403.273 230.894 406.166 223.164 402.232C215.435 398.286 206.925 405.457 208.569 411.073C210.213 416.689 208.869 417.306 203.972 415.442C200.023 413.932 193.554 417.1 192.834 421.996H281.437V421.984Z" fill="#E0E0E0"/>
<path d="M278.48 139.492C278.48 136.701 280.856 134.425 283.797 134.425C284.325 134.425 284.841 134.506 285.321 134.643C285.249 134.14 285.201 133.613 285.201 133.087C285.201 127.163 290.242 122.37 296.448 122.37C297.156 122.37 297.852 122.439 298.524 122.553C300.253 119.854 303.361 118.047 306.914 118.047C312.303 118.047 316.672 122.176 316.744 127.289C316.804 127.289 316.852 127.289 316.912 127.289C321.917 127.289 325.974 131.154 325.974 135.924C325.974 140.693 321.917 144.559 316.912 144.559H283.641C280.772 144.479 278.48 142.249 278.48 139.492Z" fill="#F5F5F5"/>
<path d="M397.618 167.525C397.618 165.787 399.095 164.38 400.919 164.38C401.243 164.38 401.567 164.426 401.867 164.517C401.819 164.197 401.795 163.877 401.795 163.556C401.795 159.874 404.928 156.888 408.793 156.888C409.237 156.888 409.669 156.934 410.077 157.003C411.157 155.322 413.09 154.201 415.298 154.201C418.647 154.201 421.36 156.763 421.408 159.942C421.444 159.942 421.48 159.942 421.504 159.942C424.612 159.942 427.133 162.344 427.133 165.306C427.133 168.269 424.612 170.671 421.504 170.671H400.823C399.047 170.613 397.618 169.229 397.618 167.525Z" fill="#F5F5F5"/>
<path d="M-78.5213 423.997V438.797H359.06V423.997C359.06 421.424 357.176 419.354 354.475 419.354H-73.9483C-76.6489 419.354 -78.5333 421.424 -78.5333 423.997H-78.5213Z" fill="#E0E0E0"/>
<path d="M334.118 419.354H306.908V438.797H334.118V419.354Z" fill="#F5F5F5"/>
<path d="M281.967 419.354H255.897V438.797H281.967V419.354Z" fill="#F5F5F5"/>
<path d="M230.955 419.354H203.745V438.797H230.955V419.354Z" fill="#F5F5F5"/>
<path d="M178.804 419.354H152.734V438.797H178.804V419.354Z" fill="#F5F5F5"/>
<path d="M127.793 419.354H101.723V438.797H127.793V419.354Z" fill="#F5F5F5"/>
<path d="M76.7812 419.354H49.5712V438.797H76.7812V419.354Z" fill="#F5F5F5"/>
<path d="M24.6296 419.354H-1.44019V438.797H24.6296V419.354Z" fill="#F5F5F5"/>
<path d="M210.983 229.863C212.156 221.77 200.144 215.105 191.119 214.421C186.818 214.094 182.345 214.718 178.262 213.365C169.426 210.434 165.906 199.574 157.273 196.122C150.829 193.533 143.415 195.839 137.159 198.83C130.918 201.82 124.74 205.584 117.749 206.015C111.68 206.387 105.08 204.245 99.7778 207.072C95.8207 209.169 93.7405 213.513 90.0962 216.072C86.5301 218.572 81.8692 219.107 77.4429 219.33C73.0166 219.554 68.4339 219.598 64.3986 221.354C60.3634 223.109 57.0319 227.171 57.8609 231.306L210.967 229.863H210.983Z" fill="#F5F5F5"/>
<path d="M112.75 169.293C113.479 164.543 106.021 160.631 100.417 160.23C97.7468 160.038 94.9695 160.404 92.4349 159.61C86.9482 157.89 84.7632 151.516 79.4027 149.49C75.4017 147.971 70.7987 149.324 66.9142 151.079C63.0395 152.834 59.2037 155.043 54.8628 155.297C51.0949 155.515 46.9968 154.257 43.7048 155.916C41.2479 157.148 39.9563 159.697 37.6936 161.199C35.4795 162.666 32.5856 162.98 29.8374 163.111C27.0892 163.242 24.2438 163.268 21.7384 164.299C19.2329 165.329 17.1645 167.713 17.6792 170.14L112.741 169.293H112.75Z" fill="#F5F5F5"/>
<path d="M333.886 471.94L202.819 471.368C187.051 471.302 174.331 459.088 174.4 444.089L175.791 131.494C175.86 116.484 188.698 104.374 204.475 104.439L335.543 105.012C351.31 105.077 364.03 117.291 363.961 132.291L362.571 444.895C362.501 459.905 349.663 472.015 333.886 471.94Z" fill="#455A64"/>
<path d="M335.355 115.809L309.944 115.696C306.533 115.677 303.762 118.417 303.752 121.803L303.732 126.184C303.722 129.57 300.942 132.31 297.54 132.291L248.01 132.075C244.598 132.056 241.847 129.298 241.867 125.912L241.886 121.531C241.896 118.145 239.155 115.377 235.743 115.368L226.809 115.33L204.564 115.237C193.52 115.19 184.527 123.67 184.478 134.176L183.117 439.295C183.068 449.801 191.982 458.347 203.016 458.394L333.827 458.966C344.871 459.013 353.864 450.533 353.913 440.027L355.274 134.908C355.323 124.402 346.409 115.856 335.375 115.809H335.355Z" fill="#EBEBEB"/>
<path d="M204.584 152.197C204.485 152.291 202.286 150.471 199.663 148.126C199.663 147.413 199.663 147.929 199.663 147.769H199.673L199.693 147.741L199.722 147.713L199.781 147.657L199.9 147.544L200.146 147.328C200.304 147.188 200.462 147.047 200.62 146.906C200.925 146.634 201.231 146.371 201.527 146.118C202.069 145.659 202.582 145.227 203.075 144.805C203.962 144.064 204.544 143.642 204.593 143.689C204.643 143.735 204.15 144.261 203.321 145.058C202.848 145.499 202.365 145.959 201.852 146.447L200.975 147.253L200.501 147.675L200.265 147.891L200.146 148.004L200.087 148.06L200.058 148.088H200.038V148.107H200.028C200.028 147.957 200.028 148.463 200.028 147.76C202.651 150.114 204.702 152.094 204.603 152.188L204.584 152.197Z" fill="#263238"/>
<path d="M340.877 145.039C340.877 145.602 340.394 146.053 339.812 146.053C339.23 146.053 338.747 145.593 338.747 145.039C338.747 144.486 339.23 144.026 339.812 144.026C340.394 144.026 340.877 144.486 340.877 145.039Z" fill="#263238"/>
<path d="M340.571 147.816C340.986 148.21 340.986 148.858 340.571 149.252C340.157 149.646 339.477 149.646 339.063 149.252C338.649 148.858 338.649 148.21 339.063 147.816C339.477 147.422 340.157 147.422 340.571 147.816Z" fill="#263238"/>
<path d="M340.877 152.038C340.877 152.6 340.394 153.051 339.812 153.051C339.23 153.051 338.747 152.591 338.747 152.038C338.747 151.484 339.23 151.024 339.812 151.024C340.394 151.024 340.877 151.484 340.877 152.038Z" fill="#263238"/>
<path d="M294.67 149.195H248.542V152.853H294.67V149.195Z" fill="#263238"/>
<path d="M349.867 314.659C329.391 320.753 308.251 327.071 287.969 333.165L306.466 365.975L349.867 367.372V377.086L300.253 375.485L278.063 336.144C268.615 338.988 259.423 341.763 250.629 344.412L270.574 385.888H259.362L240.835 347.382C219.991 353.699 202.025 359.211 189.333 363.19V352.981C193.067 351.816 197.24 350.516 201.811 349.109C211.503 346.12 223.123 342.568 236.56 338.493L219.277 302.539L189.333 311.593V301.413L215.002 293.65L208.126 279.346H219.338L246.354 335.523C256.985 332.311 268.605 328.808 281.185 325.033C288.5 322.84 295.815 320.637 303.028 318.483L284.072 279.346H295.315L312.842 315.542C326.024 311.602 338.624 307.847 349.867 304.489V314.659Z" fill="#F9FAFF"/>
<rect x="199" y="436" width="171" height="40" rx="6" fill="black"/>
<path d="M344.527 173.691H194.673C192.24 173.691 190.267 175.776 190.267 178.348V261.371C190.267 263.943 192.24 266.028 194.673 266.028H344.527C346.96 266.028 348.933 263.943 348.933 261.371V178.348C348.933 175.776 346.96 173.691 344.527 173.691Z" fill="#EBEBEB"/>
<path d="M309.133 180.317H230.526C228.494 180.317 226.847 181.887 226.847 183.823V255.886C226.847 257.823 228.494 259.392 230.526 259.392H309.133C311.165 259.392 312.812 257.823 312.812 255.886V183.823C312.812 181.887 311.165 180.317 309.133 180.317Z" fill="white"/>
<path d="M239.188 221.232H299.177L297.974 210.984L280.69 207.459L264.629 210.127L245.283 211.938L240.482 217.177L239.188 221.232Z" fill="#76C7E1"/>
<path opacity="0.2" d="M239.188 221.232H299.177L297.974 210.984L280.69 207.459L264.629 210.127L245.283 211.938L240.482 217.177L239.188 221.232Z" fill="black"/>
<path d="M255.876 221.232C255.876 224.574 253.036 227.281 249.528 227.281C246.021 227.281 243.181 224.574 243.181 221.232C243.181 217.89 246.021 215.184 249.528 215.184C253.036 215.184 255.876 217.89 255.876 221.232Z" fill="#76C7E1"/>
<path opacity="0.2" d="M249.528 225.278C251.873 225.278 253.773 223.466 253.773 221.232C253.773 218.998 251.873 217.187 249.528 217.187C247.184 217.187 245.283 218.998 245.283 221.232C245.283 223.466 247.184 225.278 249.528 225.278Z" fill="black"/>
<path d="M297.317 221.232C297.317 224.574 294.477 227.281 290.97 227.281C287.462 227.281 284.622 224.574 284.622 221.232C284.622 217.89 287.462 215.184 290.97 215.184C294.477 215.184 297.317 217.89 297.317 221.232Z" fill="#76C7E1"/>
<path opacity="0.2" d="M290.969 225.278C293.314 225.278 295.215 223.466 295.215 221.232C295.215 218.998 293.314 217.187 290.969 217.187C288.625 217.187 286.724 218.998 286.724 221.232C286.724 223.466 288.625 225.278 290.969 225.278Z" fill="black"/>
<path d="M303.271 215.848L302.573 220.577L298.672 221.752C298.672 221.752 298.571 213.758 290.08 213.758C281.59 213.758 282.681 223.283 282.681 223.283H281.196L278.396 222.137H260.061L258.464 223.283H257.382C257.382 223.283 258.282 213.758 249.528 213.758C240.775 213.758 241.887 223.283 241.887 223.283L236.884 221.232L236.388 216.426L238.481 215.183L238.986 212.265C239.209 212.101 239.441 211.947 239.673 211.803C245.526 208.065 253.531 207.565 253.531 207.565C260.414 200.89 263.204 199.946 263.204 199.946C279.002 198.896 294.073 200.514 294.073 200.514L298.672 206.13L299.753 206.967L300.875 207.844C301.573 210.897 301.371 213.758 301.371 213.758L303.271 215.848Z" fill="#407BFF"/>
<path opacity="0.6" d="M244.019 212.13L240.512 215.184H238.48L238.986 212.265C239.208 212.102 239.441 211.947 239.673 211.803L242.22 211.437L244.019 212.13Z" fill="white"/>
<path opacity="0.6" d="M301.37 213.758L300.097 213.305C300.097 210.772 298.5 208.23 298.5 208.23L299.753 206.968L300.875 207.844C301.572 210.897 301.37 213.758 301.37 213.758Z" fill="white"/>
<path d="M298.672 206.13C290.353 208.027 253.531 207.565 253.531 207.565C253.743 207.362 253.945 207.16 254.157 206.967C257.948 203.346 260.414 201.555 261.799 200.697C262.759 200.091 263.204 199.946 263.204 199.946C279.002 198.896 294.073 200.514 294.073 200.514L298.672 206.13Z" fill="#76C7E1"/>
<path opacity="0.2" d="M303.271 215.848L302.573 220.577L298.672 221.753C298.672 221.753 298.571 213.758 290.08 213.758C281.59 213.758 282.681 223.284 282.681 223.284H281.196L278.396 222.138H260.06L258.463 223.284H257.382C257.382 223.284 258.282 213.758 249.528 213.758C240.775 213.758 241.887 223.284 241.887 223.284L236.884 221.232L236.388 216.426H240.512C240.512 216.426 243.514 211.755 250.115 211.755C256.715 211.755 258.837 216.426 258.837 216.426H280.003C280.003 216.426 283.601 211.687 288.898 211.437C294.194 211.187 297.317 213.306 297.317 213.306H300.097L301.37 213.758L303.271 215.848Z" fill="black"/>
<path d="M349.352 210.483V223.409H328.651C328.651 223.409 330.026 218.988 331.097 215.983C331.623 214.49 332.078 213.334 332.25 213.248C334.989 211.822 341.417 210.965 349.352 210.483Z" fill="#76C7E1"/>
<path opacity="0.2" d="M349.352 210.483V223.409H328.651C328.651 223.409 330.026 218.988 331.097 215.983C331.623 214.49 332.078 213.334 332.25 213.248C334.989 211.822 341.417 210.965 349.352 210.483Z" fill="black"/>
<path d="M340.154 227.271C343.492 227.271 346.198 224.693 346.198 221.512C346.198 218.331 343.492 215.752 340.154 215.752C336.815 215.752 334.109 218.331 334.109 221.512C334.109 224.693 336.815 227.271 340.154 227.271Z" fill="#76C7E1"/>
<path opacity="0.2" d="M340.154 226.606C343.107 226.606 345.501 224.325 345.501 221.511C345.501 218.697 343.107 216.416 340.154 216.416C337.201 216.416 334.807 218.697 334.807 221.511C334.807 224.325 337.201 226.606 340.154 226.606Z" fill="white"/>
<path d="M341.579 204.984C344.54 203.26 347.098 201.853 349.352 200.717V225.114H347.381L347.047 223.409L346.279 219.47C345.824 217.11 343.671 215.405 341.154 215.405H338.739C336.404 215.405 334.362 216.879 333.725 219.017L332.421 223.409L331.916 225.114L323.719 224.102L324.76 217.466L324.922 216.416L326.519 215.405L329.652 208.547L332.563 207.68L341.579 204.984Z" fill="#407BFF"/>
<path opacity="0.7" d="M334.109 208.162L330.258 214.384L326.529 215.405L329.662 208.548L332.573 207.681C333.483 207.931 334.109 208.162 334.109 208.162Z" fill="white"/>
<path opacity="0.4" d="M349.352 202.422V206.14C347.219 206.169 345.137 206.063 343.348 205.754C343.348 205.754 346.239 204.107 349.352 202.422Z" fill="black"/>
<path opacity="0.2" d="M349.352 217.621V225.114H347.381L347.047 223.41L346.279 219.47C345.824 217.11 343.671 215.406 341.154 215.406H338.739C336.404 215.406 334.362 216.879 333.725 219.018L332.421 223.41L331.916 225.114L323.719 224.103L324.76 217.467L330.915 215.752L331.097 215.984L332.25 217.438C332.25 217.438 334.261 213.749 341.124 213.749C346.602 213.749 348.725 216.513 349.352 217.621Z" fill="black"/>
<path d="M284.511 251.726H255.159C252.52 251.726 250.388 249.694 250.388 247.18C250.388 244.666 252.52 242.634 255.159 242.634H284.511C287.149 242.634 289.282 244.666 289.282 247.18C289.282 249.694 287.149 251.726 284.511 251.726Z" fill="#407BFF"/>
<mask id="mask0_262_8626" style="mask-type:alpha" maskUnits="userSpaceOnUse" x="190" y="189" width="159" height="75">
<path d="M344.527 189.673H194.673C192.24 189.673 190.267 191.337 190.267 193.389V259.648C190.267 261.701 192.24 263.364 194.673 263.364H344.527C346.96 263.364 348.933 261.701 348.933 259.648V193.389C348.933 191.337 346.96 189.673 344.527 189.673Z" fill="white"/>
</mask>
<g mask="url(#mask0_262_8626)">
<path d="M143.782 221.767L210.764 221.867L210.78 212.437L143.798 212.337L143.782 221.767Z" fill="#455A64"/>
<path d="M214.268 205.49C214.268 205.49 212.592 205.668 212.296 205.487C211.622 205.074 196.961 199.455 184.364 199.439C174.26 199.426 165.163 201.977 156.313 207.595C156.313 207.595 145.538 208.726 141.33 211.726C140.345 212.269 138.338 214.408 139.104 219.271C139.592 222.373 142.019 222.504 145.334 222.433C145.334 222.433 144.1 213.015 152.926 213.734C160.424 214.347 158.989 223.054 158.989 223.054L196.559 223.109C196.559 223.109 196.724 219.242 196.883 218.304C197.201 216.427 199.653 213.352 204.231 213.809C209.252 214.311 210.923 218.669 210.601 222.347C210.601 222.347 215.898 223.436 216.614 219.383L217.877 219.009C217.877 219.009 218.363 210.601 213.95 207.065L214.898 206.465L214.268 205.488V205.49Z" fill="#407BFF"/>
<path d="M211.77 205.221C211.77 205.221 211.456 206.031 210.38 205.941C209.503 205.868 204.488 204.06 202.662 203.393C202.138 203.202 201.719 202.797 201.57 202.281C201.534 202.153 201.518 202.035 201.546 201.949C201.546 201.949 209.34 203.73 211.77 205.221Z" fill="#76C7E1"/>
<g opacity="0.3">
<path d="M204.34 205.941C204.34 205.941 204.868 206.378 204.338 206.895C203.808 207.411 201.274 209.204 200.097 209.312C198.92 209.42 163.191 211.69 161.074 211.114C158.956 210.537 157.722 209.517 158.252 208.935L159.213 208.634L176.058 208.961L204.341 205.941H204.34Z" fill="white"/>
</g>
<g opacity="0.7">
<path d="M217.338 213.168C217.338 213.168 215.258 213.755 214.37 212.194C213.483 210.634 212.503 208.984 212.503 208.628C212.503 208.18 212.838 206.744 213.951 207.036C213.951 207.036 217.043 209.379 217.338 213.168Z" fill="white"/>
</g>
<path d="M203.986 205.941C203.986 205.941 200.863 208.527 199.509 208.525C198.156 208.523 162.486 210.582 160.898 209.971C159.311 209.361 158.485 208.861 158.485 208.861C158.485 208.861 170.124 200.886 183.689 201.27C193.643 201.55 203.986 205.94 203.986 205.94V205.941Z" fill="#76C7E1"/>
<path d="M207.603 224.718C209.938 222.497 209.938 218.897 207.603 216.677C205.269 214.456 201.485 214.456 199.151 216.677C196.817 218.897 196.817 222.497 199.151 224.718C201.485 226.938 205.269 226.938 207.603 224.718Z" fill="#76C7E1"/>
<path d="M203.384 216.91C201.184 216.907 199.404 218.601 199.399 220.693C199.396 222.78 201.171 224.48 203.37 224.484C205.569 224.487 207.35 222.793 207.355 220.706C207.358 218.614 205.583 216.914 203.384 216.912V216.91ZM200.189 220.695C200.192 219.019 201.621 217.659 203.382 217.662C205.143 217.665 206.568 219.03 206.565 220.705C206.562 222.38 205.133 223.735 203.372 223.732C201.61 223.73 200.186 222.37 200.189 220.695Z" fill="#1E282D"/>
<path d="M203.382 217.66C201.621 217.657 200.192 219.019 200.189 220.693C200.186 222.368 201.612 223.728 203.372 223.73C205.133 223.733 206.562 222.377 206.565 220.703C206.568 219.029 205.142 217.663 203.382 217.66Z" fill="#1E282D"/>
</g>
<path opacity="0.2" d="M219.434 226.141L224.357 232.401V219.89L219.434 226.141Z" fill="black"/>
<path opacity="0.2" d="M320.224 226.141L315.302 219.89V232.401L320.224 226.141Z" fill="black"/>
<path d="M212.258 373.285H202.441V471.13H212.258V373.285Z" fill="#263238"/>
<path opacity="0.2" d="M212.258 373.285H202.441V471.13H212.258V373.285Z" fill="black"/>
<path d="M282.539 373.285H272.722V471.13H282.539V373.285Z" fill="#263238"/>
<path opacity="0.2" d="M282.539 373.285H272.722V471.13H282.539V373.285Z" fill="black"/>
<path d="M118.545 373.285H108.728V471.13H118.545V373.285Z" fill="#263238"/>
<path d="M48.2643 373.285H38.4473V471.13H48.2643V373.285Z" fill="#263238"/>
<path d="M302.657 369.667V376.904C302.657 378.072 301.674 379.021 300.449 379.021H29.1553C27.9299 379.021 26.9333 378.072 26.9333 376.904V369.667C26.9333 368.512 27.9299 367.562 29.1553 367.562H300.449C301.674 367.562 302.657 368.512 302.657 369.667Z" fill="#263238"/>
<path opacity="0.1" d="M302.657 369.667V376.904C302.657 378.072 301.674 379.021 300.449 379.021H29.1553C27.9299 379.021 26.9333 378.072 26.9333 376.904V369.667C26.9333 368.512 27.9299 367.562 29.1553 367.562H300.449C301.674 367.562 302.657 368.512 302.657 369.667Z" fill="white"/>
<path opacity="0.2" d="M103.517 369.667V376.904C103.517 378.072 102.534 379.021 101.308 379.021H29.1553C27.9299 379.021 26.9333 378.072 26.9333 376.904V369.667C26.9333 368.512 27.9299 367.562 29.1553 367.562H101.308C102.534 367.562 103.517 368.512 103.517 369.667Z" fill="white"/>
<path d="M168.691 281.458L180.378 261.761L186.448 261.012C186.448 261.012 185.04 274.751 182.414 280.522C182.414 280.522 180.264 287.374 172.402 287.476C164.54 287.578 168.693 281.465 168.693 281.465L168.691 281.458Z" fill="#FFC7B1"/>
<path d="M162.989 255.301C167.688 258.506 166.884 267.495 168.732 270.065C170.354 281.141 174.137 272.121 174.137 272.121L184.406 273.664C184.406 273.664 184.991 279.547 179.542 287.031C174.093 294.529 163.712 293.424 158.013 281.396C152.313 269.368 163.003 255.301 163.003 255.301H162.989Z" fill="#407BFF"/>
<path d="M162.989 255.301C167.688 258.506 166.884 267.495 168.732 270.065C170.354 281.141 174.137 272.121 174.137 272.121L184.406 273.664C184.406 273.664 184.991 279.547 179.542 287.031C174.093 294.529 163.712 293.424 158.013 281.396C152.313 269.368 163.003 255.301 163.003 255.301H162.989Z" fill="#6695FF"/>
<path d="M224.766 464.144L234.149 461.693L232.467 439.89L223.112 442.353L224.766 464.144Z" fill="#EBB376"/>
<path d="M234.719 460.501L223.848 461.216C223.473 461.216 223.167 461.521 223.181 461.891L223.251 470.144C223.32 471.031 224.126 471.72 225.058 471.667C228.853 471.363 230.646 471.031 235.428 470.674C238.361 470.475 244.186 470.343 248.161 469.455C252.137 468.581 251.108 464.859 249.357 464.898C245.172 464.965 239.32 462.779 236.443 460.911C235.942 460.593 235.344 460.448 234.733 460.487L234.719 460.501Z" fill="#263238"/>
<path d="M238.264 461.852C237.388 461.891 236.512 461.838 235.65 461.693C235.567 461.693 235.483 461.626 235.469 461.547C235.456 461.467 235.469 461.375 235.539 461.322C235.831 461.096 238.458 459.136 239.668 459.494C239.946 459.586 240.168 459.798 240.238 460.077C240.432 460.487 240.349 460.964 240.043 461.295C239.542 461.693 238.903 461.891 238.25 461.865L238.264 461.852ZM239.542 459.931C238.889 459.732 237.332 460.62 236.262 461.375C238.013 461.587 239.292 461.454 239.709 460.99C239.89 460.765 239.932 460.474 239.82 460.209C239.793 460.076 239.681 459.971 239.542 459.931Z" fill="#263238"/>
<path d="M235.706 461.692C235.706 461.692 235.65 461.719 235.608 461.706C235.539 461.679 235.497 461.613 235.469 461.547C235.469 461.467 235.039 458.791 235.942 457.824C236.192 457.573 236.526 457.44 236.887 457.467C237.29 457.453 237.638 457.705 237.749 458.063C238.041 459.056 236.734 461.083 235.817 461.692C235.775 461.706 235.734 461.706 235.692 461.692H235.706ZM236.776 457.93C236.595 457.93 236.429 458.023 236.304 458.156C235.761 458.725 235.803 460.262 235.886 461.123C236.665 460.394 237.485 458.871 237.332 458.209C237.304 458.089 237.207 457.944 236.887 457.93H236.776Z" fill="#263238"/>
<path opacity="0.2" d="M223.112 442.352L232.467 439.902L233.426 452.367L224.015 454.367L223.112 442.352Z" fill="black"/>
<path d="M212.519 463.825L203.664 467.666L201.412 458.606L198.381 446.419L207.209 442.564L210.239 454.738L212.519 463.825Z" fill="#EBB376"/>
<path opacity="0.2" d="M210.239 454.738L201.412 458.606L198.381 446.419L207.209 442.564L210.239 454.738Z" fill="black"/>
<path d="M212.88 462.568L202.26 464.925C201.884 464.992 201.634 465.336 201.704 465.694L203.149 473.827C203.358 474.701 204.275 475.244 205.193 475.059C208.891 474.171 210.6 473.575 215.257 472.502C218.121 471.853 223.848 470.847 227.629 469.376C231.41 467.906 229.77 464.396 228.046 464.7C223.931 465.402 217.787 464.131 214.632 462.727C214.076 462.488 213.464 462.435 212.88 462.568Z" fill="#263238"/>
<path d="M216.606 463.361C215.744 463.534 214.882 463.613 214.006 463.6C213.923 463.6 213.839 463.56 213.798 463.481C213.77 463.401 213.784 463.308 213.826 463.242C214.076 462.977 216.328 460.633 217.607 460.805C217.899 460.845 218.149 461.03 218.26 461.295C218.51 461.666 218.524 462.143 218.274 462.527C217.843 462.991 217.259 463.295 216.606 463.361ZM217.551 461.269C216.87 461.176 215.494 462.275 214.548 463.189C216.314 463.136 217.551 462.805 217.899 462.289C218.038 462.037 218.024 461.745 217.871 461.507C217.815 461.375 217.69 461.282 217.551 461.269Z" fill="#263238"/>
<path d="M214.048 463.587C214.048 463.587 213.992 463.627 213.965 463.627C213.895 463.6 213.84 463.56 213.798 463.494C213.784 463.415 212.922 460.845 213.645 459.745C213.84 459.467 214.159 459.282 214.521 459.242C214.91 459.163 215.313 459.361 215.48 459.706C215.925 460.633 214.979 462.845 214.173 463.574C214.131 463.6 214.09 463.6 214.048 463.6V463.587ZM214.465 459.706C214.284 459.745 214.131 459.851 214.048 459.997C213.603 460.646 213.895 462.143 214.131 462.991C214.785 462.156 215.341 460.527 215.077 459.904C215.021 459.785 214.91 459.653 214.59 459.692H214.479L214.465 459.706Z" fill="#263238"/>
<path d="M146.892 340.038L144.042 309.916L91.2599 311.094C91.2599 311.094 85.0044 353.059 89.5501 360.768C97.6544 374.531 150.868 366.716 163.309 367.895C168.383 370.478 195.587 456.341 195.587 456.341L210.809 450.486C210.809 450.486 194.434 378.015 190.708 364.358C185.523 345.376 164.38 345.707 146.906 340.025L146.892 340.038Z" fill="#407BFF"/>
<path opacity="0.6" d="M146.892 340.038L144.042 309.916L91.2599 311.094C91.2599 311.094 85.0044 353.059 89.5501 360.768C97.6544 374.531 150.868 366.716 163.309 367.895C168.383 370.478 195.587 456.341 195.587 456.341L210.809 450.486C210.809 450.486 194.434 378.015 190.708 364.358C185.523 345.376 164.38 345.707 146.906 340.025L146.892 340.038Z" fill="white"/>
<path d="M234.358 449.016L220.929 450.195C220.929 450.195 204.456 370.279 203.191 369.948C200.898 369.325 194.225 368.61 190.639 367.723C165.714 361.55 104.355 350.184 104.355 350.184L126.986 329.414C126.986 329.414 229.589 341.15 231.869 364.093C232.967 375.127 234.371 449.016 234.371 449.016H234.358Z" fill="#407BFF"/>
<path opacity="0.6" d="M234.358 449.016L220.929 450.195C220.929 450.195 204.456 370.279 203.191 369.948C200.898 369.325 194.225 368.61 190.639 367.723C165.714 361.55 104.355 350.184 104.355 350.184L126.986 329.414C126.986 329.414 229.589 341.15 231.869 364.093C232.967 375.127 234.371 449.016 234.371 449.016H234.358Z" fill="white"/>
<path opacity="0.2" d="M199.549 370.015C197.255 369.392 194.211 368.624 190.625 367.736C191.612 368.24 188.734 355.788 185.857 352.569C180.143 346.158 157.22 342.687 149.005 341.429C142.124 340.383 119.062 338.435 119.062 338.435C119.062 338.435 156.759 337.464 187.467 345.491C194.715 349.202 202.955 361.193 199.563 370.015H199.549Z" fill="black"/>
<path d="M145.238 316.075C148.324 299.212 153.523 276.614 163.128 255.486C158.068 253.446 152.869 251.764 147.559 250.452C139.802 248.452 131.934 246.876 123.997 245.737C118.506 245.18 112.973 245.035 107.454 245.3C107.454 245.3 95.5551 266.481 89.522 316.075H145.238Z" fill="#6695FF"/>
<path d="M128.056 260.03C128.056 260.03 114.21 249.5 112.459 243.274C110.707 237.048 118.84 232.849 130.238 235.246C141.637 237.644 152.188 244.479 148.824 252.533C145.46 260.587 139.566 262.415 139.566 262.415C139.566 262.415 137.119 257.792 128.056 260.03Z" fill="#407BFF"/>
<path d="M156.302 265.854L159.004 264.826L164.908 262.081L166.677 254.963C166.958 253.851 167.675 252.887 168.68 252.264C169.748 251.605 171.057 251.397 172.296 251.679L177.416 253.673C177.845 253.836 178.172 254.185 178.258 254.615C178.328 254.978 178.235 255.326 177.58 255.275C176.31 255.178 173.66 254.911 173.66 254.911L174.868 258.967C175.187 260.027 175.063 261.169 174.525 262.147L173.754 263.549L172.296 264.826L170.894 265.854C170.894 265.854 162.535 275.583 153.059 276.651C147.362 277.296 142.79 272.538 142.79 272.538L144.411 270.785L156.302 265.854Z" fill="#FFC7B1"/>
<path d="M173.816 255.193C173.816 255.193 173.683 255.022 173.395 254.837C173.106 254.659 172.647 254.429 172.078 254.451C171.493 254.481 171.065 254.844 170.917 255.163C170.761 255.497 170.862 255.719 170.885 255.712C170.932 255.712 170.901 255.497 171.072 255.245C171.236 255 171.618 254.718 172.093 254.696C172.576 254.674 173.005 254.852 173.309 254.992C173.613 255.133 173.8 255.23 173.816 255.2V255.193Z" fill="#AA6550"/>
<path d="M171.626 257.721C171.626 257.721 171.735 257.588 171.907 257.388C172.07 257.195 172.343 256.95 172.709 256.817C173.076 256.676 173.45 256.676 173.707 256.713C173.972 256.75 174.128 256.802 174.151 256.772C174.167 256.75 174.027 256.631 173.746 256.542C173.473 256.461 173.045 256.431 172.616 256.587C172.187 256.75 171.899 257.047 171.759 257.291C171.611 257.536 171.595 257.706 171.626 257.721Z" fill="#AA6550"/>
<path opacity="0.2" d="M128.056 260.03C128.056 260.03 114.21 249.5 112.459 243.274C110.707 237.048 118.84 232.849 130.238 235.246C141.637 237.644 152.188 244.479 148.824 252.533C145.46 260.587 139.566 262.415 139.566 262.415C139.566 262.415 137.119 257.792 128.056 260.03Z" fill="#6695FF"/>
<path d="M136.089 227.583C133.976 234.829 129.41 246.892 122.251 248.985C122.251 248.985 127.095 257.891 134.991 258.58C140.009 259.017 142.789 253.612 142.789 253.612C137.674 252.698 139.62 249.122 143.665 244.644L136.089 227.596V227.583Z" fill="#FFBF9D"/>
<path opacity="0.2" d="M140.205 233.749L144.682 243.843C143.722 244.876 142.861 245.989 142.11 247.168C137.078 247.525 133.463 239.922 134.701 236.835C135.145 235.564 139.316 234.782 140.219 233.749H140.205Z" fill="black"/>
<path d="M144.681 289.026H144.654C144.459 289.026 144.32 288.854 144.334 288.668C145.488 272.441 139.788 261.844 139.733 261.752C139.649 261.593 139.705 261.394 139.886 261.301C140.052 261.222 140.261 261.275 140.358 261.447C140.414 261.553 146.211 272.296 145.043 288.721C145.043 288.893 144.876 289.026 144.695 289.026H144.681Z" fill="white"/>
<path d="M123.622 283.251C123.622 283.251 123.497 283.238 123.441 283.211C123.274 283.118 123.219 282.92 123.316 282.761C129.557 272.654 127.723 258.957 127.709 258.811C127.681 258.626 127.82 258.467 128.001 258.44C128.181 258.414 128.362 258.546 128.39 258.719C128.404 258.864 130.266 272.773 123.914 283.092C123.844 283.198 123.733 283.251 123.608 283.251H123.622Z" fill="white"/>
<path d="M144.417 288.47C144.417 288.47 145.529 288.523 145.335 290.245L143.708 290.086C143.708 290.086 143.527 288.642 144.417 288.47Z" fill="white"/>
<path d="M123.733 282.311C123.733 282.311 124.664 282.907 123.566 284.285L122.245 283.357C122.245 283.357 122.857 282.033 123.733 282.311Z" fill="white"/>
<path d="M108.775 245.313C114.127 246.492 126.958 267.633 133.811 271.527C140.664 275.422 159.625 262.891 159.625 262.891L166.117 270.587C166.117 270.587 150.757 283.489 137.314 283.794C123.872 284.098 104.813 265.99 101.978 259.341C99.1418 252.704 102.27 243.869 108.775 245.3V245.313Z" fill="#6695FF"/>
<path opacity="0.2" d="M108.775 245.313C114.127 246.492 126.958 267.633 133.811 271.527C140.664 275.422 159.625 262.891 159.625 262.891L166.117 270.587C166.117 270.587 150.757 283.489 137.314 283.794C123.872 284.098 104.813 265.99 101.978 259.341C99.1418 252.704 102.27 243.869 108.775 245.3V245.313Z" fill="#6695FF"/>
<path d="M154.61 221.466C156.342 221.923 158.399 220.927 159.101 219.294C159.803 217.661 159.046 215.62 157.454 214.835C158.767 213.901 159.379 212.153 158.915 210.683C158.448 209.22 156.933 208.151 155.325 208.164C155.546 206.645 154.892 205.063 153.658 204.142C152.424 203.221 150.661 202.988 149.172 203.563C147.722 201.882 144.965 201.418 142.924 202.516C141.461 202.018 139.666 202.559 138.707 203.775C137.749 204.99 137.697 206.787 138.594 207.993" fill="#1F2C4E"/>
<path d="M152.698 240.865C153.49 237.023 154.456 229.004 155.238 221.737C156.08 213.93 150.588 207.003 142.613 205.83L141.824 205.714C133.189 204.937 127.429 211.613 126.571 219.995L122.089 249.306L142.312 253.638L142.604 248.855C142.604 248.855 151.056 248.83 152.695 240.872L152.698 240.865Z" fill="#FFBF9D"/>
<path d="M143.062 248.779C143.062 248.779 137.689 248.304 132.751 244.056C132.751 244.056 134.197 250.269 142.649 250.769L143.069 248.783L143.062 248.779Z" fill="#FF9A6C"/>
<path d="M150.467 228.325C150.376 228.933 149.766 229.369 149.109 229.307C148.452 229.245 147.995 228.706 148.095 228.101C148.186 227.493 148.796 227.056 149.453 227.118C150.11 227.181 150.566 227.72 150.467 228.325Z" fill="#1F2C4E"/>
<path d="M152.773 225.571C152.596 225.703 151.824 224.919 150.546 224.733C149.274 224.532 148.212 225.031 148.104 224.856C148.049 224.781 148.254 224.528 148.717 224.3C149.172 224.069 149.917 223.892 150.704 224.014C151.499 224.138 152.116 224.517 152.44 224.866C152.772 225.219 152.856 225.507 152.776 225.564L152.773 225.571Z" fill="#1F2C4E"/>
<path d="M139.115 226.619C139.023 227.227 138.414 227.663 137.757 227.601C137.099 227.539 136.643 227 136.742 226.395C136.834 225.786 137.443 225.35 138.1 225.412C138.758 225.474 139.214 226.014 139.115 226.619Z" fill="#1F2C4E"/>
<path d="M140.28 223.852C140.115 223.997 139.279 223.277 137.984 223.189C136.699 223.08 135.682 223.656 135.56 223.493C135.493 223.423 135.679 223.155 136.129 222.896C136.571 222.633 137.287 222.401 138.093 222.46C138.9 222.519 139.543 222.856 139.896 223.181C140.26 223.502 140.362 223.789 140.28 223.852Z" fill="#1F2C4E"/>
<path d="M143.146 233.623C143.151 233.556 143.966 233.535 145.261 233.567C145.589 233.586 145.907 233.566 146.001 233.36C146.117 233.146 146.05 232.79 145.963 232.4C145.806 231.6 145.641 230.762 145.47 229.879C144.798 226.297 144.383 223.374 144.532 223.338C144.678 223.31 145.344 226.186 146.016 229.768C146.172 230.645 146.324 231.495 146.469 232.299C146.519 232.674 146.655 233.11 146.403 233.547C146.273 233.772 146.003 233.899 145.787 233.925C145.568 233.959 145.387 233.93 145.225 233.917C143.937 233.792 143.145 233.684 143.15 233.616L143.146 233.623Z" fill="#1F2C4E"/>
<path d="M140.554 219.654C140.417 219.993 139.272 219.799 137.893 219.939C136.519 220.047 135.397 220.448 135.235 220.138C135.161 219.986 135.374 219.677 135.843 219.357C136.301 219.041 137.027 218.744 137.848 218.67C138.669 218.595 139.411 218.752 139.893 218.988C140.379 219.217 140.61 219.493 140.554 219.654Z" fill="#1F2C4E"/>
<path d="M153.264 222.179C152.946 222.404 152.075 221.915 150.934 221.661C149.803 221.366 148.772 221.403 148.631 221.064C148.571 220.9 148.792 220.653 149.283 220.48C149.768 220.304 150.525 220.238 151.301 220.425C152.077 220.612 152.695 221.009 153.02 221.377C153.353 221.748 153.405 222.068 153.264 222.179Z" fill="#1F2C4E"/>
<path d="M154.984 217.989C154.984 217.989 153.775 212.668 151.511 211.129C148.77 209.269 146.857 212.281 144.142 211.083C141.42 209.883 138.812 208.102 135.465 209.819C131.803 211.697 132.989 213.572 132.106 217.091C128.531 231.342 125.044 235.013 125.576 228.126C125.635 227.375 123.623 226.467 123.916 223.286C124.292 219.164 125.078 214.206 126.575 211.463C127.832 209.146 129.588 207.681 132.503 206.208C137.109 203.88 142.674 204.641 146.377 205.563C150.081 206.486 156.542 211.772 154.987 217.981L154.984 217.989Z" fill="#1F2C4E"/>
<path d="M126.205 227.707C126.39 226.468 125.48 225.331 124.197 225.262C122.637 225.178 120.767 225.77 120.276 228.86C119.407 234.346 125.266 233.87 125.299 233.718C125.321 233.613 125.863 230.005 126.205 227.707Z" fill="#FFBF9D"/>
<path d="M124.392 231.509C124.392 231.509 124.288 231.563 124.102 231.619C123.928 231.671 123.645 231.688 123.363 231.549C122.803 231.264 122.443 230.287 122.577 229.299C122.646 228.798 122.821 228.338 123.07 227.969C123.307 227.587 123.616 227.337 123.925 227.322C124.232 227.288 124.417 227.484 124.465 227.65C124.516 227.81 124.466 227.92 124.488 227.929C124.5 227.942 124.621 227.852 124.611 227.622C124.61 227.509 124.556 227.374 124.444 227.251C124.324 227.126 124.137 227.051 123.927 227.045C123.485 227.024 123.036 227.366 122.767 227.779C122.476 228.183 122.256 228.703 122.185 229.264C122.042 230.37 122.462 231.466 123.242 231.796C123.624 231.948 123.973 231.862 124.164 231.756C124.357 231.643 124.411 231.525 124.392 231.509Z" fill="#FF9A6C"/>
<path d="M128.106 217.468C128.743 218.063 129.426 218.676 130.292 218.891C131.157 219.106 132.268 218.764 132.576 217.936C132.719 217.566 132.706 217.107 133.021 216.849C133.392 216.543 133.946 216.738 134.41 216.854C136.025 217.263 137.916 216.387 138.632 214.902C138.933 215.571 139.912 215.692 140.625 215.383C141.334 215.082 141.871 214.494 142.472 214.018C143.074 213.543 143.868 213.153 144.592 213.364C145.001 213.484 145.344 213.787 145.771 213.809C146.526 213.857 147.05 213.063 147.297 212.368C147.544 211.672 147.797 210.848 148.502 210.554C149.153 210.282 149.864 210.601 150.532 210.798C151.2 210.995 152.111 210.975 152.406 210.351C152.558 210.019 152.478 209.647 152.342 209.322C151.721 207.852 149.914 206.965 148.279 207.341C148.073 205.453 146.599 203.782 144.706 203.297C142.806 202.809 140.597 203.541 139.349 205.058C138.358 203.833 136.708 203.13 135.064 203.25C133.424 203.363 131.839 204.292 130.958 205.65C129.652 205.094 127.986 205.38 126.902 206.343C125.819 207.306 125.392 208.881 125.854 210.191C124.727 210.605 123.668 211.456 123.429 212.582C123.187 213.715 124.111 215.009 125.294 214.88C124.671 215.695 124.811 216.947 125.595 217.574C126.382 218.193 127.693 218.098 128.408 217.354" fill="#1F2C4E"/>
<path d="M148.411 208.981C148.411 208.981 148.413 209.016 148.393 209.078C148.374 209.14 148.352 209.245 148.298 209.364C148.194 209.61 148.021 209.969 147.682 210.357C147.347 210.739 146.855 211.171 146.182 211.469C145.517 211.771 144.65 211.949 143.741 211.769L143.863 211.661C143.948 212.157 143.791 212.714 143.454 213.156C143.13 213.612 142.687 213.994 142.225 214.359C141.992 214.537 141.779 214.749 141.47 214.896C141.173 215.039 140.845 215.092 140.507 215.088C139.854 215.071 139.17 214.772 138.814 214.184L139.039 214.161C138.683 215.232 137.837 216.221 136.688 216.74C136.079 217.038 135.369 217.165 134.723 217.056C134.073 216.953 133.494 216.678 132.97 216.399L133.131 216.359C132.696 216.997 132.114 217.507 131.466 217.85C130.825 218.197 130.038 218.336 129.397 218.08C128.112 217.611 127.432 216.405 127.453 215.366L127.571 215.439C126.841 215.689 126.122 215.62 125.576 215.428C125.019 215.241 124.609 214.928 124.337 214.645C124.06 214.351 123.919 214.076 123.836 213.886C123.764 213.692 123.741 213.586 123.745 213.579C123.781 213.559 123.853 214.024 124.412 214.579C124.69 214.847 125.092 215.139 125.634 215.303C126.164 215.471 126.844 215.524 127.527 215.282L127.644 215.241L127.642 215.362C127.644 216.332 128.294 217.465 129.485 217.888C130.066 218.12 130.76 217.988 131.365 217.662C131.97 217.335 132.526 216.842 132.933 216.245L132.996 216.148L133.102 216.19C133.614 216.473 134.171 216.739 134.772 216.831C135.377 216.933 136.01 216.819 136.594 216.537C137.673 216.051 138.466 215.119 138.814 214.106L138.903 213.853L139.039 214.082C139.344 214.588 139.949 214.865 140.542 214.875C140.832 214.886 141.134 214.831 141.392 214.716C141.642 214.598 141.863 214.389 142.104 214.215C142.562 213.857 142.991 213.486 143.298 213.068C143.614 212.653 143.755 212.168 143.684 211.72L143.666 211.582L143.805 211.611C144.658 211.795 145.489 211.638 146.133 211.362C146.795 211.086 147.274 210.683 147.618 210.323C148.293 209.571 148.389 208.99 148.427 209.005L148.411 208.981Z" fill="#455A64"/>
<path d="M139.201 234.614C140.698 235.118 142.122 235.802 143.439 236.643L143.448 236.682C143.086 237.674 142.56 238.749 141.549 239.161C140.793 239.466 139.891 239.304 139.274 238.813C138.657 238.323 138.327 237.652 138.341 236.875C138.354 236.099 138.815 235.284 139.193 234.611L139.201 234.614Z" fill="#FF9A6C"/>
<path d="M140.582 239.198C140.597 239.126 139.899 239.245 139.218 238.599C138.887 238.284 138.604 237.805 138.56 237.214C138.509 236.62 138.677 235.958 139.012 235.319C139.087 235.175 139.199 234.968 139.269 234.892C139.316 234.867 139.239 234.88 139.299 234.886L139.526 234.977C139.841 235.13 140.144 235.269 140.448 235.408C140.998 235.655 141.528 235.885 142.028 236.103C142.933 236.492 143.507 236.704 143.531 236.653C143.554 236.602 143.031 236.296 142.16 235.851C141.674 235.604 141.164 235.348 140.625 235.079C140.324 234.933 140.024 234.786 139.709 234.634C139.618 234.598 139.564 234.559 139.451 234.513C139.34 234.443 139.054 234.501 138.978 234.628C138.814 234.831 138.761 234.966 138.652 235.148C138.296 235.831 138.107 236.58 138.192 237.258C138.258 237.936 138.623 238.49 139.024 238.808C139.419 239.14 139.858 239.255 140.145 239.274C140.442 239.289 140.595 239.229 140.586 239.208L140.582 239.198Z" fill="#1F2C4E"/>
<path d="M177.332 244.38L184.695 242.715C185.806 242.463 187.148 243.498 187.026 244.624L183.441 260.391C183.306 261.002 182.817 261.476 182.19 261.617L173.21 263.625C172.143 263.72 171.467 262.689 171.728 261.987L175.131 246.572C175.357 245.476 176.211 244.626 177.33 244.373L177.332 244.38Z" fill="#455A64"/>
<path d="M178.058 245.104L185.422 243.439C186.347 243.23 187.202 244.042 186.994 244.941L183.504 260.363C183.369 260.974 182.88 261.448 182.253 261.59L173.374 263.598C172.829 263.721 172.328 263.246 172.446 262.717L175.849 247.298C176.075 246.203 176.929 245.352 178.048 245.099L178.058 245.104Z" fill="#263238"/>
<path d="M179.906 250.275L184.885 250.489L187.159 253.576L186.326 263.13L179.912 263.034L181.257 260.035L180.198 258.185C180.198 258.185 177.815 258.257 177.64 257.957C177.464 257.658 177.356 256.481 177.657 256.315C177.96 256.155 180.511 256.201 180.511 256.201C180.511 256.201 177.061 255.057 177.008 254.7C176.949 254.345 176.905 253.41 177.389 253.132C177.876 252.862 182.915 253.367 182.915 253.367L184.216 254.678L183.841 252.004C183.841 252.004 179.648 252.256 179.915 250.256L179.906 250.275Z" fill="#FFC7B1"/>
<path d="M182.491 258.456C182.491 258.456 182.54 258.272 182.467 257.986C182.402 257.698 182.226 257.313 181.919 256.965C181.612 256.617 181.241 256.394 180.963 256.283C180.677 256.174 180.495 256.165 180.49 256.191C180.466 256.254 181.176 256.456 181.743 257.113C182.318 257.751 182.421 258.464 182.491 258.456Z" fill="#AA6550"/>
<path d="M184.298 257.043C184.298 257.043 184.003 256.671 183.685 255.994C183.512 255.66 183.326 255.235 182.981 254.839C182.805 254.643 182.597 254.45 182.324 254.318C182.051 254.187 181.746 254.139 181.444 254.122C180.26 254.11 179.213 254.131 178.441 254.146C177.672 254.168 177.199 254.193 177.203 254.224C177.207 254.255 177.678 254.286 178.446 254.304C179.211 254.332 180.277 254.336 181.436 254.349C181.72 254.364 181.991 254.408 182.222 254.514C182.452 254.62 182.651 254.792 182.812 254.97C183.143 255.329 183.344 255.734 183.532 256.062C183.899 256.739 184.275 257.067 184.298 257.043Z" fill="#AA6550"/>
<path d="M185.017 255.876C185.071 255.849 184.919 255.481 184.666 255.061C184.414 254.641 184.168 254.321 184.117 254.354C184.064 254.381 184.216 254.748 184.468 255.169C184.721 255.589 184.966 255.909 185.017 255.876Z" fill="#AA6550"/>
<path d="M182.258 247.041C182.392 247.542 182.082 248.051 181.558 248.171C181.033 248.291 180.505 247.981 180.37 247.473C180.234 246.965 180.546 246.463 181.07 246.343C181.595 246.223 182.123 246.533 182.258 247.041Z" fill="#FAFAFA"/>
<path d="M94.9197 315.41C94.9197 315.41 103.685 321.661 106.83 335.737C109.974 349.802 121.771 380.917 94.9197 368.631L95.6096 365.721C95.6096 365.721 104.172 372.683 107.305 367.995C110.426 363.306 108.809 338.151 96.1977 324.787L94.9197 315.41Z" fill="#263238"/>
<path d="M76.8344 309.579C76.8344 309.579 80.0239 303.468 84.7177 303.328C89.4115 303.188 91.0516 304.46 90.7575 308.868L88.6424 309.008C88.6424 309.008 90.7801 305.322 85.6791 305.171C80.5781 305.02 79.1191 309.579 79.1191 309.579H76.8344Z" fill="#263238"/>
<path d="M51.2388 371.023C51.2388 371.023 47.1105 346.676 57.8554 339.293C57.8554 339.293 56.1475 334.185 64.8 317.393C68.3854 310.43 71.4279 308.512 74.4591 308.393L95.406 307.564C97.6115 307.477 99.523 308.997 99.8171 311.088C101.287 321.499 104.839 351.677 99.9189 371.023H51.2501H51.2388Z" fill="#263238"/>
<path opacity="0.1" d="M51.2388 371.023C51.2388 371.023 47.1105 346.676 57.8554 339.293C57.8554 339.293 56.1475 334.185 64.8 317.393C68.3854 310.43 71.4279 308.512 74.4591 308.393L95.406 307.564C97.6115 307.477 99.523 308.997 99.8171 311.088C101.287 321.499 104.839 351.677 99.9189 371.023H51.2501H51.2388Z" fill="white"/>
<path d="M84.8872 334.185C86.9571 334.26 88.5744 332.439 88.0994 330.52C87.1267 326.554 84.4122 320.756 76.8342 319.678C68.7133 318.525 63.5671 325.519 61.1806 329.917C60.3323 331.49 61.486 333.366 63.3522 333.43L84.8872 334.185Z" fill="#263238"/>
<path d="M54.6545 345.394C55.1861 343.648 82.252 344.683 84.039 345.394C85.8261 346.105 83.6658 364.007 82.0597 365.721C80.4536 367.424 54.0551 366.292 52.0418 365.721C50.0286 365.149 50.3226 359.75 54.6545 345.394Z" fill="#263238"/>
<path opacity="0.2" d="M84.8872 334.185C86.9571 334.26 88.5744 332.439 88.0994 330.52C87.1267 326.554 84.4122 320.756 76.8342 319.678C68.7133 318.525 63.5671 325.519 61.1806 329.917C60.3323 331.49 61.486 333.366 63.3522 333.43L84.8872 334.185Z" fill="white"/>
<path opacity="0.2" d="M54.6545 345.394C55.1861 343.648 82.252 344.683 84.039 345.394C85.8261 346.105 83.6658 364.007 82.0597 365.721C80.4536 367.424 54.0551 366.292 52.0418 365.721C50.0286 365.149 50.3226 359.75 54.6545 345.394Z" fill="white"/>
<path d="M98.0525 351.904C98.0525 351.904 98.0073 351.904 97.9733 351.904C97.668 351.86 97.4417 351.591 97.487 351.3C98.9347 340.921 96.6387 315.658 96.1524 313.837C95.6886 312.047 94.501 311.088 92.6461 310.97C90.3162 310.83 71.6879 310.97 71.5069 310.97C71.2015 310.97 70.9414 310.733 70.9414 310.431C70.9414 310.129 71.1902 309.892 71.5069 309.892C72.276 309.892 90.3614 309.752 92.7366 309.892C95.0779 310.032 96.6839 311.336 97.2721 313.567C97.7245 315.281 100.156 340.511 98.6293 351.429C98.5954 351.699 98.3466 351.893 98.0638 351.893L98.0525 351.904Z" fill="#263238"/>
<path d="M80.9626 349.349C80.9626 349.349 80.8834 349.349 80.8495 349.349C74.3347 348.098 55.5706 348.777 55.3897 348.788C55.0956 348.788 54.8128 348.573 54.8015 348.271C54.7902 347.969 55.0277 347.721 55.3444 347.71C56.1249 347.678 74.4364 347.01 81.0757 348.292C81.3811 348.346 81.5846 348.637 81.5168 348.928C81.4602 349.187 81.2227 349.359 80.9626 349.359V349.349Z" fill="#263238"/>
<path d="M86.2784 330.305C86.0409 330.305 85.8146 330.165 85.7355 329.928C84.4913 326.285 81.3923 320.271 74.5834 320.777C67.6048 321.316 64.6076 328.548 64.585 328.613C64.4719 328.893 64.1439 329.033 63.8498 328.925C63.5557 328.818 63.4087 328.505 63.5218 328.225C63.6575 327.901 66.8018 320.282 74.4929 319.7C82.0822 319.096 85.4753 325.649 86.8099 329.594C86.9117 329.874 86.7421 330.176 86.448 330.273C86.3915 330.294 86.3349 330.294 86.2784 330.294V330.305Z" fill="#263238"/>
</svg>
