<svg width="415" height="381" viewBox="0 0 415 381" fill="none" xmlns="http://www.w3.org/2000/svg">
<path d="M280.825 26.8052H202.354V233.818H280.825V26.8052Z" fill="#F5F5F5"/>
<path d="M280.835 26.8052H241.595V233.253H280.835V26.8052Z" fill="#EBEBEB"/>
<path d="M239.023 6.48315H211.316V26.8051H239.023V6.48315Z" fill="#F5F5F5"/>
<path d="M239.033 6.48315H232.428V26.8051H239.033V6.48315Z" fill="#EBEBEB"/>
<path d="M195.811 26.8051V25.6233H283.13V26.8051" fill="#E0E0E0"/>
<path d="M224.495 35.6689H217.849V47.3243H224.495V35.6689Z" fill="#FAFAFA"/>
<path d="M241.595 51.9053C241.595 52.0252 232.808 52.1279 221.974 52.1279C211.141 52.1279 202.354 52.0252 202.354 51.9053C202.354 51.7854 211.141 51.6826 221.974 51.6826C232.808 51.6826 241.595 51.7854 241.595 51.9053Z" fill="#E0E0E0"/>
<path d="M264.075 35.6689H257.429V47.3243H264.075V35.6689Z" fill="#E0E0E0"/>
<path d="M281.175 51.9058C281.175 52.0257 272.389 52.1284 261.555 52.1284C250.721 52.1284 241.934 52.0257 241.934 51.9058C241.934 51.7859 250.721 51.6831 261.555 51.6831C272.389 51.6831 281.175 51.7859 281.175 51.9058Z" fill="#E0E0E0"/>
<path d="M264.075 58.8164H257.429V70.4717H264.075V58.8164Z" fill="#E0E0E0"/>
<path d="M281.175 75.0532C281.175 75.1731 272.389 75.2759 261.555 75.2759C250.721 75.2759 241.934 75.1731 241.934 75.0532C241.934 74.9333 250.721 74.8306 261.555 74.8306C272.389 74.8306 281.175 74.9333 281.175 75.0532Z" fill="#E0E0E0"/>
<path d="M264.075 82.6587H257.429V94.314H264.075V82.6587Z" fill="#E0E0E0"/>
<path d="M281.175 98.8955C281.175 99.0154 272.389 99.1182 261.555 99.1182C250.721 99.1182 241.934 99.0154 241.934 98.8955C241.934 98.7756 250.721 98.6729 261.555 98.6729C272.389 98.6729 281.175 98.7756 281.175 98.8955Z" fill="#E0E0E0"/>
<path d="M264.075 106.508H257.429V118.164H264.075V106.508Z" fill="#E0E0E0"/>
<path d="M281.175 122.746C281.175 122.865 272.389 122.968 261.555 122.968C250.721 122.968 241.934 122.865 241.934 122.746C241.934 122.626 250.721 122.523 261.555 122.523C272.389 122.523 281.175 122.626 281.175 122.746Z" fill="#E0E0E0"/>
<path d="M264.075 129.674H257.429V141.329H264.075V129.674Z" fill="#E0E0E0"/>
<path d="M281.175 145.902C281.175 146.022 272.389 146.125 261.555 146.125C250.721 146.125 241.934 146.022 241.934 145.902C241.934 145.782 250.721 145.679 261.555 145.679C272.389 145.679 281.175 145.782 281.175 145.902Z" fill="#E0E0E0"/>
<path d="M264.075 152.924H257.429V164.58H264.075V152.924Z" fill="#E0E0E0"/>
<path d="M264.075 176.492H257.429V188.148H264.075V176.492Z" fill="#E0E0E0"/>
<path d="M281.175 169.162C281.175 169.282 272.389 169.385 261.555 169.385C250.721 169.385 241.934 169.282 241.934 169.162C241.934 169.042 250.721 168.939 261.555 168.939C272.389 168.939 281.175 169.042 281.175 169.162Z" fill="#E0E0E0"/>
<path d="M224.495 59.1675H217.849V70.8228H224.495V59.1675Z" fill="#FAFAFA"/>
<path d="M241.595 75.4053C241.595 75.5252 232.808 75.6279 221.974 75.6279C211.141 75.6279 202.354 75.5252 202.354 75.4053C202.354 75.2854 211.141 75.1826 221.974 75.1826C232.808 75.1826 241.595 75.2854 241.595 75.4053Z" fill="#E0E0E0"/>
<path d="M224.495 82.667H217.849V94.3223H224.495V82.667Z" fill="#FAFAFA"/>
<path d="M241.595 98.9038C241.595 99.0237 232.808 99.1265 221.974 99.1265C211.141 99.1265 202.354 99.0237 202.354 98.9038C202.354 98.7839 211.141 98.6812 221.974 98.6812C232.808 98.6812 241.595 98.7839 241.595 98.9038Z" fill="#E0E0E0"/>
<path d="M224.495 106.166H217.849V117.821H224.495V106.166Z" fill="#FAFAFA"/>
<path d="M241.595 122.403C241.595 122.523 232.808 122.626 221.974 122.626C211.141 122.626 202.354 122.523 202.354 122.403C202.354 122.283 211.141 122.181 221.974 122.181C232.808 122.181 241.595 122.283 241.595 122.403Z" fill="#E0E0E0"/>
<path d="M224.495 129.674H217.849V141.329H224.495V129.674Z" fill="#FAFAFA"/>
<path d="M241.595 145.902C241.595 146.022 232.808 146.125 221.974 146.125C211.141 146.125 202.354 146.022 202.354 145.902C202.354 145.782 211.141 145.68 221.974 145.68C232.808 145.68 241.595 145.782 241.595 145.902Z" fill="#E0E0E0"/>
<path d="M224.495 153.173H217.849V164.828H224.495V153.173Z" fill="#FAFAFA"/>
<path d="M241.595 169.401C241.595 169.521 232.808 169.624 221.974 169.624C211.141 169.624 202.354 169.521 202.354 169.401C202.354 169.281 211.141 169.178 221.974 169.178C232.808 169.178 241.595 169.281 241.595 169.401Z" fill="#E0E0E0"/>
<path d="M224.495 176.671H217.849V188.327H224.495V176.671Z" fill="#FAFAFA"/>
<path d="M372.085 115.74H279.344V360.382H372.085V115.74Z" fill="#F5F5F5"/>
<path d="M372.085 118.952H325.714V360.391H372.085V118.952Z" fill="#EBEBEB"/>
<path d="M322.689 94.9307H289.941V118.952H322.689V94.9307Z" fill="#F5F5F5"/>
<path d="M322.689 94.9307H314.88V118.952H322.689V94.9307Z" fill="#EBEBEB"/>
<path d="M271.617 118.952V117.548H374.801V118.952" fill="#E0E0E0"/>
<path d="M305.508 129.425H297.657V143.204H305.508V129.425Z" fill="#FAFAFA"/>
<path d="M325.714 148.608C325.714 148.754 315.333 148.874 302.534 148.874C289.735 148.874 279.344 148.754 279.344 148.608C279.344 148.463 289.725 148.343 302.534 148.343C315.343 148.343 325.714 148.463 325.714 148.608Z" fill="#E0E0E0"/>
<path d="M352.28 129.425H344.429V143.204H352.28V129.425Z" fill="#E0E0E0"/>
<path d="M372.486 148.608C372.486 148.753 362.105 148.873 349.306 148.873C336.507 148.873 326.116 148.753 326.116 148.608C326.116 148.462 336.497 148.342 349.306 148.342C362.115 148.342 372.486 148.462 372.486 148.608Z" fill="#E0E0E0"/>
<path d="M352.28 156.778H344.429V170.557H352.28V156.778Z" fill="#E0E0E0"/>
<path d="M372.486 175.961C372.486 176.107 362.105 176.227 349.306 176.227C336.507 176.227 326.116 176.107 326.116 175.961C326.116 175.816 336.497 175.696 349.306 175.696C362.115 175.696 372.486 175.816 372.486 175.961Z" fill="#E0E0E0"/>
<path d="M352.28 184.953H344.429V198.732H352.28V184.953Z" fill="#E0E0E0"/>
<path d="M372.486 204.144C372.486 204.29 362.105 204.41 349.306 204.41C336.507 204.41 326.116 204.29 326.116 204.144C326.116 203.999 336.497 203.879 349.306 203.879C362.115 203.879 372.486 203.999 372.486 204.144Z" fill="#E0E0E0"/>
<path d="M352.28 213.136H344.429V226.915H352.28V213.136Z" fill="#E0E0E0"/>
<path d="M372.486 232.319C372.486 232.465 362.105 232.585 349.306 232.585C336.507 232.585 326.116 232.465 326.116 232.319C326.116 232.174 336.497 232.054 349.306 232.054C362.115 232.054 372.486 232.174 372.486 232.319Z" fill="#E0E0E0"/>
<path d="M352.28 240.506H344.429V254.286H352.28V240.506Z" fill="#E0E0E0"/>
<path d="M372.486 259.689C372.486 259.835 362.105 259.955 349.306 259.955C336.507 259.955 326.116 259.835 326.116 259.689C326.116 259.544 336.497 259.424 349.306 259.424C362.115 259.424 372.486 259.544 372.486 259.689Z" fill="#E0E0E0"/>
<path d="M352.28 267.996H344.429V281.775H352.28V267.996Z" fill="#E0E0E0"/>
<path d="M352.28 295.837H344.429V309.617H352.28V295.837Z" fill="#E0E0E0"/>
<path d="M372.486 287.179C372.486 287.325 362.105 287.445 349.306 287.445C336.507 287.445 326.116 287.325 326.116 287.179C326.116 287.033 336.497 286.914 349.306 286.914C362.115 286.914 372.486 287.033 372.486 287.179Z" fill="#E0E0E0"/>
<path d="M305.508 157.198H297.657V170.977H305.508V157.198Z" fill="#FAFAFA"/>
<path d="M325.714 176.381C325.714 176.526 315.333 176.646 302.534 176.646C289.735 176.646 279.344 176.526 279.344 176.381C279.344 176.235 289.725 176.115 302.534 176.115C315.343 176.115 325.714 176.235 325.714 176.381Z" fill="#E0E0E0"/>
<path d="M305.508 184.962H297.657V198.741H305.508V184.962Z" fill="#FAFAFA"/>
<path d="M325.714 204.153C325.714 204.299 315.333 204.419 302.534 204.419C289.735 204.419 279.344 204.299 279.344 204.153C279.344 204.008 289.725 203.888 302.534 203.888C315.343 203.888 325.714 204.008 325.714 204.153Z" fill="#E0E0E0"/>
<path d="M305.508 212.734H297.657V226.514H305.508V212.734Z" fill="#FAFAFA"/>
<path d="M325.714 231.926C325.714 232.072 315.333 232.192 302.534 232.192C289.735 232.192 279.344 232.072 279.344 231.926C279.344 231.781 289.725 231.661 302.534 231.661C315.343 231.661 325.714 231.781 325.714 231.926Z" fill="#E0E0E0"/>
<path d="M305.508 240.506H297.657V254.286H305.508V240.506Z" fill="#FAFAFA"/>
<path d="M325.714 259.69C325.714 259.835 315.333 259.955 302.534 259.955C289.735 259.955 279.344 259.835 279.344 259.69C279.344 259.544 289.725 259.424 302.534 259.424C315.343 259.424 325.714 259.544 325.714 259.69Z" fill="#E0E0E0"/>
<path d="M305.508 268.279H297.657V282.058H305.508V268.279Z" fill="#FAFAFA"/>
<path d="M325.714 287.462C325.714 287.607 315.333 287.727 302.534 287.727C289.735 287.727 279.344 287.607 279.344 287.462C279.344 287.316 289.725 287.196 302.534 287.196C315.343 287.196 325.714 287.316 325.714 287.462Z" fill="#E0E0E0"/>
<path d="M305.508 296.051H297.657V309.83H305.508V296.051Z" fill="#FAFAFA"/>
<path d="M302.39 360.383H181.684L181.16 201.593H301.865L302.39 360.383Z" fill="#F5F5F5"/>
<path d="M301.865 201.593H241.512V360.383H301.865V201.593Z" fill="#EBEBEB"/>
<path d="M237.572 170.335H194.946V201.593H237.572V170.335Z" fill="#F5F5F5"/>
<path d="M237.562 170.335H227.407V201.593H237.562V170.335Z" fill="#EBEBEB"/>
<path d="M305.394 199.769H171.097V201.593H305.394V199.769Z" fill="#E0E0E0"/>
<path d="M215.205 215.226H204.988V233.159H215.205V215.226Z" fill="white"/>
<path d="M241.512 240.199C241.512 240.387 228.004 240.541 211.336 240.541C194.669 240.541 181.16 240.387 181.16 240.199C181.16 240.01 194.669 239.856 211.336 239.856C228.004 239.856 241.512 240.01 241.512 240.199Z" fill="#E0E0E0"/>
<path d="M276.082 215.226H265.865V233.159H276.082V215.226Z" fill="#F5F5F5"/>
<path d="M302.39 240.199C302.39 240.387 288.881 240.541 272.214 240.541C255.546 240.541 242.037 240.387 242.037 240.199C242.037 240.01 255.546 239.856 272.214 239.856C288.881 239.856 302.39 240.01 302.39 240.199Z" fill="#E0E0E0"/>
<path d="M276.082 250.834H265.865V268.767H276.082V250.834Z" fill="#F5F5F5"/>
<path d="M302.39 275.798C302.39 275.987 288.881 276.141 272.214 276.141C255.546 276.141 242.037 275.987 242.037 275.798C242.037 275.61 255.546 275.456 272.214 275.456C288.881 275.456 302.39 275.61 302.39 275.798Z" fill="#E0E0E0"/>
<path d="M276.082 287.504H265.865V305.437H276.082V287.504Z" fill="#F5F5F5"/>
<path d="M302.39 312.477C302.39 312.665 288.881 312.819 272.214 312.819C255.546 312.819 242.037 312.665 242.037 312.477C242.037 312.288 255.546 312.134 272.214 312.134C288.881 312.134 302.39 312.288 302.39 312.477Z" fill="#E0E0E0"/>
<path d="M276.082 324.184H265.865V342.116H276.082V324.184Z" fill="#F5F5F5"/>
<path d="M302.39 349.156C302.39 349.344 288.881 349.498 272.214 349.498C255.546 349.498 242.037 349.344 242.037 349.156C242.037 348.967 255.546 348.813 272.214 348.813C288.881 348.813 302.39 348.967 302.39 349.156Z" fill="#E0E0E0"/>
<path d="M215.205 251.374H204.988V269.307H215.205V251.374Z" fill="white"/>
<path d="M241.512 276.346C241.512 276.534 228.004 276.689 211.336 276.689C194.669 276.689 181.16 276.534 181.16 276.346C181.16 276.158 194.669 276.003 211.336 276.003C228.004 276.003 241.512 276.158 241.512 276.346Z" fill="#E0E0E0"/>
<path d="M215.205 287.522H204.988V305.455H215.205V287.522Z" fill="white"/>
<path d="M241.512 312.494C241.512 312.682 228.004 312.836 211.336 312.836C194.669 312.836 181.16 312.682 181.16 312.494C181.16 312.306 194.669 312.151 211.336 312.151C228.004 312.151 241.512 312.306 241.512 312.494Z" fill="#E0E0E0"/>
<path d="M215.205 323.669H204.988V341.602H215.205V323.669Z" fill="white"/>
<path d="M241.512 348.642C241.512 348.83 228.004 348.984 211.336 348.984C194.669 348.984 181.16 348.83 181.16 348.642C181.16 348.453 194.669 348.299 211.336 348.299C228.004 348.299 241.512 348.453 241.512 348.642Z" fill="#E0E0E0"/>
<path d="M105.602 73.6756C106.56 67.9324 96.7082 63.2155 89.2907 62.7179C85.7586 62.4794 82.0877 62.9252 78.7447 61.9714C71.4912 59.8981 68.5899 52.1956 61.513 49.7386C56.2274 47.9037 50.1344 49.5417 45.0002 51.6565C39.866 53.7817 34.8075 56.4459 29.0677 56.7466C24.0849 57.0057 18.6731 55.4922 14.3084 57.493C11.0538 58.9858 9.35083 62.0647 6.36113 63.8789C3.4345 65.6517 -0.387798 66.0352 -4.02086 66.1907C-7.65392 66.3566 -11.4257 66.3877 -14.7308 67.6317C-18.0359 68.8757 -20.7859 71.7577 -20.0921 74.6915L105.602 73.6756Z" fill="#F5F5F5"/>
<path d="M174.667 26.0706C175.182 22.9277 169.862 20.35 165.86 20.0759C163.957 19.9475 161.971 20.1873 160.16 19.6649C156.24 18.5259 154.676 14.3211 150.859 12.9765C147.999 11.9746 144.717 12.8652 141.939 14.0299C139.172 15.186 136.435 16.6504 133.338 16.8131C130.642 16.9587 127.72 16.128 125.364 17.2242C123.605 18.0377 122.689 19.7248 121.074 20.7182C119.49 21.6859 117.432 21.8915 115.467 21.9857C113.502 22.0713 111.475 22.0884 109.685 22.7735C107.894 23.4586 106.413 25.0258 106.793 26.6358L174.667 26.0792V26.0706Z" fill="#F5F5F5"/>
<path d="M266.75 90.9089C266.75 90.9089 263.966 88.4107 262.611 89.0059C261.256 89.6011 260.287 91.2221 259.751 92.154C259.158 93.1878 260.447 93.9944 260.983 93.8378C261.519 93.6733 262.818 92.436 262.818 92.436L265.377 94.1667L265.461 97.0799L265.311 97.9335L263.072 97.4479L262.611 95.2474C262.441 94.4486 261.256 94.057 260.56 94.6209C260.287 94.8401 260.089 95.1847 260.042 95.7094C259.892 97.6046 260.089 100.901 262.667 101.92C265.245 102.938 269.865 104.065 269.865 104.065L271.982 105.882L280.769 104.386L279.066 101.223L278.248 91.4649C278.248 91.4649 280.948 87.4162 280.76 86.0614C280.571 84.7066 279.452 80.6813 279.452 80.6813C279.452 80.6813 278.088 80.2428 277.805 81.4879C277.523 82.7409 277.956 86.0849 277.956 86.0849L275.651 89.3348L273.318 78.6217C273.139 77.7994 271.803 77.588 271.314 78.3163C271.088 78.6452 270.947 79.1386 270.965 79.8669C271.041 82.5921 272.283 89.0764 271.897 89.1625C271.511 89.2487 270.467 88.818 270.025 87.4945C269.62 86.2885 267.353 81.0729 266.431 78.982C266.205 78.4651 265.358 78.3476 264.972 78.794C264.474 79.3657 264.088 80.3759 264.615 82.1379C265.254 84.2915 266.628 88.5908 266.75 89.1077C266.873 89.6167 266.75 90.8932 266.75 90.8932V90.9089Z" fill="#FFBF9D"/>
<path d="M272.612 99.9227C272.546 99.954 272.301 99.6564 271.812 99.2727C271.332 98.8812 270.57 98.4191 269.611 98.1215C268.651 97.8239 267.71 97.7535 267.033 97.7848C266.355 97.8161 265.941 97.9023 265.913 97.8396C265.894 97.8005 266.289 97.6125 266.995 97.5107C267.701 97.4089 268.726 97.4324 269.77 97.7535C270.805 98.0745 271.605 98.6227 272.057 99.0848C272.508 99.5468 272.659 99.907 272.612 99.9227Z" fill="#FF9A6C"/>
<path d="M249.636 324.976L264.06 343.551L270.382 360.984C270.834 362.237 272.48 362.91 273.948 362.448C274.776 362.19 275.434 361.626 275.613 360.905C276.752 356.488 280.694 336.182 279.941 335.235C278.699 333.668 267.353 317.959 267.353 317.959L249.627 324.968L249.636 324.976Z" fill="#263238"/>
<path d="M273.948 362.448L279.01 333.966L279.602 334.765C280.11 335.454 280.317 336.268 280.167 337.075C279.772 339.213 278.511 349.472 275.698 360.874C275.519 361.618 274.813 362.197 273.957 362.448H273.948Z" fill="#455A64"/>
<g opacity="0.6">
<path d="M270.947 333.426C270.617 334.044 270.965 334.851 271.69 335.149C272.414 335.446 273.412 335.164 273.75 334.553C274.089 333.943 273.713 332.964 272.951 332.737C272.188 332.509 271.05 332.893 270.89 333.559" fill="white"/>
</g>
<path d="M273.045 351.563C272.951 351.68 271.718 350.952 269.978 351.108C268.237 351.226 267.183 352.126 267.061 352.025C267.004 351.986 267.183 351.696 267.673 351.359C268.152 351.022 268.961 350.693 269.921 350.623C270.881 350.552 271.756 350.748 272.301 350.999C272.847 351.249 273.092 351.508 273.045 351.555V351.563Z" fill="white"/>
<path d="M273.299 354.915C273.252 355.048 272.075 354.813 270.692 355.134C269.309 355.431 268.425 356.128 268.303 356.027C268.171 355.964 268.961 355.009 270.542 354.664C272.113 354.304 273.374 354.805 273.299 354.915Z" fill="white"/>
<path d="M273.666 346.794C273.628 346.935 271.812 346.559 269.62 346.903C267.418 347.216 265.875 348.094 265.781 347.968C265.668 347.89 267.155 346.762 269.516 346.426C271.869 346.065 273.731 346.692 273.666 346.794Z" fill="white"/>
<path d="M269.846 340.842C269.865 340.983 268.293 341.186 266.637 341.977C264.963 342.745 263.928 343.747 263.787 343.653C263.655 343.591 264.549 342.377 266.355 341.555C268.143 340.717 269.855 340.724 269.855 340.85L269.846 340.842Z" fill="white"/>
<path d="M267.174 336.887C267.183 337.028 265.461 337.044 263.796 337.992C262.103 338.908 261.416 340.216 261.256 340.153C261.19 340.13 261.256 339.769 261.595 339.252C261.924 338.736 262.564 338.086 263.467 337.584C264.37 337.083 265.339 336.848 266.045 336.793C266.75 336.739 267.183 336.825 267.174 336.88V336.887Z" fill="white"/>
<path d="M193.365 207.218C193.365 207.962 199.979 276.563 202.519 281.043C205.05 285.522 255.046 336.785 255.046 336.785L275.905 324.819L231.6 271.371L230.359 221.306L220.085 201.673L193.355 207.218H193.365Z" fill="#263238"/>
<path d="M255.912 193.49C256.439 194.531 263.316 210.883 263.834 217.821C264.361 224.768 248.95 347.992 248.95 347.992L223.5 346.3L230.114 226.796L219.134 201.673L255.912 193.49Z" fill="#263238"/>
<path d="M227.339 220.053C227.339 220.053 227.339 220.132 227.339 220.296C227.348 220.468 227.367 220.703 227.376 221.001C227.423 221.635 227.489 222.559 227.574 223.75C227.762 226.169 228.035 229.693 228.383 234.173C229.107 243.171 230.142 255.991 231.384 271.387V271.434L231.422 271.473C241.762 283.964 253.983 298.733 267.042 314.498C269.978 318.037 272.866 321.522 275.698 324.937L275.764 324.647C268.5 328.813 261.51 332.83 254.905 336.621L255.225 336.66C239.88 320.77 226.727 307.152 217.403 297.488C212.737 292.68 209.03 288.858 206.471 286.227C205.2 284.927 204.222 283.925 203.545 283.235C203.215 282.906 202.961 282.656 202.782 282.468C202.613 282.296 202.51 282.217 202.51 282.217C202.51 282.217 202.585 282.311 202.745 282.491C202.924 282.679 203.159 282.938 203.479 283.275C204.137 283.972 205.106 284.99 206.348 286.305C208.879 288.952 212.548 292.805 217.168 297.637C226.464 307.324 239.569 320.982 254.849 336.903L254.99 337.051L255.178 336.942C261.783 333.159 268.783 329.15 276.046 324.984L276.253 324.866L276.112 324.694C273.28 321.279 270.391 317.787 267.456 314.247C254.388 298.491 242.138 283.737 231.779 271.254L231.817 271.348C230.5 255.959 229.399 243.14 228.627 234.149C228.232 229.67 227.912 226.146 227.696 223.734C227.583 222.544 227.498 221.627 227.433 220.993C227.404 220.695 227.376 220.46 227.357 220.288C227.338 220.132 227.329 220.053 227.32 220.053H227.339Z" fill="#455A64"/>
<path d="M228.872 336.01L229.399 352.079C229.399 352.079 209.952 357.921 209.698 360.897L247.172 361.164L247.585 336.096L228.872 336.002V336.01Z" fill="#263238"/>
<path d="M241 350.811C241.724 350.983 242.213 351.665 242.044 352.275C241.865 352.886 241.037 353.309 240.313 353.145C239.588 352.988 238.958 352.182 239.221 351.594C239.475 351.007 240.482 350.553 241.141 350.85" fill="#E0E0E0"/>
<path d="M247.171 361.172L247.096 358.642L211.194 359.331C211.194 359.331 209.519 359.926 209.698 360.905L247.171 361.172Z" fill="#455A64"/>
<path d="M228.797 351.915C228.797 352.063 229.719 352.142 230.613 352.635C231.525 353.113 231.977 353.778 232.146 353.716C232.316 353.684 232.052 352.776 230.951 352.189C229.86 351.593 228.75 351.766 228.787 351.907L228.797 351.915Z" fill="white"/>
<path d="M224.845 353.238C224.798 353.387 225.589 353.653 226.21 354.295C226.849 354.93 227 355.627 227.179 355.619C227.348 355.642 227.489 354.75 226.699 353.959C225.927 353.16 224.845 353.089 224.845 353.23V353.238Z" fill="white"/>
<path d="M222.578 357.139C222.747 357.17 223.011 356.41 222.55 355.572C222.098 354.734 221.232 354.398 221.157 354.523C221.054 354.648 221.599 355.102 221.966 355.792C222.352 356.473 222.399 357.123 222.578 357.139Z" fill="white"/>
<path d="M229.164 348.242C229.239 348.383 230.076 348.18 231.111 348.242C232.146 348.289 232.946 348.587 233.049 348.454C233.153 348.344 232.372 347.772 231.158 347.71C229.945 347.639 229.079 348.117 229.164 348.234V348.242Z" fill="white"/>
<path d="M215.39 82.913C217.431 82.7016 219.115 81.0727 219.068 79.3576C219.021 77.6426 217.243 76.0842 215.192 75.9511C216.124 74.6433 215.926 72.8577 214.731 71.7066C213.536 70.5632 211.429 70.1481 209.745 70.7355C209.246 69.2945 207.797 68.112 206.057 67.7283C204.316 67.3446 202.35 67.7675 201.061 68.8168C198.727 67.8301 195.604 68.4018 193.986 70.1168C192.207 70.1951 190.58 71.3228 190.156 72.7559C189.733 74.189 190.542 75.8179 192.066 76.5776" fill="#263238"/>
<path d="M222.719 101.434C221.693 97.6828 218.824 90.1022 216.124 83.2656C213.226 75.9199 204.034 71.6519 195.002 73.4687L194.108 73.6489C184.568 76.0609 181.698 84.1583 184.859 92.0287L194.569 120.002L217.544 117.887L215.888 112.28C215.888 112.28 224.845 109.21 222.719 101.442V101.434Z" fill="#FFBF9D"/>
<path d="M215.964 112.249C215.964 112.249 210.112 113.737 202.914 111.724C202.914 111.724 207.392 116.72 216.481 114.16L215.973 112.249H215.964Z" fill="#FF9A6C"/>
<path d="M214.101 90.8145C214.298 91.394 213.866 92.0048 213.141 92.1849C212.417 92.365 211.673 92.044 211.485 91.4645C211.288 90.885 211.72 90.2741 212.445 90.094C213.169 89.9139 213.913 90.235 214.101 90.8145Z" fill="#263238"/>
<path d="M215.22 87.4547C215.098 87.6349 213.913 87.212 212.482 87.5017C211.052 87.7758 210.177 88.5981 209.98 88.4806C209.886 88.4336 209.98 88.1361 210.356 87.768C210.723 87.3999 211.419 86.977 212.304 86.8047C213.198 86.6325 214.025 86.7499 214.534 86.9457C215.051 87.1415 215.277 87.3686 215.22 87.4469V87.4547Z" fill="#263238"/>
<path d="M201.475 93.4614C201.672 94.041 201.239 94.6518 200.515 94.8319C199.791 95.012 199.047 94.6909 198.859 94.1114C198.662 93.5319 199.094 92.9211 199.819 92.741C200.543 92.5609 201.287 92.8819 201.475 93.4614Z" fill="#263238"/>
<path d="M201.399 90.5173C201.296 90.7052 200.073 90.3606 198.671 90.7444C197.269 91.1046 196.479 91.9817 196.272 91.8799C196.168 91.8407 196.234 91.5353 196.582 91.1438C196.921 90.7522 197.561 90.2902 198.436 90.0552C199.311 89.8203 200.148 89.8908 200.675 90.0552C201.211 90.2118 201.456 90.4311 201.399 90.5173Z" fill="#263238"/>
<path d="M208.973 98.2855C208.945 98.2229 209.801 97.9096 211.194 97.4711C211.551 97.3693 211.88 97.2361 211.88 97.0169C211.899 96.7819 211.655 96.4844 211.372 96.1633C210.817 95.4976 210.234 94.8006 209.622 94.0645C207.167 91.073 205.304 88.5827 205.445 88.4965C205.586 88.4182 207.694 90.7754 210.149 93.7669C210.742 94.5031 211.316 95.2157 211.862 95.8892C212.097 96.2103 212.454 96.5548 212.398 97.0404C212.37 97.291 212.144 97.5024 211.927 97.6042C211.711 97.7138 211.504 97.753 211.325 97.8C209.895 98.1524 209.001 98.3403 208.973 98.2777V98.2855Z" fill="#263238"/>
<path d="M199.725 86.6015C199.743 86.9539 198.445 87.1888 197.062 87.8075C195.67 88.3948 194.682 89.1545 194.362 88.9352C194.211 88.8256 194.287 88.4731 194.625 88.0189C194.955 87.5726 195.576 87.0479 196.404 86.6876C197.231 86.3274 198.088 86.2021 198.709 86.2413C199.33 86.2726 199.706 86.437 199.725 86.6015Z" fill="#263238"/>
<path d="M214.148 84.1737C213.922 84.4869 212.774 84.3616 211.457 84.5417C210.13 84.6827 209.067 85.0821 208.757 84.8315C208.616 84.7062 208.728 84.4086 209.161 84.0797C209.585 83.7508 210.347 83.4219 211.25 83.3122C212.153 83.2026 212.99 83.3357 213.508 83.5472C214.035 83.7586 214.242 84.0249 214.148 84.1737Z" fill="#263238"/>
<path d="M214.195 79.8979C214.195 79.8979 210.337 75.5438 207.195 74.9721C203.394 74.283 202.829 77.6817 199.377 77.5799C195.914 77.4781 192.292 76.8124 189.582 79.5612C186.619 82.5684 188.783 83.8292 189.554 87.3141C192.678 101.426 190.768 105.984 187.992 99.5934C187.691 98.8964 185.123 98.8025 183.89 95.8344C182.291 91.9893 180.72 87.2436 180.974 84.2364C181.181 81.6991 182.329 79.7491 184.699 77.3763C188.444 73.6251 194.701 72.3095 199.066 71.8083C203.432 71.3071 212.831 73.7426 214.195 79.8901V79.8979Z" fill="#263238"/>
<path d="M188.529 99.2646C188.124 98.0821 186.609 97.3851 185.217 97.7845C183.523 98.27 181.83 99.476 182.808 102.436C184.549 107.691 190.523 105.154 190.486 105.005C190.457 104.903 189.281 101.457 188.529 99.2646Z" fill="#FFBF9D"/>
<path d="M188.453 103.345C188.453 103.345 188.369 103.431 188.199 103.548C188.039 103.658 187.748 103.776 187.381 103.752C186.647 103.697 185.791 102.945 185.452 102.006C185.283 101.528 185.245 101.05 185.33 100.627C185.396 100.197 185.603 99.8599 185.923 99.7346C186.233 99.5936 186.525 99.7033 186.656 99.8364C186.788 99.9617 186.788 100.079 186.816 100.079C186.835 100.087 186.92 99.9617 186.797 99.7581C186.741 99.6563 186.619 99.5545 186.44 99.484C186.252 99.4135 186.017 99.4135 185.791 99.484C185.311 99.625 185 100.095 184.916 100.565C184.803 101.035 184.822 101.583 185.019 102.115C185.405 103.165 186.384 104.003 187.371 104.018C187.851 104.018 188.181 103.815 188.331 103.65C188.482 103.478 188.482 103.353 188.453 103.345Z" fill="#FF9A6C"/>
<path d="M185.678 88.9825C186.638 89.2879 187.654 89.5933 188.67 89.4758C189.686 89.3584 190.693 88.6536 190.617 87.8C190.589 87.4162 190.354 87.009 190.561 86.6644C190.805 86.2572 191.483 86.2337 192.029 86.1711C193.929 85.9596 195.5 84.4952 195.538 82.9055C196.178 83.3988 197.269 83.1561 197.871 82.6235C198.473 82.0988 198.756 81.3784 199.16 80.7362C199.565 80.094 200.214 79.4597 201.079 79.3892C201.569 79.3501 202.077 79.4989 202.538 79.3657C203.356 79.1386 203.526 78.2381 203.45 77.5254C203.375 76.8128 203.243 75.9827 203.846 75.4658C204.401 74.9881 205.304 75.0194 206.104 74.9568C206.903 74.8941 207.854 74.5496 207.863 73.8839C207.863 73.5315 207.6 73.2261 207.299 72.9833C205.934 71.887 203.601 71.7382 202.058 72.6622C200.929 71.0412 198.567 70.0701 196.338 70.3129C194.098 70.5556 192.123 72.0044 191.539 73.8134C189.902 73.0695 187.823 73.0303 186.148 73.7273C184.474 74.4164 183.251 75.8182 182.978 77.3531C181.331 77.3218 179.713 78.1754 179.036 79.4284C178.358 80.6814 178.669 82.2476 179.788 83.2579C178.8 84.0331 178.095 85.1765 178.386 86.2729C178.678 87.3771 180.277 88.2072 181.463 87.6668C181.199 88.6222 181.952 89.6951 183.081 89.977C184.21 90.2511 185.546 89.6951 185.941 88.771" fill="#263238"/>
<path d="M202.999 74.1265C202.999 74.1265 203.018 74.1578 203.027 74.2204C203.036 74.2831 203.065 74.3849 203.065 74.5102C203.074 74.7686 203.065 75.1524 202.895 75.6222C202.726 76.0843 202.415 76.6481 201.851 77.1571C201.296 77.6662 200.468 78.136 199.424 78.3005L199.499 78.1595C199.828 78.5746 199.932 79.1306 199.79 79.6475C199.668 80.1722 199.386 80.6734 199.075 81.1667C198.915 81.4095 198.793 81.6757 198.539 81.9185C198.295 82.1534 197.975 82.3179 197.617 82.4354C196.921 82.6546 196.055 82.6312 195.397 82.2318L195.623 82.13C195.764 83.2185 195.35 84.4088 194.39 85.2859C193.891 85.7715 193.205 86.1395 192.471 86.2727C191.737 86.4136 190.994 86.3745 190.307 86.3118L190.457 86.2178C190.307 86.9461 189.94 87.6118 189.422 88.1522C188.914 88.6925 188.152 89.0997 187.353 89.0997C185.772 89.1389 184.474 88.3009 183.994 87.3612L184.154 87.3847C183.504 87.8702 182.714 88.066 182.046 88.0895C181.369 88.1208 180.785 87.9877 180.362 87.8311C179.929 87.6666 179.647 87.4708 179.468 87.3299C179.299 87.1811 179.224 87.0949 179.224 87.0871C179.252 87.0558 179.553 87.4473 180.409 87.7449C180.832 87.8859 181.397 88.0034 182.046 87.9564C182.686 87.9172 183.429 87.7214 184.031 87.2594L184.135 87.1811L184.191 87.2907C184.662 88.16 185.894 88.9431 187.353 88.8961C188.077 88.8961 188.745 88.5281 189.225 88.019C189.705 87.51 190.053 86.8678 190.194 86.1865L190.213 86.0769H190.344C191.022 86.1474 191.737 86.1865 192.414 86.0534C193.101 85.9281 193.713 85.5992 194.192 85.1371C195.096 84.3149 195.481 83.195 195.359 82.1613L195.331 81.9028L195.585 82.0595C196.149 82.404 196.921 82.4354 197.551 82.2318C197.862 82.1378 198.153 81.9812 198.37 81.7854C198.577 81.5896 198.709 81.3233 198.878 81.0806C199.188 80.595 199.461 80.1095 199.583 79.624C199.715 79.1384 199.631 78.6529 199.339 78.277L199.254 78.1595L199.414 78.136C200.402 77.9951 201.202 77.5565 201.747 77.0788C202.312 76.5933 202.622 76.0608 202.811 75.6144C203.159 74.6981 202.98 74.1421 203.027 74.1421L202.999 74.1265Z" fill="#455A64"/>
<path d="M205.238 100.721C207.054 100.635 208.879 100.737 210.667 101.019L210.695 101.05C210.789 102.076 210.751 103.235 209.886 103.971C209.237 104.519 208.211 104.699 207.327 104.48C206.442 104.261 205.774 103.775 205.417 103.07C205.059 102.366 205.153 101.465 205.229 100.721H205.238Z" fill="#FF9A6C"/>
<path d="M208.889 104.355C208.87 104.284 208.192 104.644 207.167 104.308C206.668 104.143 206.141 103.814 205.812 103.298C205.473 102.781 205.332 102.123 205.379 101.426C205.389 101.269 205.407 101.042 205.445 100.948C205.483 100.909 205.407 100.948 205.473 100.932H205.756C206.16 100.956 206.546 100.972 206.932 100.987C207.628 101.011 208.296 101.026 208.926 101.042C210.065 101.066 210.77 101.05 210.77 100.995C210.77 100.94 210.074 100.854 208.945 100.768C208.315 100.721 207.656 100.674 206.96 100.627C206.574 100.604 206.188 100.58 205.784 100.557C205.671 100.557 205.596 100.541 205.455 100.541C205.304 100.517 205.031 100.674 205.012 100.815C204.937 101.058 204.946 101.199 204.918 101.402C204.871 102.146 205.031 102.89 205.445 103.47C205.84 104.057 206.489 104.425 207.063 104.566C207.637 104.723 208.155 104.668 208.465 104.582C208.785 104.488 208.917 104.378 208.898 104.363L208.889 104.355Z" fill="#263238"/>
<path d="M171.631 128.827L136.011 137.551L124.288 124.755C124.363 126.258 109.79 124.355 109.79 124.355C120.176 145.116 125.85 152.054 127.393 152.65C131.307 154.169 160.943 153.95 163.286 153.488C165.629 153.018 187.014 150.48 187.014 150.48L183.1 125.554L174.209 127.895C173.315 128.13 172.45 128.443 171.631 128.835V128.827Z" fill="#455A64"/>
<path d="M257.671 185.494C255.62 179.033 251.085 164.303 251.085 164.303L241.743 118.553L220.79 118.694L219.05 115.632C218.683 114.982 217.827 114.614 216.98 114.747L194.776 118.044C193.76 118.193 193.064 118.991 193.205 119.837L193.619 122.312L176.702 127.535L174.868 148.022L188.482 194.68L189.319 201.25C189.517 202.801 190.495 204.218 192.019 205.174L194.447 206.693L255.827 194.899L257.342 191.438C258.179 189.535 258.292 187.46 257.671 185.494Z" fill="#455A64"/>
<path d="M193.365 205.597L193.939 212.504L259.553 199.77L257.21 190.905L193.365 205.597Z" fill="#455A64"/>
<path d="M251.17 195.236C251.029 195.252 251.085 196.505 251.283 198.047C251.49 199.59 251.763 200.827 251.904 200.812C252.045 200.796 251.988 199.543 251.791 198C251.584 196.458 251.311 195.22 251.17 195.236Z" fill="#263238"/>
<path d="M240.736 197.248C240.595 197.272 240.764 198.54 241.112 200.083C241.46 201.626 241.846 202.855 241.987 202.84C242.129 202.816 241.959 201.548 241.611 200.005C241.263 198.462 240.877 197.233 240.736 197.248Z" fill="#263238"/>
<path d="M229.794 199.935C229.653 199.958 229.794 201.164 230.114 202.629C230.434 204.093 230.801 205.268 230.942 205.252C231.083 205.229 230.942 204.023 230.622 202.558C230.302 201.094 229.935 199.919 229.803 199.935H229.794Z" fill="#263238"/>
<path d="M216.133 202.59C215.992 202.613 216.18 203.976 216.556 205.636C216.923 207.296 217.337 208.628 217.478 208.604C217.62 208.581 217.431 207.218 217.055 205.558C216.688 203.897 216.274 202.566 216.133 202.59Z" fill="#263238"/>
<path d="M203.347 205.025C203.215 205.056 203.516 206.333 204.034 207.868C204.551 209.41 205.078 210.632 205.21 210.601C205.341 210.569 205.04 209.293 204.523 207.758C204.006 206.215 203.479 204.994 203.347 205.025Z" fill="#263238"/>
<path d="M241.733 118.56L244.104 118.6C246.983 118.647 249.806 119.304 252.29 120.518L272.988 130.574L267.964 105.623L284.297 102.843C284.297 102.843 293.894 135.288 293.866 140.433C293.809 150.802 284.231 154.373 274.644 151.921C271.784 151.193 237.575 138.232 237.575 138.232L241.733 118.568V118.56Z" fill="#455A64"/>
<path d="M250.624 167.294C250.766 167.278 249.251 157.56 247.237 145.586C245.233 133.612 243.493 123.917 243.352 123.933C243.211 123.948 244.725 133.667 246.739 145.649C248.743 157.622 250.483 167.318 250.624 167.302V167.294Z" fill="#263238"/>
<path d="M235.91 162.712C235.91 162.712 235.787 162.814 235.599 163.041C235.383 163.308 235.11 163.629 234.79 164.02C234.056 164.929 233.059 166.15 231.855 167.638C229.371 170.685 225.871 174.866 221.853 179.377C217.827 183.888 214.035 187.882 211.241 190.748C209.876 192.142 208.766 193.285 207.929 194.131L207.035 195.055C206.838 195.267 206.734 195.384 206.753 195.4C206.772 195.416 206.894 195.314 207.11 195.11C207.374 194.875 207.684 194.585 208.07 194.233C208.898 193.466 210.074 192.338 211.504 190.928C214.364 188.109 218.212 184.139 222.249 179.62C226.275 175.101 229.728 170.888 232.146 167.795C233.351 166.252 234.31 164.983 234.95 164.106C235.242 163.699 235.486 163.362 235.684 163.088C235.844 162.853 235.919 162.728 235.91 162.72V162.712Z" fill="#263238"/>
<path d="M228.731 151.616C228.731 151.616 228.43 151.953 227.978 152.603C227.48 153.323 226.83 154.24 226.059 155.352C224.441 157.67 222.183 160.865 219.586 164.342C216.989 167.819 214.552 170.92 212.765 173.152C211.918 174.217 211.203 175.11 210.657 175.799C210.159 176.425 209.905 176.786 209.933 176.801C209.961 176.817 210.272 176.496 210.817 175.893C211.363 175.298 212.134 174.413 213.057 173.316C214.919 171.124 217.413 168.038 220.009 164.561C222.606 161.076 224.826 157.858 226.369 155.493C227.141 154.31 227.752 153.347 228.148 152.681C228.552 152.008 228.759 151.632 228.731 151.616Z" fill="#263238"/>
<path d="M220.254 118.725C220.216 118.662 218.862 119.218 216.594 119.938C214.327 120.659 211.119 121.489 207.468 121.982C203.818 122.476 200.449 122.531 198.031 122.444C195.604 122.358 194.117 122.186 194.099 122.257C194.099 122.288 194.466 122.35 195.134 122.452C195.802 122.554 196.789 122.664 198.003 122.742C200.44 122.906 203.846 122.891 207.543 122.397C211.241 121.896 214.477 121.011 216.716 120.213C217.846 119.813 218.739 119.461 219.332 119.179C219.934 118.905 220.254 118.748 220.235 118.717L220.254 118.725Z" fill="#263238"/>
<g opacity="0.3">
<path d="M232.485 167.357C230.801 177.772 222.305 187.24 210.789 191.54L232.485 167.357Z" fill="black"/>
</g>
<path d="M172.807 138.882C172.666 138.914 174.331 144.983 176.524 152.438C178.716 159.901 180.597 165.923 180.738 165.9C180.87 165.869 179.214 159.799 177.022 152.344C174.83 144.889 172.948 138.859 172.807 138.89V138.882Z" fill="#263238"/>
<path d="M120.195 116.4C120.195 116.4 122.218 116.047 123.215 117.496C124.213 118.945 125.163 122.257 125.069 123.878C125.069 123.878 127.938 124.293 128.042 125.272C128.145 126.251 127.44 127.207 124.683 127.175C124.683 127.175 122.848 130.073 121.061 129.047C119.273 128.021 119.838 126.823 119.838 126.823C119.838 126.823 118.201 129.078 115.67 126.181C115.67 126.181 114.55 126.909 113.299 126.651C112.066 126.4 111.568 125.687 111.568 125.687C111.568 125.687 110.006 126.4 109.093 125.476C108.181 124.552 105.179 120.707 104.681 119.462C104.182 118.216 104.643 116.564 105.913 115.898C107.183 115.233 109.31 115.851 109.31 115.851C109.31 115.851 111.304 114.113 113.741 115.499C113.741 115.499 117.316 112.86 120.186 116.392L120.195 116.4Z" fill="#FFBF9D"/>
<path d="M108.783 119.32C108.642 119.367 109.244 120.8 110.072 122.515C110.486 123.377 110.834 124.16 111.06 124.732C111.285 125.303 111.379 125.671 111.455 125.664C111.521 125.664 111.549 125.272 111.408 124.661C111.267 124.05 110.966 123.236 110.552 122.367C109.714 120.636 108.905 119.289 108.783 119.328V119.32Z" fill="#FF9A6C"/>
<path d="M112.763 118.521C112.631 118.553 113.111 120.307 113.882 122.437C114.654 124.567 115.529 126.227 115.66 126.18C115.792 126.141 115.124 124.434 114.362 122.312C113.59 120.189 112.894 118.49 112.753 118.521H112.763Z" fill="#FF9A6C"/>
<path d="M118.003 118.569C117.862 118.616 118.671 120.425 119.302 122.727C119.603 123.878 119.894 124.943 119.932 125.687C119.979 126.447 119.668 126.87 119.744 126.901C119.781 126.94 120.242 126.525 120.289 125.695C120.336 124.873 120.101 123.808 119.8 122.633C119.16 120.284 118.125 118.522 118.003 118.569Z" fill="#FF9A6C"/>
<path d="M123.977 119.094C123.818 119.133 124.504 120.981 124.768 123.307C124.89 124.466 124.862 125.547 124.796 126.291C124.721 127.042 124.354 127.426 124.41 127.465C124.448 127.512 124.965 127.152 125.144 126.338C125.313 125.547 125.389 124.474 125.266 123.268C124.984 120.864 124.072 119.062 123.968 119.094H123.977Z" fill="#FF9A6C"/>
<path d="M125.898 232.243C125.898 232.243 120.174 227.434 118.538 256.525C116.991 283.982 114.722 323.566 122.643 340.554C123.502 342.39 125.021 343.971 127.038 345.002C128.675 345.845 130.953 346.688 133.901 347.072C140.801 347.968 168.065 347.463 168.065 347.463C168.065 347.463 183.537 347.463 183.772 336.858C183.962 328.135 183.772 309.16 183.772 309.16L125.889 232.243H125.898Z" fill="#263238"/>
<g opacity="0.3">
<path d="M125.898 232.243C125.898 232.243 120.174 227.434 118.538 256.525C116.991 283.982 114.722 323.566 122.643 340.554C123.502 342.39 125.021 343.971 127.038 345.002C128.675 345.845 130.953 346.688 133.901 347.072C140.801 347.968 168.065 347.463 168.065 347.463C168.065 347.463 183.537 347.463 183.772 336.858C183.962 328.135 183.772 309.16 183.772 309.16L125.889 232.243H125.898Z" fill="black"/>
</g>
<path d="M210.104 181.911C210.104 181.911 208.368 186.826 204.805 187.338C201.233 187.85 173.101 188.565 173.101 188.565L170.352 193.277H165.053L161.201 174.377L164.484 174.941C165.605 175.137 166.545 175.769 166.998 176.65C167.495 177.621 168.589 178.291 169.846 178.396L210.113 181.904L210.104 181.911Z" fill="#263238"/>
<path d="M208.92 182.641C211.009 182.506 212.537 180.933 212.238 179.202C211.316 173.805 207.916 163.313 195.392 161.762C184.305 160.385 176.257 160.806 172.007 161.265C170.063 161.476 169.096 162.944 168.87 164.57C167.802 171.991 168.662 181.196 171.239 182.325C173.924 183.507 199.778 183.251 208.92 182.649V182.641Z" fill="#76C7E1"/>
<path d="M192.136 161.807C192.136 161.807 192.417 162.056 192.851 162.552C193.285 163.042 193.882 163.779 194.587 164.705C195.998 166.557 197.779 169.206 199.371 172.277C200.962 175.348 202.065 178.246 202.716 180.368C203.042 181.429 203.277 182.295 203.413 182.897C203.548 183.499 203.612 183.831 203.576 183.838C203.539 183.838 203.422 183.522 203.232 182.927C203.051 182.34 202.762 181.482 202.4 180.436C201.667 178.343 200.528 175.483 198.946 172.427C197.354 169.379 195.636 166.722 194.307 164.848C193.647 163.907 193.086 163.154 192.697 162.635C192.308 162.116 192.109 161.822 192.136 161.807Z" fill="#263238"/>
<path d="M203.747 251.94C203.747 251.94 209.471 247.13 211.108 276.221C212.654 303.679 214.924 343.263 207.003 360.251C206.144 362.087 204.624 363.668 202.608 364.699C200.971 365.542 198.692 366.385 195.744 366.769C188.845 367.664 161.581 367.16 161.581 367.16C161.581 367.16 146.109 367.16 145.874 356.555C145.684 347.831 145.874 328.856 145.874 328.856L203.756 251.94H203.747Z" fill="#263238"/>
<path d="M203.747 251.94C203.747 251.94 203.666 252.068 203.485 252.316C203.295 252.572 203.033 252.933 202.68 253.415C201.957 254.386 200.908 255.809 199.533 257.653C196.766 261.356 192.733 266.745 187.642 273.549C177.433 287.15 162.992 306.389 146.046 328.954L146.082 328.856C146.082 337.121 146.082 345.791 146.091 354.771C146.091 355.892 146.037 357.029 146.263 358.12C146.462 359.219 146.878 360.296 147.538 361.267C148.849 363.231 151.119 364.676 153.641 365.557C158.751 367.461 164.574 366.897 170.253 367.07C176.239 367.115 182.162 367.13 187.995 366.994C190.897 366.904 193.818 366.866 196.603 366.437C197.996 366.204 199.352 365.843 200.627 365.361C201.902 364.872 203.132 364.285 204.127 363.487C205.131 362.697 205.945 361.748 206.514 360.71C206.813 360.198 206.993 359.633 207.22 359.091C207.437 358.542 207.654 358 207.871 357.45C208.106 356.908 208.268 356.352 208.431 355.795C208.594 355.238 208.757 354.681 208.92 354.131C209.281 353.032 209.498 351.911 209.742 350.797C210.276 348.584 210.565 346.356 210.927 344.173C211.09 343.074 211.189 341.983 211.316 340.891C211.433 339.808 211.578 338.724 211.65 337.647C212.383 329.037 212.482 320.818 212.419 313.14C212.338 305.455 212.075 298.305 211.777 291.772C211.47 285.246 211.153 279.337 210.855 274.151C210.52 268.973 210.023 264.517 209.326 260.912C208.621 257.322 207.771 254.522 206.55 252.888C206.243 252.489 205.917 252.158 205.565 251.947C205.212 251.729 204.85 251.654 204.561 251.669C203.973 251.722 203.756 251.962 203.756 251.94C203.756 251.94 203.801 251.887 203.928 251.819C204.055 251.752 204.263 251.654 204.561 251.631C204.859 251.609 205.248 251.684 205.61 251.895C205.972 252.105 206.315 252.437 206.632 252.843C207.889 254.491 208.775 257.291 209.507 260.882C210.231 264.495 210.755 268.95 211.117 274.136C211.442 279.322 211.786 285.231 212.112 291.757C212.428 298.29 212.717 305.448 212.808 313.133C212.889 320.818 212.808 329.044 212.084 337.67C212.021 338.746 211.877 339.83 211.759 340.922C211.632 342.013 211.533 343.112 211.37 344.211C211.017 346.409 210.719 348.637 210.186 350.864C209.95 351.978 209.724 353.107 209.363 354.214C209.2 354.771 209.037 355.328 208.874 355.892C208.721 356.457 208.549 357.014 208.314 357.563C208.097 358.113 207.88 358.662 207.654 359.219C207.427 359.769 207.247 360.333 206.93 360.875C206.333 361.959 205.483 362.945 204.434 363.773C203.385 364.608 202.11 365.218 200.808 365.715C199.497 366.219 198.104 366.58 196.685 366.821C193.818 367.258 190.906 367.295 187.995 367.386C182.153 367.521 176.23 367.506 170.235 367.461C167.377 367.423 164.538 367.386 161.717 367.356C158.868 367.295 156.047 366.829 153.443 365.918C150.856 365.015 148.487 363.517 147.122 361.455C146.434 360.439 146.009 359.31 145.801 358.173C145.575 357.029 145.639 355.892 145.63 354.771C145.63 345.791 145.63 337.113 145.639 328.849V328.796L145.675 328.751C162.675 306.208 177.171 286.992 187.425 273.406C192.552 266.632 196.621 261.258 199.416 257.57C200.808 255.741 201.884 254.333 202.617 253.37C202.978 252.903 203.259 252.542 203.449 252.294C203.639 252.053 203.738 251.932 203.738 251.932L203.747 251.94Z" fill="#455A64"/>
<path d="M209.055 226.876L196.386 219.952C193.511 209.181 170.018 186.834 170.018 186.834C170.018 186.834 145.566 137.751 124.47 126.175C103.373 114.599 0.340454 116.059 0.340454 116.059L-5.1123 116.127C-5.1123 116.127 -114.294 114.607 -135.391 126.175C-156.487 137.751 -180.939 186.834 -180.939 186.834C-180.939 186.834 -204.432 209.181 -207.307 219.952L-219.976 226.876C-222.535 228.276 -224.036 230.685 -223.928 233.236C-223.159 251.414 -218.954 323.588 -211.63 331.687C-204.613 339.439 -138.32 335.33 -120.298 335.307C-94.4453 335.27 -13.947 334.389 -13.947 334.389L104.359 334.148C117.778 332.951 191.585 340.463 200.691 331.687C208.648 324.017 212.22 251.414 212.989 233.236C213.097 230.685 211.596 228.276 209.037 226.876H209.055Z" fill="#76C7E1"/>
<path d="M118.755 129.465C118.221 128.689 117.245 128.2 116.178 128.155L-3.61113 123.88L-4.55159 123.85L-4.56966 123.917L-127.171 128.155C-128.247 128.193 -129.214 128.689 -129.748 129.465L-160.981 174.829C-162.039 176.356 -160.746 178.276 -158.63 178.321C-155.203 178.404 -150.112 178.449 -144.207 178.246C-134.604 177.915 -58.1929 178.065 -17.8625 178.178L-17.8805 178.246C-17.8805 178.246 -13.2054 178.231 -5.50105 178.208C2.20334 178.231 6.87842 178.246 6.87842 178.246L6.86032 178.178C47.1908 178.073 123.602 177.922 133.205 178.246C139.426 178.456 144.725 178.404 148.153 178.313C150.034 178.261 151.173 176.56 150.242 175.197L118.755 129.465Z" fill="#455A64"/>
<path d="M-149.353 169.703L138.748 169.056L141.081 173.82L1.87772 174.58L-152.065 173.745L-149.353 169.703Z" fill="#F1BF37"/>
<g opacity="0.5">
<path d="M-149.353 169.703L137.925 169.056L141.081 173.82L1.87772 174.58L-152.065 173.745L-149.353 169.703Z" fill="black"/>
</g>
<path d="M186.06 325.651C185.571 324.8 184.54 324.19 182.506 324.379C176.854 324.913 117.606 326.012 109.45 324.379C101.284 322.745 74.0837 297.049 62.5723 295.303C52.9147 293.835 5.95592 293.052 -8.92838 293.406C-23.8217 293.044 -70.7805 293.835 -80.4291 295.303C-91.9405 297.056 -118.734 325.259 -126.9 326.892C-135.065 328.526 -194.72 324.913 -200.372 324.379C-202.415 324.183 -203.446 324.792 -203.925 325.651C-204.929 327.419 -203.301 329.459 -200.941 329.519C-188.327 329.813 -139.596 330.28 -130.48 330.144C-120.913 330.001 -23.0893 328.511 -6.69482 328.262C18.0189 328.39 102.46 328.842 111.403 328.947C121.947 329.068 170.488 329.813 183.112 329.519C185.463 329.467 187.099 327.427 186.096 325.651H186.06Z" fill="#263238"/>
<path d="M-25.5579 127.252C-25.0696 127.252 -23.6046 134.335 -16.7412 134.199C-9.8778 134.064 6.87834 134.199 6.87834 134.199V125.355L-25.5579 127.26V127.252Z" fill="#263238"/>
<path d="M-125.534 322.828C-125.534 322.828 -125.344 322.798 -125.037 322.632C-124.72 322.474 -124.277 322.218 -123.707 321.842C-122.577 321.104 -120.976 319.953 -118.951 318.417C-114.918 315.354 -109.203 310.808 -102.33 305.035C-100.612 303.59 -98.8308 302.069 -96.9861 300.458C-95.1233 298.878 -93.369 297.071 -91.1174 295.543C-88.8657 294.038 -86.2343 292.781 -83.3406 291.908C-80.447 291.027 -77.3092 290.508 -74.0719 290.305C-72.4532 290.207 -70.8074 290.207 -69.1617 290.192C-67.5069 290.177 -65.834 290.162 -64.143 290.154C-60.761 290.124 -57.3157 290.102 -53.7981 290.071C-46.7719 290.019 -39.5016 289.958 -32.0504 289.898C-2.24561 289.695 24.7288 289.507 44.2791 289.371C54.0362 289.326 61.9305 289.281 67.4104 289.258C70.1323 289.258 72.2482 289.251 73.6951 289.251C74.4004 289.251 74.943 289.251 75.3318 289.251C75.7026 289.251 75.8925 289.266 75.8925 289.266C75.8925 289.266 75.7026 289.281 75.3318 289.289C74.943 289.296 74.4004 289.304 73.6951 289.319C72.2392 289.341 70.1232 289.364 67.4104 289.401C61.9305 289.462 54.0362 289.537 44.2791 289.642C24.7288 289.808 -2.24561 290.034 -32.0504 290.282C-39.5016 290.335 -46.7719 290.395 -53.7981 290.448C-57.3067 290.47 -60.761 290.5 -64.143 290.523C-65.834 290.538 -67.5069 290.546 -69.1617 290.561C-70.8165 290.576 -72.4442 290.576 -74.0447 290.666C-77.2459 290.869 -80.3475 291.374 -83.196 292.232C-86.0535 293.09 -88.6487 294.316 -90.8732 295.799C-93.0887 297.29 -94.852 299.088 -96.7329 300.669C-98.5776 302.272 -100.377 303.785 -102.095 305.23C-108.995 310.988 -114.746 315.504 -118.824 318.538C-120.868 320.051 -122.487 321.187 -123.644 321.91C-124.214 322.271 -124.675 322.527 -125 322.67C-125.326 322.82 -125.525 322.828 -125.525 322.828H-125.534Z" fill="#263238"/>
<g opacity="0.3">
<path d="M-93.3511 267.017C-40.3789 278.758 15.5865 275.808 70.0417 270.577C78.4514 269.771 87.5936 268.605 93.3266 263.426" fill="black"/>
</g>
<path d="M104.069 226.364C83.3796 223.933 39.8842 222.721 -3.29477 222.744C-46.4737 222.721 -89.9782 223.933 -110.659 226.364C-117.143 227.125 -121.365 232.484 -119.512 237.715C-119.494 237.775 -119.466 237.835 -119.448 237.903C-117.188 244.09 -108.263 263.833 -94.0565 266.791C-87.4643 268.161 -50.3169 269.478 -10.6736 269.749V269.794C-8.214 269.794 -5.75439 269.794 -3.29477 269.779C-0.835152 269.786 1.62447 269.794 4.08409 269.794V269.749C43.7183 269.485 80.8748 268.161 87.4669 266.791C101.682 263.833 110.598 244.09 112.859 237.903C112.877 237.843 112.904 237.782 112.922 237.715C114.767 232.484 110.553 227.125 104.069 226.364Z" fill="#263238"/>
<path d="M109.305 264.172C109.305 264.172 109.124 264.262 108.762 264.42C108.383 264.586 107.84 264.811 107.144 265.12C106.42 265.429 105.543 265.797 104.494 266.241C103.97 266.46 103.409 266.708 102.794 266.941C102.179 267.167 101.519 267.416 100.823 267.672C95.2979 269.817 87.0238 272.474 76.48 274.807C65.9181 277.08 53.0956 279.022 38.7177 280.038C24.3488 281.144 8.47885 281.385 -8.1507 281.333C-24.7893 281.265 -40.6593 280.64 -54.9739 279.06C-69.2794 277.517 -81.9844 275.025 -92.3293 272.135C-102.692 269.282 -110.686 266.083 -116.048 263.667C-117.405 263.08 -118.562 262.501 -119.584 262.011C-120.606 261.53 -121.447 261.093 -122.125 260.739C-122.794 260.386 -123.31 260.122 -123.671 259.934C-124.015 259.753 -124.187 259.648 -124.187 259.648C-124.187 259.648 -123.997 259.731 -123.644 259.904C-123.273 260.085 -122.758 260.34 -122.071 260.679C-121.384 261.025 -120.534 261.447 -119.503 261.921C-118.481 262.395 -117.314 262.967 -115.949 263.539C-110.568 265.91 -102.575 269.064 -92.2118 271.879C-81.8759 274.724 -69.189 277.185 -54.9015 278.706C-40.614 280.264 -24.7622 280.881 -8.13262 280.941C8.48788 281.001 24.3488 280.768 38.6905 279.684C53.0413 278.683 65.8548 276.779 76.4077 274.543C86.9515 272.248 95.2165 269.636 100.76 267.536C101.456 267.288 102.116 267.047 102.74 266.829C103.355 266.603 103.916 266.354 104.44 266.144C105.489 265.715 106.384 265.353 107.108 265.06C107.822 264.774 108.365 264.555 108.753 264.397C109.124 264.247 109.323 264.187 109.323 264.187L109.305 264.172Z" fill="#263238"/>
<path d="M111.855 235.976C111.855 236.081 60.2032 236.172 -3.51174 236.172C-67.2267 236.172 -118.888 236.081 -118.888 235.976C-118.888 235.871 -67.2448 235.78 -3.51174 235.78C60.2213 235.78 111.855 235.871 111.855 235.976Z" fill="#455A64"/>
<path d="M111.855 230.128C111.855 230.233 60.2032 230.324 -3.51174 230.324C-67.2267 230.324 -118.888 230.233 -118.888 230.128C-118.888 230.022 -67.2448 229.932 -3.51174 229.932C60.2213 229.932 111.855 230.022 111.855 230.128Z" fill="#455A64"/>
<path d="M79.2018 224.28C79.2018 224.386 42.2261 224.476 -3.37627 224.476C-48.9787 224.476 -85.9634 224.386 -85.9634 224.28C-85.9634 224.175 -48.9968 224.084 -3.37627 224.084C42.2442 224.084 79.2018 224.175 79.2018 224.28Z" fill="#455A64"/>
<path d="M111.855 241.907C111.855 242.013 60.2032 242.103 -3.51174 242.103C-67.2267 242.103 -118.888 242.013 -118.888 241.907C-118.888 241.802 -67.2448 241.711 -3.51174 241.711C60.2213 241.711 111.855 241.802 111.855 241.907Z" fill="#455A64"/>
<path d="M106.728 247.838C106.728 247.944 57.1286 248.034 -4.04539 248.034C-65.2193 248.034 -114.828 247.944 -114.828 247.838C-114.828 247.733 -65.2374 247.643 -4.04539 247.643C57.1466 247.643 106.728 247.733 106.728 247.838Z" fill="#455A64"/>
<path d="M104.485 253.769C104.485 253.875 56.2245 253.965 -3.29461 253.965C-62.8137 253.965 -111.084 253.875 -111.084 253.769C-111.084 253.664 -62.8318 253.574 -3.29461 253.574C56.2426 253.574 104.485 253.664 104.485 253.769Z" fill="#455A64"/>
<path d="M98.9149 259.701C98.9149 259.806 53.1407 259.897 -3.30389 259.897C-59.7485 259.897 -105.532 259.806 -105.532 259.701C-105.532 259.596 -59.7666 259.505 -3.30389 259.505C53.1588 259.505 98.9149 259.596 98.9149 259.701Z" fill="#455A64"/>
<path d="M91.9883 265.624C91.9883 265.73 49.578 265.82 -2.72509 265.82C-55.0281 265.82 -97.4475 265.73 -97.4475 265.624C-97.4475 265.519 -55.0462 265.429 -2.72509 265.429C49.596 265.429 91.9883 265.519 91.9883 265.624Z" fill="#455A64"/>
<path d="M100.868 319.795C100.868 319.9 52.3993 319.991 -7.37298 319.991C-67.1453 319.991 -115.623 319.9 -115.623 319.795C-115.623 319.689 -67.1634 319.599 -7.37298 319.599C52.4174 319.599 100.868 319.689 100.868 319.795Z" fill="#455A64"/>
<path d="M50.8621 326.358H44.5141L44.062 319.795H51.3414L50.8621 326.358Z" fill="#455A64"/>
<path d="M97.5134 317.416C86.0291 309.182 70.5571 296.514 62.5995 295.303C52.9419 293.835 5.98306 293.052 -8.90125 293.406C-23.7946 293.044 -70.7534 293.835 -80.402 295.303C-87.8079 296.432 -101.544 308.512 -112.567 317.416H97.5315H97.5134Z" fill="#455A64"/>
<path d="M92.3138 314.443C92.3138 314.549 47.3806 314.639 -8.04217 314.639C-63.4649 314.639 -108.407 314.549 -108.407 314.443C-108.407 314.338 -63.483 314.248 -8.04217 314.248C47.3987 314.248 92.3138 314.338 92.3138 314.443Z" fill="#263238"/>
<path d="M88.3802 310.664C88.3802 310.77 45.3731 310.86 -7.65338 310.86C-60.6799 310.86 -103.696 310.77 -103.696 310.664C-103.696 310.559 -60.6979 310.469 -7.65338 310.469C45.3912 310.469 88.3802 310.559 88.3802 310.664Z" fill="#263238"/>
<path d="M82.4032 306.795C82.4032 306.901 41.7291 306.991 -8.43085 306.991C-58.5908 306.991 -99.2739 306.901 -99.2739 306.795C-99.2739 306.69 -58.6089 306.6 -8.43085 306.6C41.7472 306.6 82.4032 306.69 82.4032 306.795Z" fill="#263238"/>
<path d="M78.4154 302.927C78.4154 303.032 39.6764 303.122 -8.10529 303.122C-55.887 303.122 -94.635 303.032 -94.635 302.927C-94.635 302.821 -55.9051 302.731 -8.10529 302.731C39.6945 302.731 78.4154 302.821 78.4154 302.927Z" fill="#263238"/>
<path d="M71.7778 299.239C71.7778 299.344 35.8602 299.434 -8.44006 299.434C-52.7403 299.434 -88.667 299.344 -88.667 299.239C-88.667 299.133 -52.7584 299.043 -8.44006 299.043C35.8783 299.043 71.7778 299.133 71.7778 299.239Z" fill="#263238"/>
<path d="M64.2545 295.558C64.2545 295.664 31.8002 295.754 -8.21382 295.754C-48.2278 295.754 -80.6912 295.664 -80.6912 295.558C-80.6912 295.453 -48.2459 295.363 -8.21382 295.363C31.8183 295.363 64.2545 295.453 64.2545 295.558Z" fill="#263238"/>
<g opacity="0.3">
<path d="M6.87837 178.246L-161.208 178.027C-161.208 178.027 -154.245 184.952 -141.44 184.892C-129.757 184.839 -16.063 184.884 3.89427 184.892C3.89427 184.892 4.38258 184.892 5.28685 184.892C6.32677 184.892 6.87837 184.892 6.87837 184.892C25.2984 184.884 123.141 184.839 133.25 184.892C144.418 184.952 149.898 178.246 149.898 178.246H6.87837Z" fill="black"/>
</g>
<path d="M150.495 175.265L118.691 129.375C118.194 128.66 117.29 128.2 116.295 128.163L6.87825 124.256L-3.62036 123.88C-4.87729 123.835 -6.13422 123.835 -7.39116 123.88L-17.8898 124.256L-127.307 128.163C-128.301 128.2 -129.206 128.652 -129.703 129.375L-161.506 175.265C-162.528 176.741 -161.452 178.615 -159.417 178.871C-158.965 178.923 -158.486 178.984 -157.97 179.029C-155.194 179.285 -44.195 179.119 -5.51028 179.051C33.1835 179.119 144.183 179.285 146.95 179.029C147.456 178.984 147.945 178.931 148.397 178.871C150.422 178.615 151.507 176.748 150.486 175.265H150.495ZM135.854 173.339L-5.50124 174.136L-146.857 173.339C-149.09 173.324 -150.474 171.314 -149.353 169.711C-143.258 160.934 -127.949 138.971 -125.498 136.435C-121.049 131.836 -52.234 131.226 -15.6291 131.234C-15.412 131.279 -15.186 131.301 -14.9509 131.301C-12.8078 131.286 -9.57045 131.271 -5.50124 131.256C-1.43201 131.271 1.80527 131.286 3.94839 131.301C4.1835 131.301 4.40956 131.279 4.62659 131.234C41.2315 131.234 110.056 131.836 114.496 136.435C116.946 138.971 132.255 160.934 138.35 169.711C139.462 171.314 138.079 173.324 135.854 173.339Z" fill="#263238"/>
<path d="M30.3894 170.794C30.3894 168.175 31.6011 160.776 34.5129 158.804C36.7645 157.283 42.0907 156.824 44.7221 156.696C44.8035 156.696 44.8849 156.696 44.9753 156.696C46.3679 156.711 55.6819 156.915 58.467 158.804C61.3788 160.776 62.5995 168.175 62.5905 170.794V170.869C62.5905 172.495 61.008 173.812 59.0458 173.812H33.9251C31.9719 173.812 30.3804 172.495 30.3804 170.869V170.794H30.3894Z" fill="#263238"/>
<g opacity="0.3">
<path d="M30.3894 170.794C30.3894 168.175 31.6011 160.776 34.5129 158.804C36.7645 157.283 42.0907 156.824 44.7221 156.696C44.8035 156.696 44.8849 156.696 44.9753 156.696C46.3679 156.711 55.6819 156.915 58.467 158.804C61.3788 160.776 62.5995 168.175 62.5905 170.794V170.869C62.5905 172.495 61.008 173.812 59.0458 173.812H33.9251C31.9719 173.812 30.3804 172.495 30.3804 170.869V170.794H30.3894Z" fill="black"/>
</g>
<path d="M43.0763 168.867C43.0763 164.585 45.0566 152.474 49.8312 149.245C53.5206 146.754 62.2378 146.009 66.5421 145.798C66.6778 145.798 66.8134 145.79 66.949 145.798C69.2278 145.82 84.4738 146.159 89.0404 149.253C93.8149 152.482 95.7953 164.6 95.7953 168.875V169.003C95.7953 171.667 93.2 173.828 89.9989 173.828H48.8727C45.6716 173.828 43.0763 171.667 43.0763 169.003V168.875V168.867Z" fill="#263238"/>
<g opacity="0.3">
<path d="M93.4532 294.098C93.4532 294.098 92.775 297.523 102.405 308.851C105.344 312.313 114.685 319.29 118.176 321.857C119.026 322.482 120.129 322.805 121.269 322.768C130.962 322.414 177.704 320.615 185.463 318.718C188.971 317.86 191.612 316.859 193.583 315.896C197.001 314.217 199 311.094 198.855 307.797C198.611 302.205 198.195 292.367 198.195 289.793C198.195 286.135 195.139 283.056 189.442 283.636C185.689 284.012 93.4532 294.106 93.4532 294.106V294.098ZM123.593 293.315L184.17 288.739L185.924 309.069L141.334 315.083L123.602 293.323L123.593 293.315Z" fill="black"/>
</g>
<g opacity="0.3">
<path d="M196.802 241.908C196.802 241.908 201.369 253.454 172.342 258.828C142.953 264.27 99.4667 274.13 99.4667 274.13L122.824 260.273C122.824 260.273 190.011 250.947 191.684 242.389C193.601 232.605 191.684 221.608 191.684 221.608L196.802 241.908Z" fill="black"/>
</g>
<path d="M83.4159 293.752C83.4159 293.752 83.5154 293.714 83.7234 293.661C83.9494 293.609 84.2478 293.533 84.6276 293.443C85.4596 293.255 86.6351 292.976 88.1272 292.63C91.1836 291.96 95.6055 291.004 101.113 289.951C112.117 287.82 127.427 285.269 144.427 282.966C152.936 281.822 161.048 280.768 168.463 279.985C172.161 279.579 175.679 279.187 178.97 278.818C182.253 278.45 185.336 278.088 188.185 278.171C191.015 278.239 193.638 278.818 195.455 279.963C197.3 281.061 198.557 282.341 199.38 283.47C200.212 284.599 200.609 285.585 200.79 286.262C200.98 286.94 200.98 287.309 200.98 287.309C200.89 287.339 200.908 285.781 199.226 283.553C198.394 282.454 197.128 281.204 195.301 280.143C193.502 279.037 190.961 278.495 188.167 278.45C185.363 278.389 182.289 278.758 179.006 279.142C175.715 279.518 172.206 279.917 168.508 280.339C161.111 281.137 153 282.198 144.49 283.35C127.49 285.653 112.181 288.159 101.167 290.222C95.6598 291.238 91.2198 292.156 88.1543 292.773C86.6442 293.089 85.4596 293.338 84.6276 293.511C84.2388 293.586 83.9404 293.646 83.7053 293.691C83.4973 293.729 83.3888 293.744 83.3888 293.744L83.4159 293.752Z" fill="#263238"/>
<path d="M200.492 263.901C200.492 263.901 200.456 263.75 200.447 263.472C200.438 263.148 200.42 262.742 200.401 262.237C200.365 261.116 200.32 259.58 200.257 257.706C200.121 253.882 199.814 248.606 199.199 242.788C198.575 236.97 197.752 231.731 197.083 227.945C196.748 226.094 196.468 224.581 196.26 223.467C196.169 222.97 196.097 222.571 196.043 222.247C195.998 221.969 195.98 221.818 195.998 221.818C196.016 221.818 196.061 221.961 196.133 222.232C196.215 222.548 196.314 222.947 196.441 223.437C196.694 224.483 197.029 226.011 197.408 227.9C198.168 231.678 199.036 236.925 199.66 242.75C200.275 248.576 200.528 253.867 200.582 257.699C200.609 259.61 200.6 261.161 200.582 262.237C200.564 262.734 200.546 263.148 200.537 263.472C200.519 263.75 200.51 263.901 200.492 263.901Z" fill="#263238"/>
<path d="M180.308 211.89C180.218 211.89 180.2 210.58 179.73 208.495C179.269 206.418 178.373 203.588 177.207 200.502C176.04 197.416 174.838 194.661 173.97 192.674C173.554 191.741 173.21 190.951 172.93 190.318C172.685 189.761 172.568 189.445 172.595 189.438C172.622 189.43 172.803 189.724 173.101 190.258C173.391 190.8 173.807 191.59 174.277 192.576C175.236 194.548 176.483 197.296 177.65 200.389C178.825 203.483 179.675 206.343 180.055 208.45C180.173 208.97 180.2 209.459 180.263 209.88C180.327 210.302 180.345 210.663 180.345 210.964C180.345 211.559 180.345 211.89 180.308 211.89Z" fill="#263238"/>
<path d="M174.829 217.16C174.829 217.16 189.957 212.568 191.892 222.331C193.827 232.093 193.628 241.81 191.087 245.22C188.546 248.637 165.189 253.288 165.189 253.288L124.795 260.68C124.795 260.68 121.893 261.184 123.638 258.444C125.6 255.381 136.298 235.736 142.483 230.964C153.895 222.15 174.829 217.152 174.829 217.152V217.16Z" fill="#F5F5F5"/>
<g opacity="0.3">
<path d="M159.917 254.259C159.917 254.259 159.854 231.249 161.879 228.698C163.905 226.146 187.714 216.971 187.714 216.971C187.714 216.971 185.399 215.33 180.643 216.083C175.887 216.835 167.974 218.627 161.409 221.434C154.835 224.242 144.318 228.261 140.394 232.913C138.685 234.93 135.113 239.762 131.704 245.001C127.273 251.812 123.077 259.098 123.077 259.497C123.077 260.333 122.842 261.093 126.767 260.401C135.864 258.782 159.917 254.274 159.917 254.274V254.259Z" fill="black"/>
</g>
<path d="M146.751 252.182C152.165 252.182 156.553 248.529 156.553 244.023C156.553 239.517 152.165 235.864 146.751 235.864C141.337 235.864 136.949 239.517 136.949 244.023C136.949 248.529 141.337 252.182 146.751 252.182Z" fill="#F5F5F5"/>
<path d="M136.958 244.023C136.958 244.023 136.84 243.293 137.175 242.013C137.509 240.756 138.468 238.889 140.729 237.429C141.85 236.714 143.27 236.105 144.915 235.849C146.552 235.608 148.406 235.638 150.169 236.187C151.055 236.443 151.923 236.827 152.71 237.316C153.506 237.798 154.238 238.393 154.835 239.085C156.074 240.448 156.77 242.209 156.788 244.015C156.77 245.829 156.065 247.583 154.835 248.953C154.238 249.645 153.506 250.24 152.71 250.722C151.923 251.211 151.064 251.595 150.169 251.851C148.397 252.4 146.552 252.438 144.915 252.189C143.27 251.933 141.85 251.324 140.729 250.609C138.468 249.148 137.509 247.282 137.175 246.025C136.84 244.745 136.958 244.015 136.958 244.015C137.021 244.015 136.958 244.745 137.356 245.987C137.735 247.207 138.721 249.005 140.928 250.39C142.022 251.068 143.396 251.64 144.979 251.873C146.552 252.091 148.324 252.046 150.015 251.512C150.865 251.264 151.688 250.895 152.439 250.421C153.198 249.961 153.895 249.389 154.455 248.727C155.631 247.425 156.291 245.746 156.309 244.023C156.291 242.299 155.631 240.621 154.455 239.319C153.886 238.656 153.198 238.084 152.439 237.625C151.688 237.158 150.865 236.782 150.015 236.534C148.324 235.999 146.552 235.954 144.979 236.172C143.396 236.398 142.022 236.978 140.928 237.655C138.721 239.04 137.735 240.831 137.356 242.058C136.967 243.3 137.021 244.038 136.958 244.03V244.023Z" fill="#263238"/>
<path d="M146.751 243.669C143.152 243.669 140.023 245.332 138.405 247.778C137.654 246.642 137.229 245.347 137.229 243.962C137.229 239.581 141.497 236.029 146.76 236.029C152.023 236.029 156.291 239.581 156.291 243.962C156.291 245.347 155.866 246.649 155.116 247.778C153.497 245.324 150.368 243.669 146.769 243.669H146.751Z" fill="#E0E0E0"/>
<path d="M142.528 243.751C142.528 245.693 144.418 247.266 146.751 247.266C149.084 247.266 150.974 245.693 150.974 243.751C150.974 241.809 149.084 240.236 146.751 240.236C144.418 240.236 142.528 241.809 142.528 243.751Z" fill="white"/>
<path d="M142.528 243.751C142.528 243.751 142.501 243.676 142.492 243.526C142.483 243.375 142.492 243.157 142.573 242.878C142.7 242.329 143.107 241.501 144.102 240.854C145.051 240.199 146.679 239.807 148.27 240.289C149.853 240.726 151.236 242.118 151.218 243.759C151.236 245.4 149.853 246.8 148.27 247.229C146.679 247.703 145.051 247.312 144.102 246.664C143.116 246.01 142.709 245.189 142.582 244.64C142.51 244.361 142.492 244.135 142.501 243.992C142.501 243.842 142.519 243.767 142.537 243.767C142.582 243.767 142.573 244.083 142.754 244.61C142.935 245.129 143.36 245.882 144.301 246.454C145.205 247.033 146.688 247.349 148.117 246.905C149.536 246.491 150.757 245.242 150.739 243.774C150.757 242.306 149.536 241.057 148.117 240.643C146.688 240.199 145.205 240.515 144.301 241.087C143.36 241.659 142.935 242.412 142.754 242.931C142.573 243.458 142.582 243.774 142.537 243.774L142.528 243.751Z" fill="#263238"/>
<path d="M143.062 238.234C142.899 238.023 143.541 237.323 145.096 236.842C146.606 236.36 149.093 236.217 151.435 237.248C153.768 238.287 155.016 240.086 155.378 241.395C155.758 242.735 155.423 243.578 155.125 243.578C154.781 243.593 154.501 242.863 153.822 241.9C153.162 240.936 152.014 239.732 150.323 238.979C148.632 238.234 146.787 238.114 145.458 238.196C144.12 238.264 143.233 238.482 143.062 238.234Z" fill="white"/>
<path d="M140.602 239.529C140.068 239.22 139.806 238.761 140.077 238.543C140.349 238.325 140.891 238.55 141.244 239.01C141.597 239.461 141.805 239.875 141.714 239.95C141.624 240.018 141.135 239.837 140.593 239.529H140.602Z" fill="white"/>
<path d="M-197.062 325.651C-196.574 324.8 -195.543 324.19 -193.508 324.379C-187.857 324.913 -128.609 326.012 -120.452 324.379C-112.287 322.745 -85.0861 297.049 -73.5748 295.303C-63.9171 293.835 -16.9584 293.052 -2.07405 293.406C12.8193 293.044 59.7781 293.835 69.4266 295.303C80.938 297.056 107.732 325.259 115.897 326.892C124.063 328.526 183.717 324.913 189.369 324.379C191.413 324.183 192.444 324.792 192.923 325.651C193.927 327.419 192.299 329.459 189.939 329.519C177.324 329.813 128.593 330.28 119.478 330.144C109.911 330.001 12.0869 328.511 -4.30757 328.262C-29.0213 328.39 -113.462 328.842 -122.405 328.947C-132.949 329.068 -181.49 329.813 -194.114 329.519C-196.465 329.467 -198.102 327.427 -197.098 325.651H-197.062Z" fill="#263238"/>
<path d="M14.5556 127.252C14.0673 127.252 14.4652 134.327 7.60174 134.192C0.738321 134.056 -12.1927 134.192 -12.1927 134.192L-17.8806 125.348L14.5556 127.252Z" fill="#263238"/>
<path d="M11.5083 136.653C12.4668 136.653 13.362 137.03 13.9227 137.677C15.5594 139.536 18.8329 143.382 18.9233 144.587C19.0409 146.19 17.9557 147.499 15.9663 147.703C14.0764 147.891 -22.1306 147.725 -25.8833 147.703C-26.1184 147.703 -26.3445 147.68 -26.5706 147.627C-27.5562 147.424 -30.1244 146.747 -29.9345 145.287C-29.7536 143.954 -26.9684 139.912 -25.5035 137.865C-24.961 137.112 -23.9934 136.653 -22.9354 136.653H11.5083Z" fill="#263238"/>
<path d="M122.254 125.348C122.254 125.348 122.309 125.4 122.39 125.506C122.48 125.634 122.598 125.792 122.734 125.987C123.05 126.439 123.484 127.064 124.027 127.854C125.157 129.517 126.758 131.873 128.72 134.764C132.662 140.642 138.07 148.718 144.056 157.645C148.894 164.931 153.352 171.645 156.906 177.004L156.861 176.959C161.129 179.759 164.647 182.069 167.124 183.695C168.318 184.493 169.258 185.118 169.937 185.569C170.235 185.773 170.479 185.938 170.66 186.066C170.823 186.179 170.904 186.247 170.895 186.247C170.895 186.247 170.796 186.202 170.624 186.104L169.864 185.637C169.177 185.201 168.209 184.598 166.989 183.831C164.484 182.228 160.939 179.962 156.617 177.2L156.59 177.177L156.571 177.147C152.99 171.803 148.505 165.097 143.64 157.826C137.708 148.884 132.337 140.785 128.43 134.892C126.513 131.971 124.967 129.593 123.864 127.914C123.348 127.109 122.942 126.469 122.643 126.01C122.517 125.807 122.417 125.641 122.336 125.513C122.272 125.4 122.236 125.34 122.245 125.333L122.254 125.348Z" fill="#263238"/>
<path d="M105.561 121.11C105.58 121.064 106.484 121.207 107.913 121.576C109.332 121.96 111.294 122.592 113.148 123.744C114.993 124.903 116.277 126.296 117.118 127.319C117.95 128.358 118.366 129.043 118.312 129.065C118.248 129.096 117.733 128.463 116.847 127.477C115.951 126.506 114.658 125.174 112.868 124.053C111.068 122.939 109.178 122.276 107.804 121.832C106.42 121.396 105.543 121.162 105.561 121.102V121.11Z" fill="#263238"/>
<path d="M114.532 322.828C114.532 322.828 114.333 322.828 114.007 322.67C113.682 322.519 113.221 322.271 112.651 321.91C111.494 321.195 109.875 320.051 107.831 318.538C103.753 315.504 98.0018 310.988 91.1022 305.23C89.375 303.793 87.5846 302.272 85.7399 300.669C83.868 299.088 82.0956 297.29 79.8802 295.799C77.6557 294.316 75.0604 293.09 72.2029 292.232C69.3454 291.366 66.2528 290.862 63.0517 290.666C61.4511 290.568 59.8235 290.568 58.1686 290.561C56.5138 290.546 54.8409 290.538 53.1499 290.523C49.7679 290.5 46.3227 290.47 42.8051 290.448C35.7789 290.395 28.5085 290.342 21.0574 290.282C-8.74743 290.034 -35.7218 289.808 -55.2722 289.642C-65.0293 289.545 -72.9236 289.462 -78.4034 289.401C-81.1163 289.364 -83.2322 289.334 -84.6881 289.319C-85.3935 289.304 -85.936 289.296 -86.3249 289.289C-86.6956 289.281 -86.8855 289.266 -86.8855 289.266C-86.8855 289.266 -86.6956 289.251 -86.3249 289.251C-85.936 289.251 -85.3935 289.251 -84.6881 289.251C-83.2322 289.251 -81.1163 289.251 -78.4034 289.258C-72.9236 289.289 -65.0293 289.326 -55.2722 289.371C-35.7218 289.507 -8.74743 289.688 21.0574 289.898C28.5085 289.958 35.7789 290.011 42.8051 290.071C46.3136 290.102 49.7679 290.124 53.1499 290.154C54.8409 290.169 56.5138 290.184 58.1686 290.192C59.8144 290.207 61.4602 290.207 63.0788 290.305C66.3161 290.515 69.4449 291.027 72.3476 291.908C75.2413 292.781 77.8727 294.038 80.1243 295.543C82.376 297.071 84.1393 298.878 85.9931 300.458C87.8287 302.062 89.6192 303.59 91.3373 305.035C98.2098 310.808 103.916 315.361 107.958 318.417C109.974 319.945 111.575 321.104 112.714 321.842C113.275 322.211 113.727 322.474 114.044 322.632C114.36 322.798 114.55 322.813 114.541 322.828H114.532Z" fill="#263238"/>
<g opacity="0.3">
<path d="M163.245 277.946C166.039 275.643 168.86 273.324 172.179 271.578C175.498 269.832 180.272 267.785 183.284 269.411C184.812 270.795 186.042 272.399 186.919 274.122C187.217 274.709 187.47 275.402 187.136 275.974C186.711 276.689 185.617 276.87 184.667 276.967C177.749 277.69 170.832 278.413 163.905 279.143C163.507 279.188 163.001 279.188 162.811 278.894C162.603 278.578 162.937 278.202 163.245 277.946Z" fill="white"/>
</g>
<path d="M168.544 327.081L168.526 327.134C168.083 328.413 169.24 329.836 170.841 329.806L185.87 329.595C187.045 329.572 188.022 328.601 188.167 327.63L188.266 326.938C188.447 325.703 187.072 324.574 185.589 324.665L170.678 325.575C169.683 325.636 168.806 326.275 168.535 327.081H168.544Z" fill="white"/>
<path d="M-111.871 319.795C-111.871 319.689 -63.4017 319.599 -3.62933 319.599C56.143 319.599 104.621 319.689 104.621 319.795C104.621 319.9 56.1611 319.991 -3.62933 319.991C-63.4197 319.991 -111.871 319.9 -111.871 319.795Z" fill="#455A64"/>
<path d="M56.8936 326.358H63.2506L63.6937 319.795H56.4233L56.8936 326.358Z" fill="#455A64"/>
<path d="M-2.48094 326.358H3.86703L4.31014 319.795H-2.96021L-2.48094 326.358Z" fill="#455A64"/>
<path d="M-108.525 317.416C-97.0404 309.182 -81.5683 296.514 -73.6107 295.303C-63.9531 293.835 -16.9943 293.052 -2.11001 293.406C12.7833 293.044 59.7421 293.835 69.3907 295.303C76.7967 296.432 90.5326 308.512 101.556 317.416H-108.525Z" fill="#455A64"/>
<path d="M197.083 313.103C197.083 313.103 196.884 313.006 196.531 312.78L194.985 311.794C193.61 310.898 191.666 309.634 189.234 308.053L189.351 308.083C181.909 308.873 170.687 310.078 158.145 311.41C152.041 312.042 146.245 312.637 141.081 313.171L141.154 313.149C134.878 315.956 129.57 318.335 125.781 320.028C123.927 320.841 122.444 321.496 121.395 321.955C120.907 322.166 120.518 322.324 120.22 322.452C119.948 322.565 119.813 322.617 119.804 322.61C119.804 322.602 119.93 322.534 120.183 322.407C120.473 322.271 120.853 322.083 121.323 321.857C122.363 321.375 123.828 320.69 125.654 319.84C129.425 318.116 134.706 315.693 140.946 312.84L140.982 312.825H141.027C146.19 312.275 151.978 311.666 158.091 311.019C170.642 309.739 181.864 308.587 189.315 307.827H189.378L189.424 307.857C191.82 309.476 193.737 310.778 195.093 311.688C195.726 312.125 196.224 312.471 196.594 312.727C196.929 312.968 197.101 313.096 197.092 313.103H197.083Z" fill="#263238"/>
<path d="M119.804 298.735C119.804 298.735 116.729 294.414 119.804 293.323C123.33 292.073 182.216 286.195 184.613 286.014C189.387 285.661 191.124 287.46 192.245 292.126C193.366 296.793 195.835 308.369 191.124 311.733C186.412 315.098 179.006 316.588 164.429 317.333C149.844 318.079 142.175 318.493 134.995 315.128C127.816 311.764 119.813 298.727 119.813 298.727L119.804 298.735Z" fill="#263238"/>
<path d="M122.824 260.273C122.679 260.22 123.222 258.85 124.397 256.434C125.573 254.018 127.372 250.556 129.841 246.363C131.098 244.278 132.472 241.99 134.118 239.597C135.764 237.211 137.582 234.674 139.878 232.175C141.036 230.948 142.383 229.669 143.902 228.607C145.422 227.524 147.113 226.545 148.885 225.68C150.657 224.814 152.466 224.031 154.302 223.211C156.137 222.398 158.009 221.577 159.944 220.787C163.796 219.207 167.694 217.822 171.609 216.813C173.563 216.309 175.525 215.902 177.451 215.579C179.368 215.247 181.357 215.014 183.347 215.089C185.327 215.172 187.362 215.631 188.98 216.64C190.59 217.656 191.594 219.079 192.2 220.433C192.824 221.796 193.149 223.128 193.438 224.392C193.719 225.634 193.99 226.831 194.252 227.968C195.337 232.529 196.151 236.24 196.603 238.821C197.056 241.403 197.155 242.848 197.001 242.871C196.839 242.893 196.432 241.493 195.699 238.964C194.967 236.413 193.918 232.762 192.625 228.261C192.299 227.132 191.983 225.92 191.657 224.694C191.322 223.474 190.97 222.217 190.382 221.036C189.812 219.854 188.962 218.77 187.751 218.032C186.53 217.302 184.938 216.948 183.247 216.896C181.538 216.851 179.748 217.069 177.894 217.415C176.04 217.739 174.168 218.153 172.288 218.642C168.526 219.636 164.755 220.99 160.966 222.541C159.067 223.316 157.213 224.122 155.387 224.927C153.56 225.74 151.733 226.515 150.042 227.335C148.342 228.148 146.778 229.037 145.34 230.038C143.884 231.031 142.718 232.123 141.569 233.297C139.327 235.645 137.473 238.106 135.782 240.425C134.091 242.743 132.635 244.971 131.297 247.003C128.666 251.082 126.64 254.439 125.211 256.75C123.791 259.061 122.96 260.333 122.806 260.273H122.824Z" fill="#263238"/>
<path d="M175.959 235.6C171.374 235.6 167.386 237.715 165.325 240.838C164.366 239.393 163.824 237.737 163.824 235.976C163.824 230.399 169.258 225.875 175.959 225.875C182.66 225.875 188.094 230.399 188.094 235.976C188.094 237.737 187.552 239.393 186.593 240.838C184.531 237.715 180.544 235.6 175.959 235.6Z" fill="#E0E0E0"/>
<path d="M170.723 235.645C170.723 238.046 173.065 239.995 175.95 239.995C178.834 239.995 181.177 238.046 181.177 235.645C181.177 233.244 178.834 231.294 175.95 231.294C173.065 231.294 170.723 233.244 170.723 235.645Z" fill="white"/>
<path d="M170.723 235.645C170.723 235.645 170.696 235.547 170.696 235.367C170.696 235.186 170.714 234.907 170.804 234.569C170.976 233.891 171.474 232.875 172.694 232.077C173.87 231.279 175.859 230.805 177.813 231.392C178.771 231.671 179.693 232.213 180.354 232.965C181.032 233.711 181.412 234.667 181.421 235.653C181.412 236.639 181.032 237.594 180.354 238.34C179.693 239.092 178.771 239.634 177.813 239.913C175.859 240.5 173.87 240.026 172.694 239.228C171.474 238.43 170.976 237.414 170.804 236.736C170.714 236.39 170.687 236.119 170.696 235.939C170.696 235.758 170.714 235.66 170.723 235.66C170.768 235.66 170.759 236.051 170.976 236.706C171.193 237.354 171.727 238.287 172.893 239.009C174.024 239.732 175.877 240.138 177.668 239.582C179.44 239.07 180.978 237.497 180.95 235.66C180.968 233.824 179.44 232.25 177.668 231.739C175.877 231.182 174.024 231.581 172.893 232.311C171.727 233.033 171.193 233.974 170.976 234.614C170.759 235.269 170.768 235.66 170.723 235.66V235.645Z" fill="#263238"/>
<path d="M163.824 235.977C163.824 235.977 163.806 235.758 163.824 235.329C163.824 235.119 163.833 234.855 163.896 234.547C163.941 234.238 163.986 233.884 164.122 233.493C164.538 231.942 165.732 229.639 168.526 227.84C169.909 226.96 171.664 226.207 173.689 225.898C175.706 225.597 177.994 225.642 180.173 226.32C181.267 226.636 182.334 227.11 183.302 227.712C184.287 228.307 185.183 229.037 185.924 229.895C187.452 231.573 188.311 233.749 188.338 235.977C188.32 238.212 187.452 240.38 185.924 242.058C185.183 242.909 184.287 243.646 183.302 244.241C182.325 244.843 181.267 245.317 180.173 245.634C177.994 246.318 175.706 246.356 173.689 246.055C171.655 245.746 169.9 244.994 168.526 244.113C165.732 242.314 164.547 240.011 164.122 238.46C163.986 238.069 163.941 237.715 163.896 237.407C163.833 237.098 163.824 236.835 163.824 236.624C163.815 236.202 163.824 235.977 163.824 235.977C163.896 235.977 163.824 236.88 164.294 238.423C164.764 239.936 165.976 242.171 168.716 243.895C170.072 244.738 171.781 245.453 173.753 245.739C175.706 246.017 177.912 245.965 180.019 245.295C181.077 244.986 182.099 244.527 183.03 243.94C183.98 243.368 184.839 242.653 185.544 241.832C187.009 240.207 187.832 238.122 187.859 235.977C187.832 233.832 187.009 231.747 185.544 230.121C184.839 229.3 183.98 228.585 183.03 228.013C182.09 227.426 181.077 226.967 180.019 226.658C177.921 225.989 175.715 225.936 173.753 226.214C171.781 226.5 170.072 227.215 168.716 228.058C165.976 229.782 164.755 232.01 164.294 233.53C163.824 235.073 163.896 235.984 163.824 235.977Z" fill="#263238"/>
<path d="M171.374 228.811C171.211 228.608 172.043 227.795 173.933 227.245C175.778 226.696 178.789 226.553 181.601 227.795C184.405 229.052 185.951 231.204 186.43 232.785C186.937 234.403 186.593 235.427 186.304 235.427C185.951 235.442 185.68 234.524 184.884 233.289C184.106 232.055 182.669 230.489 180.507 229.526C178.337 228.57 175.977 228.45 174.313 228.6C172.631 228.736 171.564 229.067 171.383 228.811H171.374Z" fill="white"/>
<path d="M168.336 230.414C167.802 230.106 167.567 229.616 167.884 229.36C168.2 229.105 168.788 229.315 169.141 229.767C169.493 230.219 169.656 230.655 169.53 230.768C169.394 230.873 168.879 230.723 168.345 230.414H168.336Z" fill="white"/>
<path d="M99.4665 274.129C99.3038 273.602 115.273 269.793 135.131 265.616C154.989 261.439 171.22 258.481 171.374 259.008C171.537 259.534 155.568 263.343 135.701 267.52C115.843 271.698 99.6203 274.656 99.4575 274.129H99.4665Z" fill="#263238"/>
<path d="M195.129 218.852C195.129 218.852 195.102 218.777 195.066 218.627C195.03 218.476 194.976 218.25 194.885 217.964C194.695 217.392 194.379 216.542 193.701 215.556C193.022 214.585 191.928 213.486 190.274 212.673C189.867 212.462 189.396 212.312 188.935 212.131C188.438 212.011 187.95 211.837 187.416 211.755C186.882 211.679 186.331 211.551 185.761 211.544C185.192 211.514 184.595 211.529 183.998 211.574C181.574 211.747 178.961 212.259 176.185 212.891C173.409 213.523 170.488 214.306 167.432 215.187C161.337 216.971 154.681 219.108 147.917 221.728C147.077 222.059 146.245 222.398 145.44 222.759C144.635 223.113 143.912 223.557 143.197 224.023C141.787 224.957 140.511 226.003 139.417 227.132C137.356 229.473 135.466 231.859 133.657 234.079C130.049 238.55 126.938 242.66 124.397 246.145C121.865 249.637 119.903 252.497 118.565 254.484C117.905 255.463 117.389 256.23 117.019 256.772C116.847 257.021 116.711 257.209 116.612 257.367C116.521 257.502 116.467 257.563 116.458 257.563C116.458 257.563 116.485 257.487 116.566 257.352C116.657 257.194 116.783 256.991 116.937 256.742C117.263 256.208 117.751 255.418 118.402 254.416C119.695 252.407 121.612 249.517 124.108 246.002C126.613 242.494 129.696 238.369 133.295 233.883C135.113 231.64 136.958 229.292 139.056 226.899C140.168 225.739 141.47 224.678 142.899 223.722C143.622 223.256 144.373 222.789 145.205 222.42C146.028 222.051 146.859 221.713 147.709 221.374C154.501 218.747 161.165 216.624 167.287 214.848C170.352 213.975 173.291 213.2 176.086 212.575C178.871 211.958 181.511 211.461 183.971 211.295C184.586 211.25 185.192 211.243 185.788 211.28C186.385 211.295 186.937 211.431 187.488 211.514C188.04 211.604 188.537 211.785 189.044 211.913C189.514 212.108 189.993 212.266 190.409 212.485C192.1 213.343 193.203 214.479 193.863 215.48C194.524 216.497 194.822 217.362 194.976 217.949C195.057 218.243 195.093 218.469 195.111 218.627C195.129 218.777 195.129 218.86 195.12 218.86L195.129 218.852Z" fill="#263238"/>
<g opacity="0.3">
<path d="M198.891 223.113C199.786 223.361 204.697 225.905 206.777 226.876C208.856 227.847 210.674 229.375 211.28 231.295C211.877 233.206 211.216 235.224 210.565 237.12C208.422 243.33 205.936 254.492 203.792 260.694C202.12 249.434 200.293 230.256 198.891 223.105" fill="white"/>
</g>
<path d="M131.55 312.441C131.532 312.335 145.485 310.634 162.721 308.655C179.956 306.668 193.936 305.147 193.954 305.253C193.972 305.358 180.019 307.059 162.784 309.039C145.557 311.026 131.568 312.546 131.55 312.441Z" fill="#455A64"/>
<path d="M135.999 315.286C135.999 315.286 136.198 315.233 136.578 315.18C137.003 315.12 137.555 315.045 138.242 314.955C139.689 314.767 141.787 314.511 144.382 314.21C149.572 313.607 156.743 312.862 164.683 312.079C172.586 311.297 179.748 310.582 184.993 310.062C187.552 309.806 189.641 309.596 191.151 309.445C191.838 309.385 192.399 309.332 192.824 309.295C193.203 309.264 193.411 309.257 193.411 309.264C193.411 309.279 193.213 309.317 192.833 309.37C192.408 309.43 191.856 309.505 191.169 309.596C189.722 309.784 187.624 310.04 185.029 310.341C179.838 310.943 172.667 311.688 164.728 312.471C156.825 313.254 149.672 313.969 144.418 314.488C141.859 314.744 139.77 314.955 138.26 315.105C137.573 315.165 137.012 315.218 136.587 315.256C136.207 315.286 135.999 315.293 135.999 315.286Z" fill="#455A64"/>
<path d="M145.774 317.416C145.729 317.416 146.326 317.341 147.348 317.235C148.451 317.115 149.925 316.964 151.715 316.776C155.477 316.4 160.541 315.896 166.139 315.331C171.736 314.804 176.809 314.33 180.571 313.969C182.361 313.818 183.844 313.69 184.947 313.6C185.978 313.525 186.557 313.487 186.557 313.517C186.557 313.547 185.996 313.63 184.966 313.751C183.862 313.879 182.388 314.044 180.607 314.247C176.917 314.646 171.826 315.173 166.193 315.723C160.559 316.272 155.459 316.739 151.761 317.055C148.071 317.363 145.738 317.521 145.783 317.424L145.774 317.416Z" fill="#455A64"/>
<path d="M128.286 309.204C128.268 309.099 142.953 307.398 161.084 305.418C179.223 303.431 193.936 301.911 193.945 302.016C193.963 302.122 179.278 303.823 161.138 305.802C143.007 307.789 128.295 309.31 128.277 309.204H128.286Z" fill="#455A64"/>
<path d="M125.736 306.194C125.718 306.088 140.927 304.334 159.691 302.28C178.464 300.225 193.701 298.644 193.719 298.75C193.737 298.855 178.536 300.609 159.754 302.664C140.982 304.718 125.754 306.299 125.736 306.186V306.194Z" fill="#455A64"/>
<path d="M122.869 302.642C122.851 302.536 138.486 300.737 157.783 298.622C177.089 296.507 192.751 294.881 192.76 294.994C192.778 295.1 177.144 296.899 157.837 299.014C138.54 301.129 122.878 302.754 122.86 302.642H122.869Z" fill="#455A64"/>
<path d="M120.672 299.013C120.654 298.908 136.569 297.079 156.21 294.926C175.86 292.774 191.793 291.118 191.811 291.231C191.829 291.336 175.923 293.165 156.273 295.318C136.632 297.47 120.69 299.126 120.672 299.013Z" fill="#455A64"/>
<path d="M118.447 295.385C118.429 295.28 134.471 293.436 154.274 291.268C174.078 289.101 190.147 287.43 190.165 287.535C190.183 287.64 174.141 289.484 154.338 291.652C134.534 293.82 118.465 295.491 118.447 295.385Z" fill="#455A64"/>
<path d="M170.307 287.106C170.434 287.083 172.197 293.564 174.25 301.58C176.303 309.596 177.858 316.114 177.731 316.136C177.605 316.159 175.841 309.678 173.789 301.662C171.736 293.646 170.181 287.128 170.307 287.106Z" fill="#455A64"/>
<path d="M176.23 286.285C176.357 286.263 178.12 292.743 180.173 300.759C182.226 308.775 183.781 315.293 183.654 315.316C183.528 315.339 181.765 308.858 179.712 300.842C177.659 292.826 176.104 286.308 176.23 286.285Z" fill="#455A64"/>
<path d="M182.144 285.465C182.271 285.442 183.944 291.577 185.888 299.156C187.832 306.743 189.297 312.908 189.17 312.93C189.044 312.953 187.371 306.826 185.427 299.239C183.492 291.659 182.018 285.487 182.144 285.465Z" fill="#455A64"/>
<path d="M188.565 286.587C188.565 286.587 188.7 286.865 188.863 287.384C189.026 287.904 189.243 288.657 189.487 289.597C189.993 291.472 190.608 294.068 191.214 296.951C191.829 299.781 192.381 302.34 192.806 304.32C192.995 305.2 193.158 305.946 193.285 306.555C193.393 307.082 193.43 307.383 193.402 307.383C193.366 307.383 193.267 307.105 193.104 306.585C192.941 306.066 192.724 305.313 192.48 304.372C191.974 302.498 191.359 299.902 190.753 297.011C190.138 294.181 189.586 291.622 189.161 289.643C188.971 288.762 188.809 288.017 188.682 287.407C188.574 286.88 188.537 286.579 188.565 286.579V286.587Z" fill="#455A64"/>
<path d="M163.471 288.129C163.598 288.107 165.307 294.362 167.287 302.099C169.267 309.837 170.768 316.129 170.642 316.152C170.515 316.174 168.806 309.92 166.826 302.182C164.845 294.444 163.344 288.152 163.471 288.129Z" fill="#455A64"/>
<path d="M156.662 289.273C156.788 289.251 158.497 295.521 160.487 303.281C162.467 311.041 163.977 317.348 163.851 317.371C163.724 317.394 162.015 311.124 160.026 303.364C158.045 295.611 156.535 289.304 156.662 289.281V289.273Z" fill="#455A64"/>
<path d="M149.645 289.582C149.771 289.56 151.471 295.777 153.434 303.461C155.405 311.154 156.888 317.401 156.761 317.424C156.635 317.446 154.935 311.237 152.972 303.544C151.01 295.859 149.518 289.605 149.645 289.582Z" fill="#455A64"/>
<path d="M142.736 290.335C142.863 290.312 144.554 296.491 146.507 304.139C148.46 311.786 149.943 318.003 149.816 318.026C149.69 318.048 147.999 311.869 146.046 304.221C144.092 296.574 142.609 290.357 142.736 290.335Z" fill="#455A64"/>
<path d="M135.918 291.456C136.045 291.434 137.627 297.214 139.463 304.365C141.289 311.515 142.673 317.333 142.546 317.356C142.42 317.378 140.837 311.598 139.002 304.447C137.175 297.297 135.791 291.479 135.918 291.456Z" fill="#455A64"/>
<path d="M128.946 291.938C129.072 291.915 130.565 297.32 132.274 304.004C133.983 310.687 135.267 316.129 135.14 316.152C135.014 316.174 133.521 310.778 131.812 304.086C130.103 297.403 128.819 291.968 128.946 291.946V291.938Z" fill="#455A64"/>
<path d="M122.082 292.872C122.209 292.849 123.131 296.033 124.144 299.977C125.157 303.921 125.871 307.142 125.745 307.165C125.618 307.188 124.696 304.004 123.683 300.06C122.67 296.116 121.956 292.894 122.082 292.872Z" fill="#455A64"/>
<path d="M-103.325 314.443C-103.325 314.338 -58.392 314.248 -2.96919 314.248C52.4536 314.248 97.3959 314.338 97.3959 314.443C97.3959 314.549 52.4717 314.639 -2.96919 314.639C-58.4101 314.639 -103.325 314.549 -103.325 314.443Z" fill="#263238"/>
<path d="M-99.3826 310.664C-99.3826 310.559 -56.3754 310.469 -3.34895 310.469C49.6775 310.469 92.6937 310.559 92.6937 310.664C92.6937 310.77 49.6956 310.86 -3.34895 310.86C-56.3935 310.86 -99.3826 310.77 -99.3826 310.664Z" fill="#263238"/>
<path d="M-93.4053 306.795C-93.4053 306.69 -52.7312 306.6 -2.57123 306.6C47.5887 306.6 88.2719 306.69 88.2719 306.795C88.2719 306.901 47.6068 306.991 -2.57123 306.991C-52.7492 306.991 -93.4053 306.901 -93.4053 306.795Z" fill="#263238"/>
<path d="M-89.4265 302.927C-89.4265 302.821 -50.6875 302.731 -2.90582 302.731C44.8759 302.731 83.6239 302.821 83.6239 302.927C83.6239 303.032 44.894 303.122 -2.90582 303.122C-50.7056 303.122 -89.4265 303.032 -89.4265 302.927Z" fill="#263238"/>
<path d="M-82.78 299.239C-82.78 299.133 -46.8624 299.043 -2.56213 299.043C41.7381 299.043 77.6648 299.133 77.6648 299.239C77.6648 299.344 41.7562 299.434 -2.56213 299.434C-46.8805 299.434 -82.78 299.344 -82.78 299.239Z" fill="#263238"/>
<path d="M-75.2566 295.558C-75.2566 295.453 -42.8023 295.363 -2.78828 295.363C37.2257 295.363 69.689 295.453 69.689 295.558C69.689 295.664 37.2438 295.754 -2.78828 295.754C-42.8204 295.754 -75.2566 295.664 -75.2566 295.558Z" fill="#263238"/>
<ellipse cx="233.286" cy="170" rx="4.57143" ry="4" fill="white" fill-opacity="0.4"/>
</svg>
